<svg xmlns="http://www.w3.org/2000/svg">
<defs>
<font id="BuiltTitlingRg-Bold" horiz-adv-x="453" >
  <font-face 
    font-family="Built Titling Rg"
    font-weight="700"
    font-stretch="normal"
    units-per-em="1000"
    panose-1="2 11 8 6 3 2 2 8 2 4"
    ascent="762"
    descent="-238"
    x-height="757"
    cap-height="757"
    bbox="-173 -238.005 870 962.002"
    underline-thickness="20"
    underline-position="-123"
    unicode-range="U+0017-U+25CA"
  />
<missing-glyph horiz-adv-x="809" 
d="M405 -169c-56.667 0 -105.331 1.33398 -145.998 4.00098s-74.667 9.5 -102 20.5s-49.166 27.833 -65.499 50.5s-28.833 54.334 -37.5 95.001s-14.167 91.667 -16.5 153s-3.5 136.333 -3.5 225s1.16699 163.667 3.5 225s7.83301 112.333 16.5 153
s21.167 72.334 37.5 95.001s38.166 39.667 65.499 51s61.166 18.166 101.499 20.499s89.166 3.5 146.499 3.5s106.166 -1.16699 146.499 -3.5s74.166 -9.16602 101.499 -20.499s49.166 -28.333 65.499 -51s28.666 -54.334 36.999 -95.001s13.666 -91.667 15.999 -153
s3.5 -136.333 3.5 -225c0 -88 -1.16699 -162.833 -3.5 -224.5s-7.66602 -112.834 -15.999 -153.501s-20.666 -72.334 -36.999 -95.001s-38.166 -39.5 -65.499 -50.5s-61.166 -17.833 -101.499 -20.5s-89.166 -4 -146.499 -4zM403.003 212.001
c6 22.667 11.1641 40.668 15.4971 54.001s8 23.833 11 31.5s6.16699 13 9.5 16s7 5.83301 11 8.5c12.667 7.33301 25.5 13 38.5 17s26.833 10.667 41.5 20c10 6.66699 18.667 14 26 22s14 18 20 30s11.833 26.667 17.5 44s11.834 39 18.501 65
c4.66699 18.667 8.33398 35.834 11.001 51.501s4 30.167 4 43.5c0 36 -11.167 64.667 -33.5 86s-59.833 39 -112.5 53c-36 9.33301 -65.667 14 -89 14c-35.333 0 -63.166 -10.167 -83.499 -30.5s-36.5 -53.5 -48.5 -99.5c-5.33301 -19.333 -8.83301 -34.833 -10.5 -46.5
s-2.5 -22.834 -2.5 -33.501l127 -33c2.66699 28 8.16699 48.833 16.5 62.5s18.166 20.5 29.499 20.5c19.333 0 33.333 -3.83301 42 -11.5s13 -16.834 13 -27.501c0 -5.33301 -0.666992 -10.666 -2 -15.999s-2.66602 -12 -3.99902 -20c-4 -15.333 -7.5 -27.5 -10.5 -36.5

<glyph glyph-name="copyright" unicode="&#x28;C&#x29;" horiz-adv-x="630" 
d="M75 49c-9.33301 11.333 -17.333 23.833 -24 37.5s-12.167 32.167 -16.5 55.5s-7.5 53.833 -9.5 91.5s-3 86.167 -3 145.5s1 107.666 3 144.999s5.16699 67.666 9.5 90.999s9.83301 41.666 16.5 54.999s14.667 26 24 38c9.33301 11.333 20.5 21 33.5 29s29 14.5 48 19.5
s41.5 8.5 67.5 10.5s56 3 90 3c34.667 0 65 -1 91 -3s48.5 -5.5 67.5 -10.5s35.167 -11.5 48.5 -19.5s24.666 -17.667 33.999 -29c9.33301 -12 17.333 -24.667 24 -38s12.167 -31.666 16.5 -54.999s7.5 -53.666 9.5 -90.999s3 -85.666 3 -144.999s-1 -107.833 -3 -145.5
s-5.16699 -68.167 -9.5 -91.5s-9.83301 -41.833 -16.5 -55.5s-14.667 -26.167 -24 -37.5c-9.33301 -12 -20.666 -21.833 -33.999 -29.5s-29.5 -14 -48.5 -19s-41.5 -8.5 -67.5 -10.5s-56.333 -3 -91 -3c-34 0 -64 1 -90 3s-48.5 5.5 -67.5 10.5s-35 11.333 -48 19
s-24.167 17.5 -33.5 29.5zM486 103c6 7.33301 11.3311 16.0029 15.998 26.0029s8.33398 24.833 11.001 44.5s4.66699 45.667 6 78s2 74.833 2 127.5c0 52 -0.666992 94.167 -2 126.5s-3.33301 58 -6 77s-6.33398 33.5 -11.001 43.5s-10 18.667 -16 26
c-9.33301 11.333 -27 19.5 -53 24.5s-65.667 7.5 -119 7.5s-93 -2.5 -119 -7.5s-43.667 -13.167 -53 -24.5c-6 -7.33301 -11 -15.833 -15 -25.5s-7.33301 -24 -10 -43s-4.66699 -44.667 -6 -77s-2 -74.833 -2 -127.5s0.666992 -95.334 2 -128.001s3.33301 -58.834 6 -78.501
s6 -34.334 10 -44.001s9 -18.167 15 -25.5c8.66699 -11.333 26 -19 52 -23s66 -6 120 -6c54.667 0 94.834 2 120.501 6s42.834 11.667 51.501 23zM415.998 339.003c0.666992 -6.66699 1.16797 -12.8281 1.50098 -18.4951s0.5 -11.5 0.5 -17.5
c0 -20.667 -1.16699 -38.5 -3.5 -53.5s-7 -27.5 -14 -37.5s-17.167 -17.333 -30.5 -22s-30.666 -7 -51.999 -7c-25.333 0 -44.833 2.33301 -58.5 7s-23.834 12.667 -30.501 24c-3.33301 6 -6.16602 12.667 -8.49902 20s-4.33301 17.333 -6 30
s-2.83398 28.834 -3.50098 48.501s-1 44.5 -1 74.5s0.333008 54.5 1 73.5s1.83398 34.333 3.50098 46s3.66699 21 6 28s5.16602 13.5 8.49902 19.5c6.66699 12 16.667 20.167 30 24.5s32 6.5 56 6.5c22 0 39.667 -2.16699 53 -6.5s23.666 -11 30.999 -20
s12.166 -20.667 14.499 -35s3.5 -31.833 3.5 -52.5c0 -5.33301 -0.166992 -10.833 -0.5 -16.5s-0.5 -11.834 -0.5 -18.501h-76c0 20.667 -0.166992 34.834 -0.5 42.501s-1.16602 13.5 -2.49902 17.5c-2 6 -9.33301 9 -22 9c-11.333 0 -18 -3 -20 -9
c-0.666992 -2.66699 -1.33398 -5.83398 -2.00098 -9.50098s-1.16699 -9.33398 -1.5 -17.001s-0.5 -17.834 -0.5 -30.501v-51v-51.5c0 -13 0.166992 -23.333 0.5 -31s0.833008 -13.334 1.5 -17.001s1.33398 -6.83398 2.00098 -9.50098
c1.33301 -3.33301 3.5 -5.83301 6.5 -7.5s8.5 -2.5 16.5 -2.5c9.33301 0 15.333 3 18 9c2.66699 7.33301 4.16699 15.166 4.5 23.499s0.5 20.833 0.5 37.5h75z" />
    <glyph glyph-name="registered" unicode="&#x28;R&#x29;" horiz-adv-x="630" 
d="M75 49c-9.33301 11.333 -17.333 23.833 -24 37.5s-12.167 32.167 -16.5 55.5s-7.5 53.833 -9.5 91.5s-3 86.167 -3 145.5s1 107.666 3 144.999s5.16699 67.666 9.5 90.999s9.83301 41.666 16.5 54.999s14.667 26 24 38c9.33301 11.333 20.5 21 33.5 29s29 14.5 48 19.5
s41.5 8.5 67.5 10.5s56 3 90 3c34.667 0 65 -1 91 -3s48.5 -5.5 67.5 -10.5s35.167 -11.5 48.5 -19.5s24.666 -17.667 33.999 -29c9.33301 -12 17.333 -24.667 24 -38s12.167 -31.666 16.5 -54.999s7.5 -53.666 9.5 -90.999s3 -85.666 3 -144.999s-1 -107.833 -3 -145.5
s-5.16699 -68.167 -9.5 -91.5s-9.83301 -41.833 -16.5 -55.5s-14.667 -26.167 -24 -37.5c-9.33301 -12 -20.666 -21.833 -33.999 -29.5s-29.5 -14 -48.5 -19s-41.5 -8.5 -67.5 -10.5s-56.333 -3 -91 -3c-34 0 -64 1 -90 3s-48.5 5.5 -67.5 10.5s-35 11.333 -48 19
s-24.167 17.5 -33.5 29.5zM486 103c6 7.33301 11.3311 16.0029 15.998 26.0029s8.33398 24.833 11.001 44.5s4.66699 45.667 6 78s2 74.833 2 127.5c0 52 -0.666992 94.167 -2 126.5s-3.33301 58 -6 77s-6.33398 33.5 -11.001 43.5s-10 18.667 -16 26
c-9.33301 11.333 -27 19.5 -53 24.5s-65.667 7.5 -119 7.5s-93 -2.5 -119 -7.5s-43.667 -13.167 -53 -24.5c-6 -7.33301 -11 -15.833 -15 -25.5s-7.33301 -24 -10 -43s-4.66699 -44.667 -6 -77s-2 -74.833 -2 -127.5s0.666992 -95.334 2 -128.001s3.33301 -58.834 6 -78.501
s6 -34.334 10 -44.001s9 -18.167 15 -25.5c8.66699 -11.333 26 -19 52 -23s66 -6 120 -6c54.667 0 94.834 2 120.501 6s42.834 11.667 51.501 23zM342.998 189.003c-1.33301 3.33301 -2.50684 6.66797 -3.50684 10.001s-2.16699 8.83301 -3.5 16.5s-2.83301 18 -4.5 31
s-3.5 30.833 -5.5 53.5c-2 17.333 -4.16699 28.5 -6.5 33.5s-6.16602 7.5 -11.499 7.5h-12v-152h-81v390h118c34.667 0 57.834 -8.16699 69.501 -24.5s17.5 -43.166 17.5 -80.499c0 -18 -0.666992 -32.667 -2 -44s-3.33301 -20.5 -6 -27.5s-6.16699 -12.333 -10.5 -16
s-9.16602 -6.83398 -14.499 -9.50098v-10c2 -1.33301 4.16699 -3.16602 6.5 -5.49902s4.5 -5.83301 6.5 -10.5c2.66699 -6.66699 5.33398 -15.334 8.00098 -26.001s5.33398 -27.334 8.00098 -50.001c2 -16 3.66699 -28.667 5 -38s2.33301 -16.833 3 -22.5
s1.33398 -10 2.00098 -13s1.33398 -5.83301 2.00098 -8.5v-4h-85zM318.991 413.005c7.33301 0 12.5 3.16699 15.5 9.5s4.5 18.833 4.5 37.5c0 15.333 -1.66699 25.5 -5 30.5s-9 7.5 -17 7.5h-21v-85h23z" />
    <glyph glyph-name="uni2117" unicode="&#x28;P&#x29;" horiz-adv-x="630" 
d="M75 49c-9.33301 11.333 -17.333 23.833 -24 37.5s-12.167 32.167 -16.5 55.5s-7.5 53.833 -9.5 91.5s-3 86.167 -3 145.5s1 107.666 3 144.999s5.16699 67.666 9.5 90.999s9.83301 41.666 16.5 54.999s14.667 26 24 38c9.33301 11.333 20.5 21 33.5 29s29 14.5 48 19.5
s41.5 8.5 67.5 10.5s56 3 90 3c34.667 0 65 -1 91 -3s48.5 -5.5 67.5 -10.5s35.167 -11.5 48.5 -19.5s24.666 -17.667 33.999 -29c9.33301 -12 17.333 -24.667 24 -38s12.167 -31.666 16.5 -54.999s7.5 -53.666 9.5 -90.999s3 -85.666 3 -144.999s-1 -107.833 -3 -145.5
s-5.16699 -68.167 -9.5 -91.5s-9.83301 -41.833 -16.5 -55.5s-14.667 -26.167 -24 -37.5c-9.33301 -12 -20.666 -21.833 -33.999 -29.5s-29.5 -14 -48.5 -19s-41.5 -8.5 -67.5 -10.5s-56.333 -3 -91 -3c-34 0 -64 1 -90 3s-48.5 5.5 -67.5 10.5s-35 11.333 -48 19
s-24.167 17.5 -33.5 29.5zM486 103c6 7.33301 11.3311 16.0029 15.998 26.0029s8.33398 24.833 11.001 44.5s4.66699 45.667 6 78s2 74.833 2 127.5c0 52 -0.666992 94.167 -2 126.5s-3.33301 58 -6 77s-6.33398 33.5 -11.001 43.5s-10 18.667 -16 26
c-9.33301 11.333 -27 19.5 -53 24.5s-65.667 7.5 -119 7.5s-93 -2.5 -119 -7.5s-43.667 -13.167 -53 -24.5c-6 -7.33301 -11 -15.833 -15 -25.5s-7.33301 -24 -10 -43s-4.66699 -44.667 -6 -77s-2 -74.833 -2 -127.5s0.666992 -95.334 2 -128.001s3.33301 -58.834 6 -78.501
s6 -34.334 10 -44.001s9 -18.167 15 -25.5c8.66699 -11.333 26 -19 52 -23s66 -6 120 -6c54.667 0 94.834 2 120.501 6s42.834 11.667 51.501 23zM218.998 189.003v390.001h117c17.333 0 31.666 -2.33301 42.999 -7s20.333 -12.334 27 -23.001s11.334 -24.5 14.001 -41.5
s4 -37.833 4 -62.5c0 -25.333 -1.33301 -46.833 -4 -64.5s-7.33398 -32 -14.001 -43s-15.667 -19 -27 -24s-25.666 -7.5 -42.999 -7.5h-36v-117h-81zM321.998 386.004c7.33301 0 12.667 4.33203 16 12.999s5 24.667 5 48c0 20.667 -1.83301 34.334 -5.5 41.001
s-9.5 10 -17.5 10h-20v-112h22z" />
    <glyph glyph-name=".notdef" horiz-adv-x="809" 
d="M405 -169c-56.667 0 -105.331 1.33398 -145.998 4.00098s-74.667 9.5 -102 20.5s-49.166 27.833 -65.499 50.5s-28.833 54.334 -37.5 95.001s-14.167 91.667 -16.5 153s-3.5 136.333 -3.5 225s1.16699 163.667 3.5 225s7.83301 112.333 16.5 153
s21.167 72.334 37.5 95.001s38.166 39.667 65.499 51s61.166 18.166 101.499 20.499s89.166 3.5 146.499 3.5s106.166 -1.16699 146.499 -3.5s74.166 -9.16602 101.499 -20.499s49.166 -28.333 65.499 -51s28.666 -54.334 36.999 -95.001s13.666 -91.667 15.999 -153
s3.5 -136.333 3.5 -225c0 -88 -1.16699 -162.833 -3.5 -224.5s-7.66602 -112.834 -15.999 -153.501s-20.666 -72.334 -36.999 -95.001s-38.166 -39.5 -65.499 -50.5s-61.166 -17.833 -101.499 -20.5s-89.166 -4 -146.499 -4zM403.003 212.001
c6 22.667 11.1641 40.668 15.4971 54.001s8 23.833 11 31.5s6.16699 13 9.5 16s7 5.83301 11 8.5c12.667 7.33301 25.5 13 38.5 17s26.833 10.667 41.5 20c10 6.66699 18.667 14 26 22s14 18 20 30s11.833 26.667 17.5 44s11.834 39 18.501 65
c4.66699 18.667 8.33398 35.834 11.001 51.501s4 30.167 4 43.5c0 36 -11.167 64.667 -33.5 86s-59.833 39 -112.5 53c-36 9.33301 -65.667 14 -89 14c-35.333 0 -63.166 -10.167 -83.499 -30.5s-36.5 -53.5 -48.5 -99.5c-5.33301 -19.333 -8.83301 -34.833 -10.5 -46.5
s-2.5 -22.834 -2.5 -33.501l127 -33c2.66699 28 8.16699 48.833 16.5 62.5s18.166 20.5 29.499 20.5c19.333 0 33.333 -3.83301 42 -11.5s13 -16.834 13 -27.501c0 -5.33301 -0.666992 -10.666 -2 -15.999s-2.66602 -12 -3.99902 -20c-4 -15.333 -7.5 -27.5 -10.5 -36.5
s-7 -16.167 -12 -21.5s-11.333 -10 -19 -14s-17.834 -8.66699 -30.501 -14c-14.667 -6.66699 -27.5 -13.167 -38.5 -19.5s-20.333 -13.333 -28 -21s-14.167 -16.334 -19.5 -26.001s-9.66602 -20.834 -12.999 -33.501l-15 -57c-4.66699 -17.333 -7.66699 -31.666 -9 -42.999z
M394 136.002l-151 40l-39 -146l151 -41z" />
    <glyph glyph-name="uni0017" horiz-adv-x="198" 
 />
    <glyph glyph-name="space" unicode=" " horiz-adv-x="198" 
 />
    <glyph glyph-name="exclam" unicode="!" horiz-adv-x="241" 
d="M54 227l-20 561h172l-18 -561h-134zM42 0v151h157v-151h-157z" />
    <glyph glyph-name="quotedbl" unicode="&#x22;" horiz-adv-x="376" 
d="M51 484l-22 304h144l-21 -304h-101zM224 484l-22 304h144l-21 -304h-101z" />
    <glyph glyph-name="numbersign" unicode="#" 
d="M265 0v213h-78v-213h-95v213h-77v95h77v143h-77v95h77v211h95v-211h78v211h96v-211h77v-95h-77v-143h77v-95h-77v-213h-96zM265 451h-78v-143h78v143z" />
    <glyph glyph-name="dollar" unicode="$" 
d="M196 -43l-0.00195312 124.998c-58.667 1.33301 -101.5 12 -128.5 32s-40.5 53.667 -40.5 101c0 14 0.333008 27.167 1 39.5s2 24.166 4 35.499h143v-17c0 -19.333 2.66699 -33.833 8 -43.5s18.666 -14.5 39.999 -14.5c22 0 35.333 5.16699 40 15.5s7 22.833 7 37.5
c0 14 -2.5 24.167 -7.5 30.5s-14.833 12.833 -29.5 19.5c-26.667 12.667 -54.167 23.5 -82.5 32.5s-53.5 20.833 -75.5 35.5c-10.667 6.66699 -19.334 14.167 -26.001 22.5s-11.667 18.333 -15 30s-5.66602 25.334 -6.99902 41.001s-2 34.167 -2 55.5
c0 28 2.5 51.833 7.5 71.5s14 35.834 27 48.501s30.5 22 52.5 28s50 9.66699 84 11v107h63v-107c28.667 -1.33301 52.834 -4.66602 72.501 -9.99902s35.667 -13.333 48 -24s21.333 -24.667 27 -42s8.5 -38.333 8.5 -63c0 -21.333 -1 -39.333 -3 -54h-144v21
c0 17.333 -3 30 -9 38s-18 12 -36 12c-19.333 0 -31.833 -4.33301 -37.5 -13s-8.5 -19.667 -8.5 -33c0 -14 2.66699 -24 8 -30s16 -12.333 32 -19c15.333 -6 29.333 -11 42 -15l36.5 -11.5c11.667 -3.66699 22.667 -7.5 33 -11.5s20.833 -8.66699 31.5 -14
c11.333 -5.33301 21.333 -11.5 30 -18.5s15.834 -16.167 21.501 -27.5s9.83398 -25.166 12.501 -41.499s4 -36.166 4 -59.499c0 -34 -2.83301 -62.833 -8.5 -86.5s-15 -43.334 -28 -59.001s-30.333 -27.334 -52 -35.001s-48.5 -12.5 -80.5 -14.5v-126h-63z" />
    <glyph glyph-name="percent" unicode="%" horiz-adv-x="619" 
d="M138 341c-27.333 0 -48.666 1.5 -63.999 4.5s-26.833 11.5 -34.5 25.5s-12.5 35.5 -14.5 64.5s-3 69.833 -3 122.5c0 52 1 92.667 3 122s6.83301 51 14.5 65s19.167 22.5 34.5 25.5s36.666 4.5 63.999 4.5c26.667 0 47.834 -1.5 63.501 -4.5s27.334 -11.5 35.001 -25.5
s12.5 -35.667 14.5 -65s3 -70 3 -122c0 -52.667 -1 -93.5 -3 -122.5s-6.83301 -50.5 -14.5 -64.5s-19.334 -22.5 -35.001 -25.5s-36.834 -4.5 -63.501 -4.5zM138 444c4.66699 0 8.33398 0.666992 11.001 2s4.66699 5.66602 6 12.999s2.16602 18.833 2.49902 34.5
s0.5 37.834 0.5 66.501c0 29.333 -0.166992 52 -0.5 68s-1 27.833 -2 35.5s-3 12.167 -6 13.5s-6.83301 2 -11.5 2c-5.33301 0 -9.33301 -0.666992 -12 -2s-4.5 -5.83301 -5.5 -13.5s-1.66699 -19.5 -2 -35.5s-0.5 -38.667 -0.5 -68c0 -28.667 0.166992 -50.834 0.5 -66.501
s1.16602 -27.167 2.49902 -34.5s3.33301 -11.666 6 -12.999s6.33398 -2 11.001 -2zM44 0v5l433 752h97v-5l-434 -752h-96zM485 -17c-27.333 0 -48.666 1.5 -63.999 4.5s-26.833 11.5 -34.5 25.5s-12.5 35.5 -14.5 64.5s-3 69.833 -3 122.5c0 52 1 92.667 3 122
s6.83301 51 14.5 65s19.167 22.5 34.5 25.5s36.666 4.5 63.999 4.5c26.667 0 47.834 -1.5 63.501 -4.5s27.334 -11.5 35.001 -25.5s12.5 -35.667 14.5 -65s3 -70 3 -122c0 -52.667 -1 -93.5 -3 -122.5s-6.83301 -50.5 -14.5 -64.5s-19.334 -22.5 -35.001 -25.5
s-36.834 -4.5 -63.501 -4.5zM485 86c4.66699 0 8.33398 0.666992 11.001 2s4.66699 5.66602 6 12.999s2.16602 18.833 2.49902 34.5s0.5 37.834 0.5 66.501c0 29.333 -0.166992 52 -0.5 68s-1 27.833 -2 35.5s-3 12.167 -6 13.5s-6.83301 2 -11.5 2
c-5.33301 0 -9.33301 -0.666992 -12 -2s-4.5 -5.83301 -5.5 -13.5s-1.66699 -19.5 -2 -35.5s-0.5 -38.667 -0.5 -68c0 -28.667 0.166992 -50.834 0.5 -66.501s1.16602 -27.167 2.49902 -34.5s3.33301 -11.666 6 -12.999s6.33398 -2 11.001 -2z" />
    <glyph glyph-name="ampersand" unicode="&#x26;" horiz-adv-x="543" 
d="M404 0l-41.998 75l-13 -23c-6 -10.667 -12.667 -20 -20 -28s-16.333 -14.833 -27 -20.5s-23.5 -9.83398 -38.5 -12.501s-33.167 -4 -54.5 -4c-42.667 0 -76.5 3 -101.5 9s-43.833 17.333 -56.5 34s-20.667 39.5 -24 68.5s-5 66.167 -5 111.5c0 34 1 61.667 3 83
s6.33301 39.5 13 54.5s16.167 27.833 28.5 38.5s29.166 22 50.499 34l38 21l-26 48c-7.33301 12.667 -13.333 23.667 -18 33s-8.33398 18.5 -11.001 27.5s-4.66699 18.833 -6 29.5s-2 23.667 -2 39c0 31.333 2.5 57 7.5 77s14 35.5 27 46.5s31 18.5 54 22.5s52.167 6 87.5 6
c30 0 55 -2 75 -6s36.167 -12.167 48.5 -24.5s21 -29.833 26 -52.5s7.5 -53 7.5 -91c0 -28 -1.33301 -51.333 -4 -70s-7.16699 -34.667 -13.5 -48s-14.333 -24.666 -24 -33.999s-21.5 -18.333 -35.5 -27l-35 -23l45 -76l32 66h144v-5l-104 -185l109 -189v-5h-135z
M290.002 203l-73.0039 129.001l-20 -13c-4 -2.66699 -7.16699 -5.66699 -9.5 -9s-4.16602 -7.83301 -5.49902 -13.5s-2.16602 -13.167 -2.49902 -22.5s-0.5 -21.333 -0.5 -36v-29.5c0 -7.66699 0.333008 -14 1 -19s1.33398 -9 2.00098 -12s2 -5.83301 4 -8.5
c3.33301 -5.33301 7.83301 -8.83301 13.5 -10.5s14.834 -2.5 27.501 -2.5c15.333 0 26.333 1.66699 33 5s13 10.666 19 21.999zM270.998 506.001c5.33301 2.66699 10.001 5.66895 14.001 9.00195s7.16699 7.66602 9.5 12.999s4.16602 12.166 5.49902 20.499s2 19.5 2 33.5
c0 22 -2.33301 35.667 -7 41s-15.667 8 -33 8s-28.333 -2.66699 -33 -8s-7 -19 -7 -41c0 -17.333 1.83301 -30 5.5 -38s9.5 -18.667 17.5 -32l9 -16z" />
    <glyph glyph-name="quotesingle" unicode="'" horiz-adv-x="203" 
d="M51 484l-22 304h144l-21 -304h-101z" />
    <glyph glyph-name="parenleft" unicode="(" 
d="M300 -238c-20 21.333 -39.167 47.3301 -57.5 77.9971s-34.5 69.334 -48.5 116.001s-25 103 -33 169s-12 145 -12 237s4 171 12 237s19 122.333 33 169s30.167 85.334 48.5 116.001s37.5 56.667 57.5 78h115v-6c-19.333 -27.333 -38 -55.5 -56 -84.5
s-33.833 -65.167 -47.5 -108.5s-24.667 -97 -33 -161s-12.5 -144.333 -12.5 -241c0 -64 1.83301 -120.667 5.5 -170s9 -93 16 -131s15.167 -71.167 24.5 -99.5s19.5 -53.666 30.5 -75.999s22.667 -42.833 35 -61.5l37.5 -55v-6h-115z" />
    <glyph glyph-name="parenright" unicode=")" 
d="M38 -238v6.00293l37.5 55c12.333 18.667 24 39.167 35 61.5s21.167 47.666 30.5 75.999s17.5 61.5 24.5 99.5s12.333 81.5 16 130.5s5.5 105.833 5.5 170.5c0 96.667 -4.16699 177 -12.5 241s-19.333 117.667 -33 161s-29.5 79.5 -47.5 108.5s-36.667 57.167 -56 84.5v6
h115c20 -21.333 39.167 -47.333 57.5 -78s34.5 -69.334 48.5 -116.001s25 -103 33 -169s12 -145 12 -237s-4 -171 -12 -237s-19 -122.333 -33 -169s-30.167 -85.334 -48.5 -116.001s-37.5 -56.667 -57.5 -78h-115z" />
    <glyph glyph-name="asterisk" unicode="*" horiz-adv-x="497" 
d="M332 349l-78 136h-11l-78 -136l-81 59l106 117l-3 8l-153 33l32 94l142 -64l7 7l-15 154h97l-15 -154l6 -7l143 64l32 -94l-153 -33l-3 -8l106 -117z" />
    <glyph glyph-name="plus" unicode="+" 
d="M168 168v153h-153v117h153v153h117v-153h153v-117h-153v-153h-117z" />
    <glyph glyph-name="comma" unicode="," horiz-adv-x="225" 
d="M40 -142v6l49 137l-3 9h-52v141h157v-147l-75 -146h-76z" />
    <glyph glyph-name="hyphen" unicode="-" horiz-adv-x="365" 
d="M20 319v124h324v-124h-324z" />
    <glyph glyph-name="period" unicode="." horiz-adv-x="225" 
d="M34 0v151h157v-151h-157z" />
    <glyph glyph-name="slash" unicode="/" 
d="M16 -153l306 1001h115l-306 -1001h-115z" />
    <glyph glyph-name="zero" unicode="0" 
d="M226 -13c-31.333 0 -58.166 0.833008 -80.499 2.5s-41.166 6.5 -56.499 14.5s-27.333 20.167 -36 36.5s-15.334 39 -20.001 68s-7.66699 65.5 -9 109.5s-2 97.667 -2 161c0 62.667 0.666992 116 2 160s4.33301 80.5 9 109.5s11.334 51.667 20.001 68s20.667 28.5 36 36.5
s34.166 12.833 56.499 14.5s49.166 2.5 80.499 2.5s58.333 -0.833008 81 -2.5s41.5 -6.5 56.5 -14.5s27 -20.167 36 -36.5s15.833 -39 20.5 -68s7.66699 -65.5 9 -109.5s2 -97.333 2 -160c0 -63.333 -0.666992 -117 -2 -161s-4.33301 -80.5 -9 -109.5
s-11.5 -51.667 -20.5 -68s-21 -28.5 -36 -36.5s-33.833 -12.833 -56.5 -14.5s-49.667 -2.5 -81 -2.5zM226 156c11.333 0 20.1689 1.33301 26.502 4s11.166 11.167 14.499 25.5s5.5 36.833 6.5 67.5s1.5 74 1.5 130c0 57.333 -0.333008 101.666 -1 132.999
s-2.5 54.333 -5.5 69s-7.83301 23.334 -14.5 26.001s-16 4 -28 4s-21.167 -1.33301 -27.5 -4s-11 -11.334 -14 -26.001s-4.83301 -37.667 -5.5 -69s-1 -75.666 -1 -132.999c0 -56 0.5 -99.333 1.5 -130s3 -53.167 6 -67.5s7.66699 -22.833 14 -25.5s15.166 -4 26.499 -4z
" />
    <glyph glyph-name="one" unicode="1" 
d="M40 0l-0.000976562 168h110v330h-112v139h68c13.333 0 24.5 0.666992 33.5 2s16.167 4.33301 21.5 9s9.33301 11.5 12 20.5s4.33398 20.833 5.00098 35.5l3 53h130v-589h104v-168h-375z" />
    <glyph glyph-name="two" unicode="2" 
d="M38 0v174.004l98 98l55 55c14 14 25 25.5 33 34.5s14.167 16.667 18.5 23s8.5 13.5 12.5 21.5s7 15.167 9 21.5s3.5 13.666 4.5 21.999s1.66699 18.166 2 29.499s0.5 25.666 0.5 42.999c0 21.333 -0.833008 37.333 -2.5 48s-4.16699 19.667 -7.5 27
c-2 5.33301 -5.66699 9.66602 -11 12.999s-14.666 5 -27.999 5c-22 0 -35.667 -6 -41 -18c-2 -6.66699 -3.83301 -17 -5.5 -31s-2.5 -37 -2.5 -69v-14.5c0 -4.33301 0.333008 -8.16602 1 -11.499h-148c-1.33301 8.66699 -2 18.167 -2 28.5v47.5c0 40 2.33301 74.167 7 102.5
s14 51.5 28 69.5s34 31 60 39s60.333 12 103 12c24 0 45 -1 63 -3s33.667 -5.33301 47 -10s24.666 -10.834 33.999 -18.501s17.333 -17.167 24 -28.5c5.33301 -9.33301 10.333 -19.5 15 -30.5s8.66699 -23.667 12 -38s6 -31 8 -50s3 -41.5 3 -67.5c0 -30 -1 -56.333 -3 -79
s-6.66699 -44 -14 -64s-18.5 -40 -33.5 -60s-35.5 -42.333 -61.5 -67l-87 -83l3 -9h189v-162h-383z" />
    <glyph glyph-name="three" unicode="3" 
d="M370 387c10 -6 18.834 -11.6631 26.501 -16.9961s14.334 -13.833 20.001 -25.5s9.83398 -28.334 12.501 -50.001s4 -51.834 4 -90.501c0 -40.667 -2.33301 -74.834 -7 -102.501s-14.334 -50 -29.001 -67s-35.667 -29.167 -63 -36.5s-64 -11 -110 -11
c-44 0 -79.333 4.66699 -106 14s-47 23.666 -61 42.999s-23.333 43.833 -28 73.5s-7 64.5 -7 104.5c0 9.33301 0.166992 17.166 0.5 23.499s0.833008 11.833 1.5 16.5h147c-0.666992 -4 -1 -7.83301 -1 -11.5v-11.5c0 -16.667 0.666992 -29.334 2 -38.001
s3.66602 -17 6.99902 -25c3.33301 -7.33301 8.16602 -12.666 14.499 -15.999s16.5 -5 30.5 -5c22 0 37.333 4.66699 46 14s13 29 13 59c0 23.333 -0.5 41.666 -1.5 54.999s-3.5 23.166 -7.5 29.499s-10 10.333 -18 12s-18.667 2.5 -32 2.5h-80v119h80
c10.667 0 19.5 0.666992 26.5 2s12.167 5 15.5 11s5.66602 15.333 6.99902 28s2 30 2 52c0 18.667 -0.666992 33.334 -2 44.001s-3.66602 18.667 -6.99902 24s-8.5 8.5 -15.5 9.5s-15.833 1.5 -26.5 1.5c-26.667 0 -41.334 -6.33301 -44.001 -19
c-1.33301 -5.33301 -3 -12.833 -5 -22.5s-3 -23.5 -3 -41.5v-11c0 -4 0.333008 -7 1 -9h-147c-0.666992 5.33301 -1 10.5 -1 15.5v14.5c-0.666992 40.667 1.83301 75.334 7.5 104.001s15.834 52 30.501 70s35 31 61 39s59.333 12 100 12s74 -2.33301 100 -7
s46.333 -14.334 61 -29.001s24.667 -35.667 30 -63s8 -63.666 8 -108.999c0 -28 -0.833008 -51.167 -2.5 -69.5s-4.66699 -33.666 -9 -45.999s-9.83301 -22.5 -16.5 -30.5s-15 -15.333 -25 -22v-7z" />
    <glyph glyph-name="four" unicode="4" 
d="M237 0v128h-224v147l220 482h150v-491h57v-138h-57v-128h-146zM242 452h-11l-73 -177l4 -9h80v186z" />
    <glyph glyph-name="five" unicode="5" 
d="M205 596l-8.99902 -86.998c7.33301 2.66699 18 5.5 32 8.5s31 4.5 51 4.5c25.333 0 47.5 -3.83301 66.5 -11.5s34.833 -20 47.5 -37s22.167 -39.167 28.5 -66.5s9.5 -61 9.5 -101c0 -36.667 -0.833008 -68.5 -2.5 -95.5s-4 -50.667 -7 -71s-6.83301 -37.833 -11.5 -52.5
s-10.334 -27.334 -17.001 -38.001c-6.66699 -11.333 -14.667 -21 -24 -29s-20.833 -14.5 -34.5 -19.5s-30 -8.5 -49 -10.5s-40.833 -3 -65.5 -3c-42 0 -75.833 4.66699 -101.5 14s-45.5 23.666 -59.5 42.999s-23.167 43.833 -27.5 73.5s-6.5 64.5 -6.5 104.5
c0 21.333 1 44 3 68h145c-0.666992 -4.66699 -1 -10.167 -1 -16.5v-17.5c0 -31.333 2.5 -55.833 7.5 -73.5s18.5 -26.5 40.5 -26.5c15.333 0 26 1.33301 32 4s10 7.33398 12 14.001c3.33301 11.333 5.83301 26.166 7.5 44.499s2.5 45.833 2.5 82.5
c0 18.667 -0.666992 33.667 -2 45s-4.16602 20 -8.49902 26s-10.333 10 -18 12s-17.834 3 -30.501 3c-20 0 -37 -6 -51 -18l-122 39l24 349h353v-161h-214z" />
    <glyph glyph-name="six" unicode="6" 
d="M277 549c0.666992 2 1 8 1 18c0 21.333 -3.66699 34.666 -11 39.999s-20.666 8 -39.999 8c-14 0 -24.333 -2.5 -31 -7.5s-11.334 -18.833 -14.001 -41.5c-0.666992 -4 -1.16699 -9.83301 -1.5 -17.5s-0.666016 -16.167 -0.999023 -25.5
s-0.666016 -19.166 -0.999023 -29.499s-0.5 -20.166 -0.5 -29.499c15.333 2.66699 30.166 4.66699 44.499 6s27.5 2 39.5 2c28 0 52.5 -3.33301 73.5 -10s38.5 -18.167 52.5 -34.5s24.5 -38.666 31.5 -66.999s10.5 -64.166 10.5 -107.499c0 -56 -3 -101.333 -9 -136
s-16.667 -61.667 -32 -81s-36 -32.333 -62 -39s-59.333 -10 -100 -10c-29.333 0 -54.833 1.5 -76.5 4.5s-40 9 -55 18s-27.333 22.333 -37 40s-17 41 -22 70s-8.5 64.667 -10.5 107s-3 93.166 -3 152.499c0 62.667 0.666992 116 2 160s4.33301 80.5 9 109.5
s11.334 51.667 20.001 68s20.667 28.5 36 36.5s34.166 12.833 56.499 14.5s49.166 2.5 80.499 2.5c44 0 78.833 -2 104.5 -6s45.167 -13.333 58.5 -28s21.833 -36.834 25.5 -66.501s5.5 -69.834 5.5 -120.501h-144zM179 275c0 -15.333 0.166992 -28.334 0.5 -39.001
s1 -19.667 2 -27s2 -13.666 3 -18.999s2.5 -10.333 4.5 -15c3.33301 -7.33301 8 -12.333 14 -15s14.667 -4 26 -4c10.667 0 19 0.833008 25 2.5s10.5 6.66699 13.5 15s5 21.333 6 39s1.5 42.167 1.5 73.5c0 26 -3.5 43.333 -10.5 52s-19.167 13 -36.5 13
c-14 0 -24.833 -1.16699 -32.5 -3.5s-13.167 -4.83301 -16.5 -7.5v-65z" />
    <glyph glyph-name="seven" unicode="7" 
d="M68 0l167 586l-4 10h-207v161h405v-86l-185 -671h-176z" />
    <glyph glyph-name="eight" unicode="8" 
d="M373 387c10 -6 18.834 -11.667 26.501 -17s14.167 -13.833 19.5 -25.5s9.33301 -28.334 12 -50.001s4 -51.834 4 -90.501c0 -40.667 -2.33301 -74.834 -7 -102.501s-14.334 -50 -29.001 -67s-35.667 -29.167 -63 -36.5s-64 -11 -110 -11
c-45.333 0 -81.666 3.66699 -108.999 11s-48.333 19.5 -63 36.5s-24.334 39.333 -29.001 67s-7 61.834 -7 102.501c0 38.667 1.33301 68.834 4 90.501s6.66699 38.334 12 50.001s11.833 20.167 19.5 25.5s16.5 11 26.5 17v7c-10 6.66699 -18.333 14 -25 22
s-12.167 18.167 -16.5 30.5s-7.33301 27.666 -9 45.999s-2.5 41.5 -2.5 69.5c0 45.333 2.66699 81.666 8 108.999s15.333 48.333 30 63s35 24.334 61 29.001s59.333 7 100 7s74 -2.33301 100 -7s46.5 -14.334 61.5 -29.001s25.167 -35.667 30.5 -63s8 -63.666 8 -108.999
c0 -28 -0.833008 -51.167 -2.5 -69.5s-4.66699 -33.666 -9 -45.999s-9.83301 -22.5 -16.5 -30.5s-15 -15.333 -25 -22v-7zM226.001 153c22 0 37.334 5 46.001 15s13 30 13 60c0 24 -0.666992 42.833 -2 56.5s-4.16602 23.834 -8.49902 30.501s-10.333 10.667 -18 12
s-17.834 2 -30.501 2s-22.834 -0.666992 -30.501 -2s-13.5 -5.33301 -17.5 -12s-6.66699 -16.834 -8 -30.501s-2 -32.5 -2 -56.5c0 -30 4.33301 -50 13 -60s23.667 -15 45 -15zM226.002 444c10 0 18.3301 0.666992 24.9971 2s11.834 5.16602 15.501 11.499
s6.33398 15.833 8.00098 28.5s2.5 30.334 2.5 53.001c0 18.667 -0.666992 33.5 -2 44.5s-3.66602 19.167 -6.99902 24.5s-8.5 8.66602 -15.5 9.99902s-15.833 2 -26.5 2s-19.334 -0.666992 -26.001 -2s-11.667 -4.5 -15 -9.5s-5.66602 -13 -6.99902 -24s-2 -25.833 -2 -44.5
c0 -22.667 0.666992 -40.5 2 -53.5s4 -22.667 8 -29s9.16699 -10.166 15.5 -11.499s14.5 -2 24.5 -2z" />
    <glyph glyph-name="nine" unicode="9" 
d="M113 0l-0.00390625 9c14 22 27.5 45.167 40.5 69.5s25.167 48.833 36.5 73.5s21.5 48.834 30.5 72.501s16.5 46.167 22.5 67.5l-9 6c-3.33301 -2 -10.166 -3.83301 -20.499 -5.5s-22.166 -2.5 -35.499 -2.5c-33.333 0 -60.166 3.33301 -80.499 10
s-36.166 18.834 -47.499 36.501s-18.833 42 -22.5 73s-5.5 70.833 -5.5 119.5c0 52 2.33301 93.833 7 125.5s14.167 56 28.5 73s34.833 28.333 61.5 34s62.334 8.5 107.001 8.5c46 0 82.5 -2.83301 109.5 -8.5s47.5 -17.334 61.5 -35.001s23.167 -42.667 27.5 -75
s6.5 -75.166 6.5 -128.499c0 -48.667 -3 -95.334 -9 -140.001s-14.667 -88.167 -26 -130.5s-25.833 -84.333 -43.5 -126s-37.834 -83.834 -60.501 -126.501h-179zM266.996 428c2.66699 8.66699 4.5 17.667 5.5 27s1.5 23.333 1.5 42c0 14.667 -0.166992 27.334 -0.5 38.001
s-1 19.667 -2 27s-2.16699 13.666 -3.5 18.999s-3 10.333 -5 15c-3.33301 7.33301 -7.83301 12.5 -13.5 15.5s-14.5 4.5 -26.5 4.5c-10 0 -18 -0.833008 -24 -2.5s-10.5 -6.83398 -13.5 -15.501s-5 -21.667 -6 -39s-1.5 -41.666 -1.5 -72.999c0 -26 3.33301 -43.333 10 -52
s18.667 -13 36 -13c11.333 0 20.333 0.666992 27 2s12 3 16 5z" />
    <glyph glyph-name="colon" unicode=":" horiz-adv-x="251" 
d="M47 0v151h157v-151h-157zM47 409v151h157v-151h-157z" />
    <glyph glyph-name="semicolon" unicode=";" horiz-adv-x="251" 
d="M53 -142v6l49 137l-3 9h-52v141h157v-147l-75 -146h-76zM47 409v151h157v-151h-157z" />
    <glyph glyph-name="less" unicode="&#x3c;" 
d="M433 137l-418 184v117l418 184h5v-126l-271 -111v-11l271 -110v-127h-5z" />
    <glyph glyph-name="equal" unicode="=" 
d="M15 192v116h423v-116h-423zM15 451v117h423v-117h-423z" />
    <glyph glyph-name="greater" unicode="&#x3e;" 
d="M21 137h-6v127l272 110v11l-272 111v126h6l417 -184v-117z" />
    <glyph glyph-name="question" unicode="?" horiz-adv-x="416" 
d="M138 227c-1.33301 11.333 -2.00195 26.1631 -2.00195 44.4961v59.5c0 26.667 5.5 48.5 16.5 65.5s29.167 35.5 54.5 55.5c10.667 8.66699 19.167 15.834 25.5 21.501s11 11.834 14 18.501s4.83301 14.834 5.5 24.501s1 22.5 1 38.5c0 23.333 -2.66699 39.5 -8 48.5
s-17.666 13.5 -36.999 13.5s-31.833 -4.5 -37.5 -13.5s-8.5 -25.167 -8.5 -48.5v-19.5c0 -3.66699 0.333008 -8.16699 1 -13.5h-131c-2.66699 9.33301 -4.5 20 -5.5 32s-1.5 28.333 -1.5 49c0 32 3.16699 58.667 9.5 80s16.666 38.5 30.999 51.5s33.166 22.167 56.499 27.5
s52 8 86 8c37.333 0 68 -3.33301 92 -10s43 -17.5 57 -32.5s23.833 -34.667 29.5 -59s8.5 -54.166 8.5 -89.499c0 -26.667 -0.5 -49.167 -1.5 -67.5s-3 -34 -6 -47s-6.83301 -24.333 -11.5 -34s-11 -18.834 -19 -27.501c-12 -13.333 -23.833 -23.666 -35.5 -30.999
s-22.167 -16 -31.5 -26c-3.33301 -3.33301 -6.16602 -7 -8.49902 -11s-4.16602 -10.167 -5.49902 -18.5s-2.16602 -19.5 -2.49902 -33.5s-0.5 -32.667 -0.5 -56h-135zM125.998 -0.00292969v151h157v-151h-157z" />
    <glyph glyph-name="at" unicode="@" horiz-adv-x="674" 
d="M653 -13l1.50098 -12.001c0.333008 -2.66699 0.5 -5.66699 0.5 -9c0 -24 -3.83301 -46.667 -11.5 -68s-22.834 -40.166 -45.501 -56.499s-54.167 -29.166 -94.5 -38.499s-93.166 -14 -158.499 -14c-72.667 0 -131.5 5.33301 -176.5 16s-78.5 32 -100.5 64
c-6.66699 9.33301 -12.334 21.666 -17.001 36.999s-8.5 37 -11.5 65s-5.16699 63.833 -6.5 107.5s-2 98.5 -2 164.5c0 72.667 1 131.5 3 176.5s5.16699 80.667 9.5 107s9.66602 46 15.999 59s13.833 23.833 22.5 32.5c24.667 23.333 58.334 39.666 101.001 48.999
s95.667 14 159 14c54 0 100.167 -3.33301 138.5 -10s69.5 -18.334 93.5 -35.001c11.333 -7.33301 21.166 -17 29.499 -29s15.166 -29.833 20.499 -53.5s9.33301 -55.167 12 -94.5s4 -90 4 -152c0 -47.333 -0.333008 -85 -1 -113s-2 -50.167 -4 -66.5s-4.5 -28.5 -7.5 -36.5
s-6.83301 -15.667 -11.5 -23c-8 -13.333 -19.667 -22.333 -35 -27s-36.333 -7 -63 -7c-33.333 0 -58.166 3.16699 -74.499 9.5s-28.833 14.5 -37.5 24.5h-11c-7.33301 -8.66699 -17 -16.5 -29 -23.5s-29.333 -10.5 -52 -10.5c-14.667 0 -27.167 2.33301 -37.5 7
s-18.833 13.834 -25.5 27.501s-11.5 32.5 -14.5 56.5s-4.5 55.333 -4.5 94c0 54.667 1.33301 98.5 4 131.5s7.16699 58.5 13.5 76.5s14.333 29.833 24 35.5s21.5 8.5 35.5 8.5c20 0 36 -3.66699 48 -11s22 -16 30 -26l3 2l1 25h88v-306c0 -14 2.33301 -23.333 7 -28
c4.66699 -6.66699 13.334 -10 26.001 -10c8.66699 0 14.834 1 18.501 3s6.83398 5.66699 9.50098 11c0.666992 2 1.33398 5.16699 2.00098 9.5s1.33398 12.666 2.00098 24.999s1 30.166 1 53.499v96c0 50.667 -0.833008 91.334 -2.5 122.001s-4 54.5 -7 71.5
s-7 29.167 -12 36.5s-10.833 13.333 -17.5 18c-30.667 19.333 -85.334 29 -164.001 29c-44.667 0 -80.167 -3.33301 -106.5 -10s-46.833 -17.667 -61.5 -33c-4.66699 -5.33301 -8.66699 -12 -12 -20s-6 -22.5 -8 -43.5s-3.5 -50.5 -4.5 -88.5s-1.5 -89.333 -1.5 -154
c0 -59.333 0.333008 -106.666 1 -141.999s1.66699 -63 3 -83s3.16602 -34.167 5.49902 -42.5s5.16602 -15.166 8.49902 -20.499c6.66699 -10.667 15.167 -19.334 25.5 -26.001s23.166 -11.667 38.499 -15s33.833 -5.66602 55.5 -6.99902s47.167 -2 76.5 -2
c42.667 0 77 1.66699 103 5s46 8.33301 60 15s23.333 15.167 28 25.5s7 22.5 7 36.5h93zM382.001 347.999c-3.33301 3.33301 -7.16504 6 -11.498 8s-10.5 3 -18.5 3c-4.66699 0 -8.33398 -0.5 -11.001 -1.5s-4.66699 -3.16699 -6 -6.5c-1.33301 -2 -2.33301 -4.66699 -3 -8
s-1.33398 -9 -2.00098 -17s-1.16699 -19.333 -1.5 -34s-0.5 -34.334 -0.5 -59.001c0 -19.333 0.166992 -34.833 0.5 -46.5s0.833008 -20.667 1.5 -27s1.33398 -11.166 2.00098 -14.499s1.66699 -6 3 -8c3.33301 -5.33301 9 -8 17 -8s14.167 1.16699 18.5 3.5
s8.16602 5.5 11.499 9.5v206z" />
    <glyph glyph-name="A" unicode="A" horiz-adv-x="445" 
d="M271 0l-13 175h-76l-12 -175h-158l81 757h264l76 -757h-162zM225 599h-11l-25 -271h62z" />
    <glyph glyph-name="B" unicode="B" horiz-adv-x="460" 
d="M34 0l-0.00292969 757.001h225c34 0 62.167 -3.83301 84.5 -11.5s40.333 -19.667 54 -36s23.334 -37.333 29.001 -63s8.5 -56.834 8.5 -93.501c0 -27.333 -0.833008 -49.666 -2.5 -66.999s-4.66699 -31.666 -9 -42.999s-9.83301 -20.666 -16.5 -27.999
s-15 -14.333 -25 -21v-7c10 -6 18.833 -11.667 26.5 -17s14.334 -13.833 20.001 -25.5s9.83398 -28.334 12.501 -50.001s4 -51.834 4 -90.501c0 -36.667 -2.66699 -67.834 -8 -93.501s-14.5 -46.667 -27.5 -63s-30.5 -28.333 -52.5 -36s-50 -11.5 -84 -11.5h-239z
M240.997 153.001c15.333 0 26.5 4.66699 33.5 14s10.5 28.666 10.5 57.999c0 34.667 -3 59.334 -9 74.001s-16.333 22 -31 22h-54v-168h50zM236.997 446.001c15.333 0 25.833 6 31.5 18s8.5 35 8.5 69c0 30 -3.5 49.833 -10.5 59.5s-18.167 14.5 -33.5 14.5h-42v-161h46z
" />
    <glyph glyph-name="C" unicode="C" horiz-adv-x="452" 
d="M424 290c2 -24 3.00195 -46.6719 3.00195 -68.0049c0 -40 -2.16699 -74.833 -6.5 -104.5s-13.5 -54.167 -27.5 -73.5s-33.833 -33.666 -59.5 -42.999s-59.5 -14 -101.5 -14c-50 0 -88.167 4.5 -114.5 13.5s-45.833 25.167 -58.5 48.5
c-6.66699 10.667 -12.334 23.334 -17.001 38.001s-8.5 34.334 -11.5 59.001s-5.16699 56 -6.5 94s-2 86.333 -2 145s0.666992 106.334 2 143.001s3.5 66.667 6.5 90s6.83301 41.666 11.5 54.999s10.334 25.666 17.001 36.999c13.333 22.667 32.666 38.334 57.999 47.001
s62 13 110 13c42.667 0 77 -4 103 -12s46 -21 60 -39s23.333 -41.167 28 -69.5s7 -62.5 7 -102.5c0 -9.33301 -0.166992 -19.666 -0.5 -30.999s-0.833008 -23.333 -1.5 -36h-147c0 20 -0.166992 36.667 -0.5 50s-0.833008 24.333 -1.5 33s-1.5 15.5 -2.5 20.5l-2.5 12.5
c-2.66699 12.667 -16.667 19 -42 19c-12.667 0 -21.834 -1.5 -27.501 -4.5s-9.5 -7.83301 -11.5 -14.5c-2 -5.33301 -3.5 -11.5 -4.5 -18.5s-2 -17.667 -3 -32s-1.66699 -34.166 -2 -59.499s-0.5 -58.333 -0.5 -99c0 -42 0.166992 -75.667 0.5 -101s1 -45.333 2 -60
s2 -25.667 3 -33s2.5 -13.666 4.5 -18.999c2 -6.66699 6 -11.334 12 -14.001s16.667 -4 32 -4c20 0 32 5.66699 36 17c2.66699 6.66699 4.66699 13.667 6 21s2.33301 15.5 3 24.5s1.16699 19.333 1.5 31s0.5 25.167 0.5 40.5h145z" />
    <glyph glyph-name="D" unicode="D" horiz-adv-x="471" 
d="M34 0v757h211c48 0 84.667 -4.5 110 -13.5s44.666 -24.5 57.999 -46.5c6.66699 -11.333 12.167 -23.5 16.5 -36.5s8 -30.833 11 -53.5s5.16699 -52 6.5 -88s2 -82.667 2 -140s-0.666992 -104.166 -2 -140.499s-3.5 -65.833 -6.5 -88.5s-6.66699 -40.667 -11 -54
s-9.83301 -25.333 -16.5 -36c-6.66699 -11.333 -14.667 -20.833 -24 -28.5s-20.666 -13.834 -33.999 -18.501s-29 -8 -47 -10s-39 -3 -63 -3h-211zM241 167c12.667 0 21.667 1.33008 27 3.99707s9.33301 7.33398 12 14.001c1.33301 4.66699 2.66602 10.167 3.99902 16.5
s2.33301 16.5 3 30.5s1.16699 32.833 1.5 56.5s0.5 54.834 0.5 93.501s-0.166992 70.167 -0.5 94.5s-0.833008 43.5 -1.5 57.5s-1.66699 24.333 -3 31s-2.66602 12.334 -3.99902 17.001c-2.66699 5.33301 -6.66699 9.33301 -12 12s-14.333 4 -27 4h-50v-431h50z" />
    <glyph glyph-name="E" unicode="E" horiz-adv-x="398" 
d="M34 0v757h335v-160h-178v-133h175v-153h-175v-143h177v-168h-334z" />
    <glyph glyph-name="F" unicode="F" horiz-adv-x="382" 
d="M34 0v757h330v-160h-173v-151h170v-154h-170v-292h-157z" />
    <glyph glyph-name="G" unicode="G" horiz-adv-x="449" 
d="M286 293l-73.002 -0.00488281v152h214c0.666992 -13.333 1.16699 -32.666 1.5 -57.999s0.5 -55.666 0.5 -90.999c0 -41.333 -0.666992 -75.666 -2 -102.999s-3.5 -50 -6.5 -68s-6.66699 -32.667 -11 -44s-9.5 -22 -15.5 -32c-6.66699 -12 -14.5 -21.833 -23.5 -29.5
s-20.167 -14 -33.5 -19s-29 -8.5 -47 -10.5s-39 -3 -63 -3c-48.667 0 -85.5 4.5 -110.5 13.5s-44.167 25.167 -57.5 48.5c-6.66699 11.333 -12.334 23.833 -17.001 37.5s-8.5 32.5 -11.5 56.5s-5.16699 55 -6.5 93s-2 87.667 -2 149c0 58.667 0.666992 106.334 2 143.001
s3.5 66.667 6.5 90s6.83301 41.666 11.5 54.999s10.334 25.666 17.001 36.999c13.333 22.667 32.666 38.334 57.999 47.001s62 13 110 13c55.333 0 97 -7.16699 125 -21.5s47.667 -38.5 59 -72.5c8.66699 -28 13 -65 13 -111v-21.5c0 -5 -0.333008 -10.833 -1 -17.5h-146
c0.666992 2 1 4.16699 1 6.5v6.5c0 16.667 -0.666992 29 -2 37s-2.66602 14.667 -3.99902 20c-2.66699 12.667 -18 19 -46 19c-13.333 0 -23.166 -1.5 -29.499 -4.5s-10.833 -7.83301 -13.5 -14.5c-1.33301 -5.33301 -2.66602 -11.5 -3.99902 -18.5s-2.33301 -17.667 -3 -32
s-1.16699 -34.166 -1.5 -59.499s-0.5 -58.333 -0.5 -99c0 -43.333 0.166992 -77.833 0.5 -103.5s0.833008 -45.667 1.5 -60s1.5 -24.666 2.5 -30.999s2.16699 -11.833 3.5 -16.5c5.33301 -14.667 21.333 -22 48 -22c13.333 0 23.166 1.5 29.499 4.5s11.5 7.83301 15.5 14.5
c2 3.33301 3.83301 6.83301 5.5 10.5s2.83398 8.5 3.50098 14.5s1.16699 13.5 1.5 22.5s0.5 21.167 0.5 36.5v36z" />
    <glyph glyph-name="H" unicode="H" horiz-adv-x="484" 
d="M291 0v311h-98v-311h-161v757h161v-293h98v293h161v-757h-161z" />
    <glyph glyph-name="I" unicode="I" horiz-adv-x="233" 
d="M36 0v757h161v-757h-161z" />
    <glyph glyph-name="J" unicode="J" horiz-adv-x="443" 
d="M255 757l161.001 0.00195312v-367c0 -57.333 -0.666992 -105.333 -2 -144s-3.5 -70.834 -6.5 -96.501s-6.66699 -46.167 -11 -61.5s-9.83301 -28.333 -16.5 -39c-6.66699 -11.333 -14.667 -21 -24 -29s-20.833 -14.5 -34.5 -19.5s-30 -8.5 -49 -10.5s-40.833 -3 -65.5 -3
c-42 0 -75.833 4.66699 -101.5 14s-45.5 23.666 -59.5 42.999s-23.167 43.833 -27.5 73.5s-6.5 64.5 -6.5 104.5c0 21.333 1 44 3 68h140c0 -15.333 0.166992 -28.833 0.5 -40.5s0.833008 -22 1.5 -31s1.66699 -17.167 3 -24.5s3 -14.333 5 -21
c4.66699 -11.333 16.667 -17 36 -17c15.333 0 26 1.33301 32 4s10.333 7.33398 13 14.001c1.33301 5.33301 2.66602 11.666 3.99902 18.999s2.33301 18.333 3 33s1.16699 34.5 1.5 59.5s0.5 58.5 0.5 100.5v371z" />
    <glyph glyph-name="K" unicode="K" horiz-adv-x="488" 
d="M298 0l-95 340.001h-10c1.33301 -8.66699 2 -17.834 2 -27.501v-28.5v-284h-161v757h161v-276c0 -8 -0.166992 -15.167 -0.5 -21.5s-0.833008 -12.833 -1.5 -19.5h10l101 317h165v-5l-115 -338l124 -409v-5h-180z" />
    <glyph glyph-name="L" unicode="L" horiz-adv-x="366" 
d="M34 0v757h157v-589h162v-168h-319z" />
    <glyph glyph-name="M" unicode="M" horiz-adv-x="663" 
d="M487 0v454h-6l-115 -454h-69l-116 454h-6v-454h-143v757h222l70 -329h7l78 329h221l1 -757h-144z" />
    <glyph glyph-name="N" unicode="N" horiz-adv-x="475" 
d="M361 0l-179 406h-6v-406h-143v757h154l106 -263h6v263h144v-757h-82z" />
    <glyph glyph-name="O" unicode="O" 
d="M394 49c-6.66699 -12 -14.499 -21.833 -23.499 -29.5s-20.167 -14 -33.5 -19s-29 -8.5 -47 -10.5s-39 -3 -63 -3c-48.667 0 -85.5 4.5 -110.5 13.5s-44.167 25.167 -57.5 48.5c-6.66699 11.333 -12.334 23.833 -17.001 37.5s-8.5 32.167 -11.5 55.5
s-5.16699 53.833 -6.5 91.5s-2 86.167 -2 145.5s0.666992 107.666 2 144.999s3.5 67.666 6.5 90.999s6.83301 41.666 11.5 54.999s10.334 26 17.001 38c6.66699 11.333 14.5 21 23.5 29s20.167 14.5 33.5 19.5s29.166 8.5 47.499 10.5s39.5 3 63.5 3
c48 0 84.5 -4.66699 109.5 -14s44.167 -25.333 57.5 -48c6.66699 -12 12.334 -24.667 17.001 -38s8.5 -31.666 11.5 -54.999s5.16699 -53.666 6.5 -90.999s2 -85.666 2 -144.999s-0.666992 -107.833 -2 -145.5s-3.5 -68.167 -6.5 -91.5s-6.83301 -41.833 -11.5 -55.5
s-10.334 -26.167 -17.001 -37.5zM266.001 174c1.33301 4.66699 2.66602 10.667 3.99902 18s2.33301 18.333 3 33s1.16699 34.5 1.5 59.5s0.5 57.833 0.5 98.5c0 42 -0.166992 75.667 -0.5 101s-0.833008 45.5 -1.5 60.5s-1.66699 26.167 -3 33.5
s-2.66602 13.333 -3.99902 18c-2.66699 6.66699 -6.66699 11.5 -12 14.5s-14.333 4.5 -27 4.5s-21.834 -1.5 -27.501 -4.5s-9.5 -7.83301 -11.5 -14.5c-2 -4.66699 -3.5 -10.667 -4.5 -18s-2 -18.5 -3 -33.5s-1.66699 -35.167 -2 -60.5s-0.5 -59 -0.5 -101
c0 -40.667 0.166992 -73.5 0.5 -98.5s1 -44.833 2 -59.5s2 -25.667 3 -33s2.5 -13.333 4.5 -18c2 -6.66699 5.83301 -11.334 11.5 -14.001s14.834 -4 27.501 -4s21.667 1.33301 27 4s9.33301 7.33398 12 14.001z" />
    <glyph glyph-name="P" unicode="P" horiz-adv-x="450" 
d="M34 0v756.997h227c34 0 62 -4.5 84 -13.5s39.5 -23.667 52.5 -44s22 -47 27 -80s7.5 -73.833 7.5 -122.5c0 -49.333 -2.5 -91.166 -7.5 -125.499s-14 -62.166 -27 -83.499s-30.5 -36.666 -52.5 -45.999s-50 -14 -84 -14h-70v-228h-157zM233 383.997
c14.667 0 25 8.16797 31 24.501s9 47.166 9 92.499c0 40 -3.5 66.333 -10.5 79s-18.167 19 -33.5 19h-38v-215h42z" />
    <glyph glyph-name="Q" unicode="Q" 
d="M240 -91c-2.66699 3.33301 -5.16699 7.50488 -7.5 12.5049s-5.33301 11.833 -9 20.5s-7.66699 19.667 -12 33l-16.5 50c-37.333 1.33301 -66.5 6.16602 -87.5 14.499s-37.167 22.166 -48.5 41.499c-6.66699 11.333 -12.334 23.5 -17.001 36.5s-8.5 30.667 -11.5 53
s-5.16699 51.333 -6.5 87s-2 81.834 -2 138.501s0.666992 102.834 2 138.501s3.5 64.834 6.5 87.501s6.83301 40.334 11.5 53.001s10.334 24.667 17.001 36c13.333 22 32.5 37.333 57.5 46s61.833 13 110.5 13c24 0 45 -1 63 -3s33.667 -5.33301 47 -10
s24.5 -10.834 33.5 -18.501s16.833 -16.834 23.5 -27.501c6.66699 -11.333 12.334 -23.333 17.001 -36s8.5 -30.334 11.5 -53.001s5.16699 -51.834 6.5 -87.501s2 -81.834 2 -138.501s-0.666992 -102.834 -2 -138.501s-3.5 -64.667 -6.5 -87s-6.83301 -40 -11.5 -53
s-10.334 -25.167 -17.001 -36.5c-5.33301 -10 -12.5 -18.167 -21.5 -24.5s-18.833 -11.833 -29.5 -16.5c12 -39.333 22.5 -67.833 31.5 -85.5s16.5 -30.834 22.5 -39.501v-6h-157zM266 195.005c1.33301 4.66699 2.66602 10.002 3.99902 16.002s2.33301 15.667 3 29
s1.16699 32.166 1.5 56.499s0.5 57.166 0.5 98.499c0 39.333 -0.166992 71.166 -0.5 95.499s-0.833008 43.666 -1.5 57.999s-1.66699 24.833 -3 31.5s-2.66602 12.334 -3.99902 17.001c-2.66699 6 -6.66699 10.5 -12 13.5s-14.333 4.5 -27 4.5s-21.834 -1.5 -27.501 -4.5
s-9.5 -7.5 -11.5 -13.5c-2 -4.66699 -3.5 -10.334 -4.5 -17.001s-2 -17.167 -3 -31.5s-1.66699 -33.666 -2 -57.999s-0.5 -56.166 -0.5 -95.499c0 -40.667 0.166992 -73 0.5 -97s1 -43 2 -57s2 -24 3 -30s2.5 -11.333 4.5 -16c2 -6 5.83301 -10 11.5 -12
s14.834 -3 27.501 -3s21.667 1 27 3s9.33301 6 12 12z" />
    <glyph glyph-name="R" unicode="R" horiz-adv-x="462" 
d="M282 0c-2 6 -3.83105 12.499 -5.49805 19.499s-3.5 17.667 -5.5 32l-8 59.5c-3.33301 25.333 -7.33301 60 -12 104c-2 17.333 -4 31.333 -6 42s-4.33301 18.834 -7 24.501s-6 9.33398 -10 11.001s-8.33301 2.5 -13 2.5h-24v-295h-157v757h229c34 0 62 -3.83301 84 -11.5
s39.5 -19.667 52.5 -36s22 -37.333 27 -63s7.5 -56.834 7.5 -93.501c0 -39.333 -1.33301 -70.166 -4 -92.499s-6.83398 -39.833 -12.501 -52.5s-12.5 -22.167 -20.5 -28.5s-17.333 -12.5 -28 -18.5v-6c4 -3.33301 8.16699 -7 12.5 -11s8.16602 -10.667 11.499 -20
c5.33301 -12 10.833 -30.167 16.5 -54.5s11.167 -58.5 16.5 -102.5c4 -30.667 7 -55.334 9 -74.001s3.83301 -33.667 5.5 -45s3 -20 4 -26s2.5 -11.667 4.5 -17v-5h-167zM235.002 435.999c14.667 0 25 6.16797 31 18.501s9 36.166 9 71.499c0 30 -3.5 50 -10.5 60
s-18.167 15 -33.5 15h-40v-165h44z" />
    <glyph glyph-name="S" unicode="S" horiz-adv-x="420" 
d="M250 522c0.666992 5.33301 1 9.83496 1 13.502v19.5c0 23.333 -2.83301 39.5 -8.5 48.5s-18.167 13.5 -37.5 13.5s-31.666 -4.5 -36.999 -13.5s-8 -25.167 -8 -48.5c0 -22 2.83301 -37.5 8.5 -46.5s14.834 -17.167 27.501 -24.5c14.667 -8.66699 28.5 -16 41.5 -22
l36 -16.5l31.5 -14.5c10 -4.66699 20 -10.334 30 -17.001c10.667 -8 20.167 -16.5 28.5 -25.5s15 -20.667 20 -35s8.83301 -32 11.5 -53s4 -47.167 4 -78.5c0 -45.333 -3.16699 -83 -9.5 -113s-17 -54 -32 -72s-35.333 -30.833 -61 -38.5s-57.5 -11.5 -95.5 -11.5
c-62.667 0 -108.667 11.833 -138 35.5s-44 65.167 -44 124.5c0 19.333 0.5 38.833 1.5 58.5s3.16699 35.5 6.5 47.5h131c-1.33301 -4 -2 -8.33301 -2 -13v-15c0 -29.333 3 -49.5 9 -60.5s19 -16.5 39 -16.5s33.167 4.83301 39.5 14.5s9.5 30.5 9.5 62.5
c0 19.333 -3 34 -9 44s-15.667 19.667 -29 29c-12 8 -24.833 15.333 -38.5 22s-27.334 13 -41.001 19s-26.834 12.5 -39.501 19.5s-24 15.167 -34 24.5c-20.667 18 -33.167 42.667 -37.5 74s-6.5 72 -6.5 122c0 35.333 2.83301 65.166 8.5 89.499s15.5 44 29.5 59
s33 25.833 57 32.5s54.667 10 92 10c34 0 62.5 -2.66699 85.5 -8s41.833 -14.5 56.5 -27.5s25.167 -30.167 31.5 -51.5s9.5 -48 9.5 -80c0 -20.667 -0.5 -37 -1.5 -49s-3.16699 -22.667 -6.5 -32h-130z" />
    <glyph glyph-name="T" unicode="T" horiz-adv-x="421" 
d="M132 0v597h-119v160h395v-160h-119v-597h-157z" />
    <glyph glyph-name="U" unicode="U" horiz-adv-x="462" 
d="M279 757h156v-524c-0.666992 -31.333 -2 -57.333 -4 -78s-4.5 -38 -7.5 -52s-6.5 -25.5 -10.5 -34.5s-8.66699 -17.833 -14 -26.5c-6.66699 -10.667 -14.5 -19.5 -23.5 -26.5s-20.167 -12.667 -33.5 -17s-29 -7.33301 -47 -9s-39 -2.5 -63 -2.5
c-48.667 0 -85.667 3.83301 -111 11.5s-44.333 22.167 -57 43.5c-5.33301 8.66699 -10.333 17.5 -15 26.5s-8.66699 20.5 -12 34.5s-5.83301 31.333 -7.5 52s-2.5 46.667 -2.5 78v524h161v-524c0 -18 0.5 -32 1.5 -42s3.16699 -17.667 6.5 -23s8 -8.66602 14 -9.99902
s14 -2 24 -2s17.833 0.666992 23.5 2s10.167 4.66602 13.5 9.99902s5.5 13 6.5 23s1.5 24 1.5 42v524z" />
    <glyph glyph-name="V" unicode="V" horiz-adv-x="454" 
d="M102 0l-90 757h170l42 -533h11l40 533h167l-95 -757h-245z" />
    <glyph glyph-name="W" unicode="W" horiz-adv-x="723" 
d="M422 0l-52 464h-11l-56 -464h-222l-67 757h159l34 -515h11l69 515h158l70 -515h11l33 515h150l-65 -757h-222z" />
    <glyph glyph-name="X" unicode="X" horiz-adv-x="464" 
d="M286 0l-51 276h-11l-54 -276h-162v5l98 413l-79 334v5h163l40 -211h11l46 211h152v-5l-82 -334l97 -413v-5h-168z" />
    <glyph glyph-name="Y" unicode="Y" horiz-adv-x="447" 
d="M142 0l-0.000976562 276l-138 476v5h162l25.5 -113.5l15 -68l8.5 -38.5c2 -8.66699 3.66699 -17 5 -25h10c1.33301 8 3 16.333 5 25l8.5 38.5c3.66699 17 8.83398 39.667 15.501 68l27 113.5h157v-5l-132 -474v-278h-169z" />
    <glyph glyph-name="Z" unicode="Z" horiz-adv-x="454" 
d="M24 0v179l200 407l-4 10h-188v161h405v-86l-239 -494l5 -9h227v-168h-406z" />
    <glyph glyph-name="bracketleft" unicode="[" 
d="M131 -238v1200h270v-117h-153v-966h153v-117h-270z" />
    <glyph glyph-name="backslash" unicode="\" 
d="M322 -153l-306 1001h115l306 -1001h-115z" />
    <glyph glyph-name="bracketright" unicode="]" 
d="M52 -238v117h153v966h-153v117h270v-1200h-270z" />
    <glyph glyph-name="asciicircum" unicode="^" 
d="M322 334l-90 256h-10l-90 -256h-117v6l161 417h102l160 -417v-6h-116z" />
    <glyph glyph-name="underscore" unicode="_" 
d="M1 -182v124h451v-124h-451z" />
    <glyph glyph-name="grave" unicode="`" horiz-adv-x="300" 
d="M149 592l-115 167v6h141l91 -168v-5h-117z" />
    <glyph glyph-name="a" unicode="a" horiz-adv-x="445" 
d="M271 0l-13 175h-76l-12 -175h-158l81 757h264l76 -757h-162zM225 599h-11l-25 -271h62z" />
    <glyph glyph-name="b" unicode="b" horiz-adv-x="460" 
d="M34 0l-0.00292969 757.001h225c34 0 62.167 -3.83301 84.5 -11.5s40.333 -19.667 54 -36s23.334 -37.333 29.001 -63s8.5 -56.834 8.5 -93.501c0 -27.333 -0.833008 -49.666 -2.5 -66.999s-4.66699 -31.666 -9 -42.999s-9.83301 -20.666 -16.5 -27.999
s-15 -14.333 -25 -21v-7c10 -6 18.833 -11.667 26.5 -17s14.334 -13.833 20.001 -25.5s9.83398 -28.334 12.501 -50.001s4 -51.834 4 -90.501c0 -36.667 -2.66699 -67.834 -8 -93.501s-14.5 -46.667 -27.5 -63s-30.5 -28.333 -52.5 -36s-50 -11.5 -84 -11.5h-239z
M240.997 153.001c15.333 0 26.5 4.66699 33.5 14s10.5 28.666 10.5 57.999c0 34.667 -3 59.334 -9 74.001s-16.333 22 -31 22h-54v-168h50zM236.997 446.001c15.333 0 25.833 6 31.5 18s8.5 35 8.5 69c0 30 -3.5 49.833 -10.5 59.5s-18.167 14.5 -33.5 14.5h-42v-161h46z
" />
    <glyph glyph-name="c" unicode="c" horiz-adv-x="452" 
d="M424 290c2 -24 3.00195 -46.6719 3.00195 -68.0049c0 -40 -2.16699 -74.833 -6.5 -104.5s-13.5 -54.167 -27.5 -73.5s-33.833 -33.666 -59.5 -42.999s-59.5 -14 -101.5 -14c-50 0 -88.167 4.5 -114.5 13.5s-45.833 25.167 -58.5 48.5
c-6.66699 10.667 -12.334 23.334 -17.001 38.001s-8.5 34.334 -11.5 59.001s-5.16699 56 -6.5 94s-2 86.333 -2 145s0.666992 106.334 2 143.001s3.5 66.667 6.5 90s6.83301 41.666 11.5 54.999s10.334 25.666 17.001 36.999c13.333 22.667 32.666 38.334 57.999 47.001
s62 13 110 13c42.667 0 77 -4 103 -12s46 -21 60 -39s23.333 -41.167 28 -69.5s7 -62.5 7 -102.5c0 -9.33301 -0.166992 -19.666 -0.5 -30.999s-0.833008 -23.333 -1.5 -36h-147c0 20 -0.166992 36.667 -0.5 50s-0.833008 24.333 -1.5 33s-1.5 15.5 -2.5 20.5l-2.5 12.5
c-2.66699 12.667 -16.667 19 -42 19c-12.667 0 -21.834 -1.5 -27.501 -4.5s-9.5 -7.83301 -11.5 -14.5c-2 -5.33301 -3.5 -11.5 -4.5 -18.5s-2 -17.667 -3 -32s-1.66699 -34.166 -2 -59.499s-0.5 -58.333 -0.5 -99c0 -42 0.166992 -75.667 0.5 -101s1 -45.333 2 -60
s2 -25.667 3 -33s2.5 -13.666 4.5 -18.999c2 -6.66699 6 -11.334 12 -14.001s16.667 -4 32 -4c20 0 32 5.66699 36 17c2.66699 6.66699 4.66699 13.667 6 21s2.33301 15.5 3 24.5s1.16699 19.333 1.5 31s0.5 25.167 0.5 40.5h145z" />
    <glyph glyph-name="d" unicode="d" horiz-adv-x="471" 
d="M34 0v757h211c48 0 84.667 -4.5 110 -13.5s44.666 -24.5 57.999 -46.5c6.66699 -11.333 12.167 -23.5 16.5 -36.5s8 -30.833 11 -53.5s5.16699 -52 6.5 -88s2 -82.667 2 -140s-0.666992 -104.166 -2 -140.499s-3.5 -65.833 -6.5 -88.5s-6.66699 -40.667 -11 -54
s-9.83301 -25.333 -16.5 -36c-6.66699 -11.333 -14.667 -20.833 -24 -28.5s-20.666 -13.834 -33.999 -18.501s-29 -8 -47 -10s-39 -3 -63 -3h-211zM241 167c12.667 0 21.667 1.33008 27 3.99707s9.33301 7.33398 12 14.001c1.33301 4.66699 2.66602 10.167 3.99902 16.5
s2.33301 16.5 3 30.5s1.16699 32.833 1.5 56.5s0.5 54.834 0.5 93.501s-0.166992 70.167 -0.5 94.5s-0.833008 43.5 -1.5 57.5s-1.66699 24.333 -3 31s-2.66602 12.334 -3.99902 17.001c-2.66699 5.33301 -6.66699 9.33301 -12 12s-14.333 4 -27 4h-50v-431h50z" />
    <glyph glyph-name="e" unicode="e" horiz-adv-x="398" 
d="M34 0v757h335v-160h-178v-133h175v-153h-175v-143h177v-168h-334z" />
    <glyph glyph-name="f" unicode="f" horiz-adv-x="382" 
d="M34 0v757h330v-160h-173v-151h170v-154h-170v-292h-157z" />
    <glyph glyph-name="g" unicode="g" horiz-adv-x="449" 
d="M286 293l-73.002 -0.00488281v152h214c0.666992 -13.333 1.16699 -32.666 1.5 -57.999s0.5 -55.666 0.5 -90.999c0 -41.333 -0.666992 -75.666 -2 -102.999s-3.5 -50 -6.5 -68s-6.66699 -32.667 -11 -44s-9.5 -22 -15.5 -32c-6.66699 -12 -14.5 -21.833 -23.5 -29.5
s-20.167 -14 -33.5 -19s-29 -8.5 -47 -10.5s-39 -3 -63 -3c-48.667 0 -85.5 4.5 -110.5 13.5s-44.167 25.167 -57.5 48.5c-6.66699 11.333 -12.334 23.833 -17.001 37.5s-8.5 32.5 -11.5 56.5s-5.16699 55 -6.5 93s-2 87.667 -2 149c0 58.667 0.666992 106.334 2 143.001
s3.5 66.667 6.5 90s6.83301 41.666 11.5 54.999s10.334 25.666 17.001 36.999c13.333 22.667 32.666 38.334 57.999 47.001s62 13 110 13c55.333 0 97 -7.16699 125 -21.5s47.667 -38.5 59 -72.5c8.66699 -28 13 -65 13 -111v-21.5c0 -5 -0.333008 -10.833 -1 -17.5h-146
c0.666992 2 1 4.16699 1 6.5v6.5c0 16.667 -0.666992 29 -2 37s-2.66602 14.667 -3.99902 20c-2.66699 12.667 -18 19 -46 19c-13.333 0 -23.166 -1.5 -29.499 -4.5s-10.833 -7.83301 -13.5 -14.5c-1.33301 -5.33301 -2.66602 -11.5 -3.99902 -18.5s-2.33301 -17.667 -3 -32
s-1.16699 -34.166 -1.5 -59.499s-0.5 -58.333 -0.5 -99c0 -43.333 0.166992 -77.833 0.5 -103.5s0.833008 -45.667 1.5 -60s1.5 -24.666 2.5 -30.999s2.16699 -11.833 3.5 -16.5c5.33301 -14.667 21.333 -22 48 -22c13.333 0 23.166 1.5 29.499 4.5s11.5 7.83301 15.5 14.5
c2 3.33301 3.83301 6.83301 5.5 10.5s2.83398 8.5 3.50098 14.5s1.16699 13.5 1.5 22.5s0.5 21.167 0.5 36.5v36z" />
    <glyph glyph-name="h" unicode="h" horiz-adv-x="484" 
d="M291 0v311h-98v-311h-161v757h161v-293h98v293h161v-757h-161z" />
    <glyph glyph-name="i" unicode="i" horiz-adv-x="233" 
d="M36 0v757h161v-757h-161z" />
    <glyph glyph-name="j" unicode="j" horiz-adv-x="443" 
d="M255 757l161.001 0.00195312v-367c0 -57.333 -0.666992 -105.333 -2 -144s-3.5 -70.834 -6.5 -96.501s-6.66699 -46.167 -11 -61.5s-9.83301 -28.333 -16.5 -39c-6.66699 -11.333 -14.667 -21 -24 -29s-20.833 -14.5 -34.5 -19.5s-30 -8.5 -49 -10.5s-40.833 -3 -65.5 -3
c-42 0 -75.833 4.66699 -101.5 14s-45.5 23.666 -59.5 42.999s-23.167 43.833 -27.5 73.5s-6.5 64.5 -6.5 104.5c0 21.333 1 44 3 68h140c0 -15.333 0.166992 -28.833 0.5 -40.5s0.833008 -22 1.5 -31s1.66699 -17.167 3 -24.5s3 -14.333 5 -21
c4.66699 -11.333 16.667 -17 36 -17c15.333 0 26 1.33301 32 4s10.333 7.33398 13 14.001c1.33301 5.33301 2.66602 11.666 3.99902 18.999s2.33301 18.333 3 33s1.16699 34.5 1.5 59.5s0.5 58.5 0.5 100.5v371z" />
    <glyph glyph-name="k" unicode="k" horiz-adv-x="488" 
d="M298 0l-95 340.001h-10c1.33301 -8.66699 2 -17.834 2 -27.501v-28.5v-284h-161v757h161v-276c0 -8 -0.166992 -15.167 -0.5 -21.5s-0.833008 -12.833 -1.5 -19.5h10l101 317h165v-5l-115 -338l124 -409v-5h-180z" />
    <glyph glyph-name="l" unicode="l" horiz-adv-x="366" 
d="M34 0v757h157v-589h162v-168h-319z" />
    <glyph glyph-name="m" unicode="m" horiz-adv-x="663" 
d="M487 0v454h-6l-115 -454h-69l-116 454h-6v-454h-143v757h222l70 -329h7l78 329h221l1 -757h-144z" />
    <glyph glyph-name="n" unicode="n" horiz-adv-x="475" 
d="M361 0l-179 406h-6v-406h-143v757h154l106 -263h6v263h144v-757h-82z" />
    <glyph glyph-name="o" unicode="o" 
d="M394 49c-6.66699 -12 -14.499 -21.833 -23.499 -29.5s-20.167 -14 -33.5 -19s-29 -8.5 -47 -10.5s-39 -3 -63 -3c-48.667 0 -85.5 4.5 -110.5 13.5s-44.167 25.167 -57.5 48.5c-6.66699 11.333 -12.334 23.833 -17.001 37.5s-8.5 32.167 -11.5 55.5
s-5.16699 53.833 -6.5 91.5s-2 86.167 -2 145.5s0.666992 107.666 2 144.999s3.5 67.666 6.5 90.999s6.83301 41.666 11.5 54.999s10.334 26 17.001 38c6.66699 11.333 14.5 21 23.5 29s20.167 14.5 33.5 19.5s29.166 8.5 47.499 10.5s39.5 3 63.5 3
c48 0 84.5 -4.66699 109.5 -14s44.167 -25.333 57.5 -48c6.66699 -12 12.334 -24.667 17.001 -38s8.5 -31.666 11.5 -54.999s5.16699 -53.666 6.5 -90.999s2 -85.666 2 -144.999s-0.666992 -107.833 -2 -145.5s-3.5 -68.167 -6.5 -91.5s-6.83301 -41.833 -11.5 -55.5
s-10.334 -26.167 -17.001 -37.5zM266.001 174c1.33301 4.66699 2.66602 10.667 3.99902 18s2.33301 18.333 3 33s1.16699 34.5 1.5 59.5s0.5 57.833 0.5 98.5c0 42 -0.166992 75.667 -0.5 101s-0.833008 45.5 -1.5 60.5s-1.66699 26.167 -3 33.5
s-2.66602 13.333 -3.99902 18c-2.66699 6.66699 -6.66699 11.5 -12 14.5s-14.333 4.5 -27 4.5s-21.834 -1.5 -27.501 -4.5s-9.5 -7.83301 -11.5 -14.5c-2 -4.66699 -3.5 -10.667 -4.5 -18s-2 -18.5 -3 -33.5s-1.66699 -35.167 -2 -60.5s-0.5 -59 -0.5 -101
c0 -40.667 0.166992 -73.5 0.5 -98.5s1 -44.833 2 -59.5s2 -25.667 3 -33s2.5 -13.333 4.5 -18c2 -6.66699 5.83301 -11.334 11.5 -14.001s14.834 -4 27.501 -4s21.667 1.33301 27 4s9.33301 7.33398 12 14.001z" />
    <glyph glyph-name="p" unicode="p" horiz-adv-x="450" 
d="M34 0v756.997h227c34 0 62 -4.5 84 -13.5s39.5 -23.667 52.5 -44s22 -47 27 -80s7.5 -73.833 7.5 -122.5c0 -49.333 -2.5 -91.166 -7.5 -125.499s-14 -62.166 -27 -83.499s-30.5 -36.666 -52.5 -45.999s-50 -14 -84 -14h-70v-228h-157zM233 383.997
c14.667 0 25 8.16797 31 24.501s9 47.166 9 92.499c0 40 -3.5 66.333 -10.5 79s-18.167 19 -33.5 19h-38v-215h42z" />
    <glyph glyph-name="q" unicode="q" 
d="M240 -91c-2.66699 3.33301 -5.16699 7.50488 -7.5 12.5049s-5.33301 11.833 -9 20.5s-7.66699 19.667 -12 33l-16.5 50c-37.333 1.33301 -66.5 6.16602 -87.5 14.499s-37.167 22.166 -48.5 41.499c-6.66699 11.333 -12.334 23.5 -17.001 36.5s-8.5 30.667 -11.5 53
s-5.16699 51.333 -6.5 87s-2 81.834 -2 138.501s0.666992 102.834 2 138.501s3.5 64.834 6.5 87.501s6.83301 40.334 11.5 53.001s10.334 24.667 17.001 36c13.333 22 32.5 37.333 57.5 46s61.833 13 110.5 13c24 0 45 -1 63 -3s33.667 -5.33301 47 -10
s24.5 -10.834 33.5 -18.501s16.833 -16.834 23.5 -27.501c6.66699 -11.333 12.334 -23.333 17.001 -36s8.5 -30.334 11.5 -53.001s5.16699 -51.834 6.5 -87.501s2 -81.834 2 -138.501s-0.666992 -102.834 -2 -138.501s-3.5 -64.667 -6.5 -87s-6.83301 -40 -11.5 -53
s-10.334 -25.167 -17.001 -36.5c-5.33301 -10 -12.5 -18.167 -21.5 -24.5s-18.833 -11.833 -29.5 -16.5c12 -39.333 22.5 -67.833 31.5 -85.5s16.5 -30.834 22.5 -39.501v-6h-157zM266 195.005c1.33301 4.66699 2.66602 10.002 3.99902 16.002s2.33301 15.667 3 29
s1.16699 32.166 1.5 56.499s0.5 57.166 0.5 98.499c0 39.333 -0.166992 71.166 -0.5 95.499s-0.833008 43.666 -1.5 57.999s-1.66699 24.833 -3 31.5s-2.66602 12.334 -3.99902 17.001c-2.66699 6 -6.66699 10.5 -12 13.5s-14.333 4.5 -27 4.5s-21.834 -1.5 -27.501 -4.5
s-9.5 -7.5 -11.5 -13.5c-2 -4.66699 -3.5 -10.334 -4.5 -17.001s-2 -17.167 -3 -31.5s-1.66699 -33.666 -2 -57.999s-0.5 -56.166 -0.5 -95.499c0 -40.667 0.166992 -73 0.5 -97s1 -43 2 -57s2 -24 3 -30s2.5 -11.333 4.5 -16c2 -6 5.83301 -10 11.5 -12
s14.834 -3 27.501 -3s21.667 1 27 3s9.33301 6 12 12z" />
    <glyph glyph-name="r" unicode="r" horiz-adv-x="462" 
d="M282 0c-2 6 -3.83105 12.499 -5.49805 19.499s-3.5 17.667 -5.5 32l-8 59.5c-3.33301 25.333 -7.33301 60 -12 104c-2 17.333 -4 31.333 -6 42s-4.33301 18.834 -7 24.501s-6 9.33398 -10 11.001s-8.33301 2.5 -13 2.5h-24v-295h-157v757h229c34 0 62 -3.83301 84 -11.5
s39.5 -19.667 52.5 -36s22 -37.333 27 -63s7.5 -56.834 7.5 -93.501c0 -39.333 -1.33301 -70.166 -4 -92.499s-6.83398 -39.833 -12.501 -52.5s-12.5 -22.167 -20.5 -28.5s-17.333 -12.5 -28 -18.5v-6c4 -3.33301 8.16699 -7 12.5 -11s8.16602 -10.667 11.499 -20
c5.33301 -12 10.833 -30.167 16.5 -54.5s11.167 -58.5 16.5 -102.5c4 -30.667 7 -55.334 9 -74.001s3.83301 -33.667 5.5 -45s3 -20 4 -26s2.5 -11.667 4.5 -17v-5h-167zM235.002 435.999c14.667 0 25 6.16797 31 18.501s9 36.166 9 71.499c0 30 -3.5 50 -10.5 60
s-18.167 15 -33.5 15h-40v-165h44z" />
    <glyph glyph-name="s" unicode="s" horiz-adv-x="420" 
d="M250 522c0.666992 5.33301 1 9.83496 1 13.502v19.5c0 23.333 -2.83301 39.5 -8.5 48.5s-18.167 13.5 -37.5 13.5s-31.666 -4.5 -36.999 -13.5s-8 -25.167 -8 -48.5c0 -22 2.83301 -37.5 8.5 -46.5s14.834 -17.167 27.501 -24.5c14.667 -8.66699 28.5 -16 41.5 -22
l36 -16.5l31.5 -14.5c10 -4.66699 20 -10.334 30 -17.001c10.667 -8 20.167 -16.5 28.5 -25.5s15 -20.667 20 -35s8.83301 -32 11.5 -53s4 -47.167 4 -78.5c0 -45.333 -3.16699 -83 -9.5 -113s-17 -54 -32 -72s-35.333 -30.833 -61 -38.5s-57.5 -11.5 -95.5 -11.5
c-62.667 0 -108.667 11.833 -138 35.5s-44 65.167 -44 124.5c0 19.333 0.5 38.833 1.5 58.5s3.16699 35.5 6.5 47.5h131c-1.33301 -4 -2 -8.33301 -2 -13v-15c0 -29.333 3 -49.5 9 -60.5s19 -16.5 39 -16.5s33.167 4.83301 39.5 14.5s9.5 30.5 9.5 62.5
c0 19.333 -3 34 -9 44s-15.667 19.667 -29 29c-12 8 -24.833 15.333 -38.5 22s-27.334 13 -41.001 19s-26.834 12.5 -39.501 19.5s-24 15.167 -34 24.5c-20.667 18 -33.167 42.667 -37.5 74s-6.5 72 -6.5 122c0 35.333 2.83301 65.166 8.5 89.499s15.5 44 29.5 59
s33 25.833 57 32.5s54.667 10 92 10c34 0 62.5 -2.66699 85.5 -8s41.833 -14.5 56.5 -27.5s25.167 -30.167 31.5 -51.5s9.5 -48 9.5 -80c0 -20.667 -0.5 -37 -1.5 -49s-3.16699 -22.667 -6.5 -32h-130z" />
    <glyph glyph-name="t" unicode="t" horiz-adv-x="421" 
d="M132 0v597h-119v160h395v-160h-119v-597h-157z" />
    <glyph glyph-name="u" unicode="u" horiz-adv-x="462" 
d="M279 757h156v-524c-0.666992 -31.333 -2 -57.333 -4 -78s-4.5 -38 -7.5 -52s-6.5 -25.5 -10.5 -34.5s-8.66699 -17.833 -14 -26.5c-6.66699 -10.667 -14.5 -19.5 -23.5 -26.5s-20.167 -12.667 -33.5 -17s-29 -7.33301 -47 -9s-39 -2.5 -63 -2.5
c-48.667 0 -85.667 3.83301 -111 11.5s-44.333 22.167 -57 43.5c-5.33301 8.66699 -10.333 17.5 -15 26.5s-8.66699 20.5 -12 34.5s-5.83301 31.333 -7.5 52s-2.5 46.667 -2.5 78v524h161v-524c0 -18 0.5 -32 1.5 -42s3.16699 -17.667 6.5 -23s8 -8.66602 14 -9.99902
s14 -2 24 -2s17.833 0.666992 23.5 2s10.167 4.66602 13.5 9.99902s5.5 13 6.5 23s1.5 24 1.5 42v524z" />
    <glyph glyph-name="v" unicode="v" horiz-adv-x="454" 
d="M102 0l-90 757h170l42 -533h11l40 533h167l-95 -757h-245z" />
    <glyph glyph-name="w" unicode="w" horiz-adv-x="723" 
d="M422 0l-52 464h-11l-56 -464h-222l-67 757h159l34 -515h11l69 515h158l70 -515h11l33 515h150l-65 -757h-222z" />
    <glyph glyph-name="x" unicode="x" horiz-adv-x="464" 
d="M286 0l-51 276h-11l-54 -276h-162v5l98 413l-79 334v5h163l40 -211h11l46 211h152v-5l-82 -334l97 -413v-5h-168z" />
    <glyph glyph-name="y" unicode="y" horiz-adv-x="447" 
d="M142 0l-0.000976562 276l-138 476v5h162l25.5 -113.5l15 -68l8.5 -38.5c2 -8.66699 3.66699 -17 5 -25h10c1.33301 8 3 16.333 5 25l8.5 38.5c3.66699 17 8.83398 39.667 15.501 68l27 113.5h157v-5l-132 -474v-278h-169z" />
    <glyph glyph-name="z" unicode="z" horiz-adv-x="454" 
d="M24 0v179l200 407l-4 10h-188v161h405v-86l-239 -494l5 -9h227v-168h-406z" />
    <glyph glyph-name="braceleft" unicode="{" 
d="M331 -238c-28.667 0 -53.167 2.99707 -73.5 8.99707s-36.833 15.667 -49.5 29s-22 30.666 -28 51.999s-9 47.333 -9 78c0 25.333 1.16699 50.5 3.5 75.5l7 75l7 76c2.33301 25.667 3.5 51.834 3.5 78.501c0 23.333 -3.16699 40.5 -9.5 51.5s-20.166 16.5 -41.499 16.5
h-51v118h51c21.333 0 35.166 5.5 41.499 16.5s9.5 28.167 9.5 51.5c0 26.667 -1.16699 52.667 -3.5 78l-7 76l-7 75.5c-2.33301 25 -3.5 50.167 -3.5 75.5c0 60.667 12.333 103.834 37 129.501s65.667 38.5 123 38.5h92v-117h-88c-19.333 0 -32 -3.5 -38 -10.5
s-9 -20.833 -9 -41.5c0 -22 1.16699 -45.5 3.5 -70.5l7 -78.5l7 -85c2.33301 -29.333 3.5 -59 3.5 -89c0 -23.333 -5 -44.166 -15 -62.499s-22.333 -31.833 -37 -40.5v-11c14.667 -7.33301 27 -20.166 37 -38.499s15 -39.5 15 -63.5c0 -30 -1.16699 -59.667 -3.5 -89l-7 -85
l-7 -78.5c-2.33301 -25 -3.5 -48.5 -3.5 -70.5c0 -20.667 3 -34.5 9 -41.5s18.667 -10.5 38 -10.5h88v-117h-92z" />
    <glyph glyph-name="bar" unicode="|" 
d="M168 -238v1200h117v-1200h-117z" />
    <glyph glyph-name="braceright" unicode="}" 
d="M30 -238v117.003h88c19.333 0 32 3.5 38 10.5s9 20.833 9 41.5c0 22 -1.16699 45.5 -3.5 70.5l-7 78.5l-7 85c-2.33301 29.333 -3.5 59 -3.5 89c0 24 5 45.167 15 63.5s22.333 31.166 37 38.499v11c-14.667 8.66699 -27 22.167 -37 40.5s-15 39.166 -15 62.499
c0 30 1.16699 59.667 3.5 89l7 85l7 78.5c2.33301 25 3.5 48.5 3.5 70.5c0 20.667 -3 34.5 -9 41.5s-18.667 10.5 -38 10.5h-88v117h92c57.333 0 98.333 -12.833 123 -38.5s37 -68.834 37 -129.501c0 -25.333 -1.16699 -50.5 -3.5 -75.5l-7 -75.5l-7 -76
c-2.33301 -25.333 -3.5 -51.333 -3.5 -78c0 -23.333 3.16699 -40.5 9.5 -51.5s20.166 -16.5 41.499 -16.5h51v-118h-51c-21.333 0 -35.166 -5.5 -41.499 -16.5s-9.5 -28.167 -9.5 -51.5c0 -26.667 1.16699 -52.834 3.5 -78.501l7 -76l7 -75
c2.33301 -25 3.5 -50.167 3.5 -75.5c0 -30.667 -3 -56.667 -9 -78s-15.333 -38.666 -28 -51.999s-29.167 -23 -49.5 -29s-44.833 -9 -73.5 -9h-92z" />
    <glyph glyph-name="asciitilde" unicode="~" 
d="M438 362c-16 -23.333 -33.3291 -39.832 -51.9961 -49.499s-41 -14.5 -67 -14.5c-17.333 0 -34.333 2.5 -51 7.5s-33 10.333 -49 16l-47 16c-15.333 5 -30.333 7.5 -45 7.5c-22.667 0 -41.667 -4.66699 -57 -14s-31 -25.333 -47 -48h-8v117
c11.333 17.333 25.5 32.166 42.5 44.499s38.167 18.5 63.5 18.5c21.333 0 41.166 -2.5 59.499 -7.5s35.666 -10.667 51.999 -17s32 -12 47 -17s29.833 -7.5 44.5 -7.5c21.333 0 40.666 4.66699 57.999 14s33.666 25.333 48.999 48h7v-114z" />
    <glyph glyph-name="nonbreakingspace" unicode="&#xa0;" horiz-adv-x="198" 
 />
    <glyph glyph-name="exclamdown" unicode="&#xa1;" horiz-adv-x="241" 
d="M34 -228l18 561h134l20 -561h-172zM41 409v151h157v-151h-157z" />
    <glyph glyph-name="cent" unicode="&#xa2;" 
d="M198 -43l0.00390625 124.997c-40 1.33301 -71 5.5 -93 12.5s-38.667 19.167 -50 36.5c-6.66699 8.66699 -12.334 18.167 -17.001 28.5s-8.5 24.833 -11.5 43.5s-5.33301 42.667 -7 72s-2.5 67.666 -2.5 114.999c0 46 0.666992 83.5 2 112.5s3.5 52.667 6.5 71
s7 32.833 12 43.5s10.833 20.334 17.5 29.001c11.333 16 28.166 27.667 50.499 35s53.166 11.666 92.499 12.999v107h63v-107c38 -1.33301 67.833 -5.66602 89.5 -12.999s38.5 -19 50.5 -35c13.333 -18.667 22.166 -39.834 26.499 -63.501s6.5 -48.167 6.5 -73.5v-19.5
c0 -6.33301 -0.333008 -13.166 -1 -20.499h-155v12c0 22 -0.833008 37.167 -2.5 45.5s-3.5 14.833 -5.5 19.5c-2.66699 5.33301 -7 9 -13 11s-15.333 3 -28 3c-13.333 0 -22.666 -1 -27.999 -3s-9.33301 -5.66699 -12 -11c-2 -3.33301 -3.5 -7.66602 -4.5 -12.999
s-2 -13.333 -3 -24s-1.66699 -25.167 -2 -43.5s-0.5 -42.5 -0.5 -72.5c0 -29.333 0.166992 -53.166 0.5 -71.499s1 -32.833 2 -43.5s2 -18.667 3 -24s2.5 -10 4.5 -14c2.66699 -4 6.66699 -7 12 -9s14.666 -3 27.999 -3c12.667 0 22 1 28 3s10.333 5 13 9
c2.66699 5.33301 4.66699 11.833 6 19.5s2 23.167 2 46.5v13h155c1.33301 -8 2 -16.167 2 -24.5v-24.5c0 -22.667 -2 -46.167 -6 -70.5s-13.333 -47.166 -28 -68.499c-12.667 -17.333 -29.667 -29.5 -51 -36.5s-51 -11.167 -89 -12.5v-125h-63z" />
    <glyph glyph-name="sterling" unicode="&#xa3;" 
d="M437 25c-11.333 -11.333 -24.3369 -20.498 -39.0039 -27.498s-33.667 -10.5 -57 -10.5c-28.667 0 -51.167 7.5 -67.5 22.5s-26.166 36.5 -29.499 64.5h-11c-8.66699 -22.667 -23.667 -42.834 -45 -60.501s-51 -26.5 -89 -26.5c-9.33301 0 -20.666 1.83301 -33.999 5.5
s-25.333 13.5 -36 29.5v144c20.667 -4 36.334 -6 47.001 -6c16.667 0 27.834 5 33.501 15s8.5 30.333 8.5 61c0 6.66699 -1.66699 14 -5 22s-7.66602 16 -12.999 24h-85v64h42c-15.333 25.333 -25 51.5 -29 78.5s-6 60.167 -6 99.5c0 26 1 48.5 3 67.5s4.66699 35.667 8 50
s7.33301 27 12 38s9.66699 21.167 15 30.5c13.333 22.667 32.666 38.334 57.999 47.001s62 13 110 13c42.667 0 77 -4 103 -12s46 -21 60 -39s23.333 -41.167 28 -69.5s7 -62.5 7 -102.5v-47.5c0 -10.333 -0.666992 -19.833 -2 -28.5h-147
c0.666992 3.33301 1 7.16602 1 11.499v14.5c0 32 -1 55 -3 69s-4 24.333 -6 31c-4.66699 12 -18.334 18 -41.001 18c-13.333 0 -22.666 -1.66699 -27.999 -5s-9 -7.66602 -11 -12.999c-6.66699 -14 -10 -34.333 -10 -61c0 -20.667 0.833008 -37.667 2.5 -51
s5 -26.5 10 -39.5s12.5 -27 22.5 -42l40 -57.5h147v-64h-129c0.666992 -4.66699 1.16699 -9.33398 1.5 -14.001s0.5 -9.66699 0.5 -15c0 -24.667 -0.666992 -42.334 -2 -53.001s-3 -21 -5 -31c5.33301 -3.33301 12 -5.5 20 -6.5s20.667 -1.5 38 -1.5
c21.333 0 39.833 3 55.5 9s31.5 15 47.5 27h9v-172z" />
    <glyph glyph-name="currency" unicode="&#xa4;" horiz-adv-x="703" 
d="M507 151c-23.333 -14.667 -47.167 -26.001 -71.5 -34.001s-51.166 -12 -80.499 -12c-30 0 -58 4 -84 12s-49.333 19.333 -70 34l-87 -91l-80 78l90 88c-14.667 22 -25.834 45.5 -33.501 70.5s-11.5 52.5 -11.5 82.5c0 54.667 15 106.667 45 156l-89 84l79 79l85 -91
c41.333 33.333 93.333 50 156 50c56.667 0 108 -16.667 154 -50l80 91l80 -79l-87 -84c14.667 -23.333 26.167 -47.833 34.5 -73.5s12.5 -53.167 12.5 -82.5c0 -30 -4.16699 -57.667 -12.5 -83s-19.833 -48.666 -34.5 -69.999l87 -88l-78 -78zM354.999 222.999
c20.667 0 40.5 4.16699 59.5 12.5s35.5 19.5 49.5 33.5s25.167 30.5 33.5 49.5s12.5 39.167 12.5 60.5s-4.16699 41.5 -12.5 60.5s-19.5 35.833 -33.5 50.5s-30.5 26.167 -49.5 34.5s-38.833 12.5 -59.5 12.5c-22 0 -42.5 -4.16699 -61.5 -12.5s-35.667 -19.833 -50 -34.5
s-25.5 -31.5 -33.5 -50.5s-12 -39.167 -12 -60.5s4 -41.5 12 -60.5s19.167 -35.5 33.5 -49.5s31 -25.167 50 -33.5s39.5 -12.5 61.5 -12.5z" />
    <glyph glyph-name="yen" unicode="&#xa5;" 
d="M147 0v142h-120v64h120v66h-120v63h105l-125 417v5h161l54 -231h11l55 231h157v-5l-121 -417h97v-63h-111v-66h111v-64h-111v-142h-163z" />
    <glyph glyph-name="brokenbar" unicode="&#xa6;" 
d="M168 -238v432h117v-432h-117zM168 539v423h117v-423h-117z" />
    <glyph glyph-name="section" unicode="&#xa7;" horiz-adv-x="488" 
d="M373 74c0 -39.333 -2.83398 -72 -8.50098 -98s-15.334 -47 -29.001 -63s-32.167 -27.333 -55.5 -34s-52.666 -10 -87.999 -10c-58 0 -100.333 10.333 -127 31s-40 57.334 -40 110.001c0 16 0.5 32.667 1.5 50s2.5 31.333 4.5 42h120c-0.666992 -4 -1 -7.83301 -1 -11.5
v-13.5c0 -25.333 2.83301 -42.833 8.5 -52.5s17.834 -14.5 36.501 -14.5c18 0 29.833 4.16699 35.5 12.5s8.5 26.5 8.5 54.5c0 16.667 -2.66699 29.334 -8 38.001s-14 17.334 -26 26.001c-11.333 7.33301 -23.166 13.833 -35.499 19.5l-37 16.5
c-12.333 5.33301 -24.333 11 -36 17s-22.5 13 -32.5 21c-18.667 16 -30 37.667 -34 65s-6 62.666 -6 105.999c0 48 6.33301 84.5 19 109.5s37 41.833 73 50.5c-1.33301 9.33301 -2 18.5 -2 27.5v29.5c0 30.667 2.5 56.667 7.5 78s13.833 38.666 26.5 51.999
s30.167 22.833 52.5 28.5s50.5 8.5 84.5 8.5c31.333 0 57.833 -2.33301 79.5 -7s39.167 -12.667 52.5 -24s22.833 -26.333 28.5 -45s8.5 -42.334 8.5 -71.001c0 -17.333 -0.5 -31.166 -1.5 -41.499s-2.83301 -19.833 -5.5 -28.5h-120c0.666992 5.33301 1 9.5 1 12.5v16.5
c0 20 -2.66699 34 -8 42s-17 12 -35 12c-17.333 0 -28.5 -4 -33.5 -12s-7.5 -22 -7.5 -42c0 -19.333 2.66699 -32.833 8 -40.5s14.333 -14.834 27 -21.501c13.333 -7.33301 25.833 -13.5 37.5 -18.5l32.5 -14l29 -13c9.33301 -4.33301 18.666 -9.5 27.999 -15.5
c10 -6.66699 18.667 -14 26 -22s13.333 -18.333 18 -31s8.16699 -28.167 10.5 -46.5s3.5 -41.166 3.5 -68.499c0 -58.667 -6.66699 -102.834 -20 -132.501s-37 -50.167 -71 -61.5v-23zM320.999 238c6 8 8.99902 26.333 8.99902 55c0 17.333 -2.66699 30.333 -8 39
s-14.333 17 -27 25c-19.333 12.667 -39.666 23 -60.999 31s-41 17.667 -59 29c-8.66699 -3.33301 -14.5 -8.83301 -17.5 -16.5s-4.5 -19.167 -4.5 -34.5c0 -19.333 2.66699 -33 8 -41s14.333 -15.333 27 -22c13.333 -7.33301 25.833 -13.5 37.5 -18.5l33.5 -14.5
c10.667 -4.66699 21.167 -9.5 31.5 -14.5s20.5 -10.833 30.5 -17.5z" />
    <glyph glyph-name="dieresis" unicode="&#xa8;" horiz-adv-x="408" 
d="M240 613v123h134v-123h-134zM34 613v123h135v-123h-135z" />
    <glyph glyph-name="ordfeminine" unicode="&#xaa;" horiz-adv-x="274" 
d="M261 403c-2 -5.33301 -6.33008 -10 -12.9971 -14s-15.334 -6 -26.001 -6c-12 0 -21.833 1.66699 -29.5 5s-14.167 7.66602 -19.5 12.999c-5.33301 -5.33301 -12.833 -9.66602 -22.5 -12.999s-22.834 -5 -39.501 -5c-18.667 0 -33.834 1.5 -45.501 4.5
s-20.667 8.5 -27 16.5s-10.666 18.833 -12.999 32.5s-3.5 31.5 -3.5 53.5c0 20 2 36.5 6 49.5s10.167 23.167 18.5 30.5s19.166 12.333 32.499 15s29.333 4 48 4c8 0 14.667 -1 20 -3l2 2v18c0 11.333 -0.833008 18.666 -2.5 21.999s-6.16699 5 -13.5 5
c-8.66699 0 -14 -1.16699 -16 -3.5s-3 -7.16602 -3 -14.499c0 -3.33301 0.333008 -6 1 -8h-83c-0.666992 3.33301 -1 6.16602 -1 8.49902v7.5c0 15.333 1.5 28.5 4.5 39.5s8.33301 20 16 27s18.167 12.167 31.5 15.5s30 5 50 5c24 0 43 -2.5 57 -7.5s24.333 -12 31 -21
s10.834 -19.667 12.501 -32s2.5 -25.5 2.5 -39.5v-136c0 -11.333 3 -17 9 -17c3.33301 0 6.16602 0.333008 8.49902 1s4.83301 1.33398 7.5 2.00098v-57zM149.003 530l-7 -0.000976562c-14 0 -23.333 -2.16699 -28 -6.5s-7 -14.166 -7 -29.499
c0 -13.333 1.33301 -21.5 4 -24.5s10 -4.5 22 -4.5c6.66699 0 12 1 16 3v62z" />
    <glyph glyph-name="guillemotleft" unicode="&#xab;" horiz-adv-x="466" 
d="M222 182l-202 147v103l202 150h5v-124l-103 -72v-11l103 -70v-123h-5zM440 182l-202 147v103l202 150h5v-124l-103 -72v-11l103 -70v-123h-5z" />
    <glyph glyph-name="logicalnot" unicode="&#xac;" 
d="M322 0v321h-307v117h423v-438h-116z" />
    <glyph glyph-name="macron" unicode="&#xaf;" horiz-adv-x="468" 
d="M34 626v106h400v-106h-400z" />
    <glyph glyph-name="degree" unicode="&#xb0;" horiz-adv-x="334" 
d="M285 761c4 -5.33301 7.66602 -11 10.999 -17s6 -14 8 -24s3.5 -23.167 4.5 -39.5s1.5 -37.5 1.5 -63.5s-0.5 -47.333 -1.5 -64s-2.5 -30.167 -4.5 -40.5s-4.66699 -18.5 -8 -24.5s-7 -11.333 -11 -16c-9.33301 -10.667 -23 -17.834 -41 -21.501s-44 -5.5 -78 -5.5
s-59.667 1.83301 -77 5.5s-30.666 10.834 -39.999 21.501c-4 4.66699 -7.66699 10 -11 16s-6 14.167 -8 24.5s-3.5 23.833 -4.5 40.5s-1.5 38 -1.5 64s0.5 47.167 1.5 63.5s2.5 29.5 4.5 39.5s4.5 18 7.5 24s6.83301 11.667 11.5 17
c9.33301 9.33301 22.833 16.166 40.5 20.499s43.167 6.5 76.5 6.5c34 0 60 -2.16699 78 -6.5s31.667 -11.166 41 -20.499zM108.999 533c4 -2.66699 10 -4.5 18 -5.5s21 -1.5 39 -1.5c19.333 0 33 0.5 41 1.5s13.667 2.83301 17 5.5c2.66699 2 5 4.5 7 7.5s3.5 7.5 4.5 13.5
s1.66699 14.167 2 24.5s0.5 23.833 0.5 40.5s-0.166992 30.167 -0.5 40.5s-1 18.5 -2 24.5s-2.5 10.5 -4.5 13.5s-4.33301 5.5 -7 7.5c-3.33301 3.33301 -9 5.5 -17 6.5s-21.667 1.5 -41 1.5c-18 0 -31 -0.5 -39 -1.5s-14 -3.16699 -18 -6.5
c-2.66699 -2 -4.83398 -4.5 -6.50098 -7.5s-3 -7.5 -4 -13.5s-1.66699 -14.167 -2 -24.5s-0.5 -23.833 -0.5 -40.5s0.166992 -30.167 0.5 -40.5s1 -18.5 2 -24.5s2.33301 -10.5 4 -13.5s3.83398 -5.5 6.50098 -7.5z" />
    <glyph glyph-name="plusminus" unicode="&#xb1;" 
d="M168 168v153h-153v117h153v153h117v-153h153v-117h-153v-153h-117zM15 -59v117h423v-117h-423z" />
    <glyph glyph-name="twosuperior" unicode="&#xb2;" horiz-adv-x="279" 
d="M31 348l-0.000976562 101.999l69 68l22.5 21.5c5.66699 5.66699 10.167 10.5 13.5 14.5s5.83301 7.33301 7.5 10s3.5 6 5.5 10c3.33301 7.33301 5.33301 14.5 6 21.5s1 20.167 1 39.5c0 10 -0.333008 17.833 -1 23.5s-1.66699 10.167 -3 13.5c-1.33301 2 -3 3.66699 -5 5
s-5.66699 2 -11 2c-10 0 -16 -2.33301 -18 -7c-1.33301 -2.66699 -2.16602 -6.66699 -2.49902 -12s-0.5 -14.666 -0.5 -27.999v-17.5c0 -4.33301 0.666992 -8.5 2 -12.5h-92c-1.33301 8.66699 -2 16 -2 22v25c0 22.667 1.33301 42 4 58s8.16699 29 16.5 39
s19.833 17.333 34.5 22s34 7 58 7c22.667 0 41.334 -2 56.001 -6s26.5 -11.167 35.5 -21.5s15.333 -24.5 19 -42.5s5.5 -41 5.5 -69c0 -12 -0.166992 -22 -0.5 -30s-0.833008 -15 -1.5 -21s-1.66699 -11.5 -3 -16.5s-3.33301 -10.5 -6 -16.5
c-4.66699 -10 -10.334 -19.667 -17.001 -29s-17.667 -21.333 -33 -36l-42 -40h100v-99h-218z" />
    <glyph glyph-name="threesuperior" unicode="&#xb3;" horiz-adv-x="279" 
d="M88 524v76.001h49c9.33301 0 15.166 2.16699 17.499 6.5s3.5 16.833 3.5 37.5c0 17.333 -1.16699 27.833 -3.5 31.5s-8.16602 5.5 -17.499 5.5c-10 0 -16.167 -1.83301 -18.5 -5.5s-3.5 -14.834 -3.5 -33.501v-8.5c0 -2.33301 0.333008 -5.16602 1 -8.49902h-91
c-0.666992 4 -1 7.83301 -1 11.5v11.5c0 22.667 1.5 42.167 4.5 58.5s8.66699 29.5 17 39.5s19.833 17.333 34.5 22s33.667 7 57 7s42.333 -1.33301 57 -4s26.167 -8.33398 34.5 -17.001s14 -20.667 17 -36s4.5 -36 4.5 -62c0 -28 -2 -48.333 -6 -61s-10.667 -23 -20 -31
c4.66699 -3.33301 9 -6.66602 13 -9.99902s7.33301 -8.5 10 -15.5s4.66699 -16.333 6 -28s2 -27.167 2 -46.5c0 -23.333 -1.33301 -42.833 -4 -58.5s-8 -28.167 -16 -37.5s-19.833 -16.166 -35.5 -20.499s-36.5 -6.5 -62.5 -6.5c-25.333 0 -45.5 2.66699 -60.5 8
s-26.5 13.5 -34.5 24.5s-13.333 24.667 -16 41s-4 35.833 -4 58.5c0 3.33301 0.166992 7.33301 0.5 12s0.833008 10 1.5 16h91c-0.666992 -3.33301 -1 -6.5 -1 -9.5v-9.5c0 -8 0.166992 -14 0.5 -18s1.16602 -8 2.49902 -12c1.33301 -3.33301 3.33301 -5.66602 6 -6.99902
s7.33398 -2 14.001 -2c9.33301 0 16 2.16699 20 6.5s6 13.166 6 26.499c0 11.333 -0.166992 20.166 -0.5 26.499s-1.5 11.166 -3.5 14.499s-4.66699 5.33301 -8 6s-8 1 -14 1h-49z" />
    <glyph glyph-name="acute" unicode="&#xb4;" horiz-adv-x="300" 
d="M34 592v5l91 168h141v-6l-115 -167h-117z" />
    <glyph glyph-name="paragraph" unicode="&#xb6;" horiz-adv-x="579" 
d="M419 -102v734.001h-83v-734h-126v440h-58c-27.333 0 -49.666 3.66699 -66.999 11s-31.333 19.333 -42 36s-18 38.667 -22 66s-6 60.666 -6 99.999c0 38.667 2 71.167 6 97.5s11.333 47.5 22 63.5s24.667 27.5 42 34.5s39.666 10.5 66.999 10.5h393v-859h-126z" />
    <glyph glyph-name="periodcentered" unicode="&#xb7;" horiz-adv-x="225" 
d="M34 295v151h157v-151h-157z" />
    <glyph glyph-name="cedilla" unicode="&#xb8;" horiz-adv-x="261" 
d="M34 -238v5l57 192h136v-6l-80 -191h-113z" />
    <glyph glyph-name="onesuperior" unicode="&#xb9;" horiz-adv-x="279" 
d="M32 348l-0.000976562 102h59v166h-60v86h42c8 0 14.167 0.833008 18.5 2.5s7.83301 4.66699 10.5 9s4.33398 10.833 5.00098 19.5s1 20 1 34h82v-317h55v-102h-213z" />
    <glyph glyph-name="ordmasculine" unicode="&#xba;" horiz-adv-x="263" 
d="M219 410c-7.33301 -10 -17.833 -17 -31.5 -21s-32.834 -6 -57.501 -6s-43.834 2 -57.501 6s-23.834 11 -30.501 21c-3.33301 4.66699 -6.33301 10 -9 16s-4.83398 14 -6.50098 24s-2.83398 22.667 -3.50098 38s-1 35 -1 59s0.333008 43.5 1 58.5
s1.83398 27.5 3.50098 37.5s3.83398 17.833 6.50098 23.5s5.66699 11.167 9 16.5c6.66699 10 16.834 17 30.501 21s32.834 6 57.501 6s43.834 -2 57.501 -6s24.167 -11 31.5 -21c3.33301 -5.33301 6.16602 -10.833 8.49902 -16.5s4.33301 -13.5 6 -23.5
s2.83398 -22.5 3.50098 -37.5s1 -34.5 1 -58.5s-0.333008 -43.667 -1 -59s-1.83398 -28 -3.50098 -38s-3.66699 -18 -6 -24s-5.16602 -11.333 -8.49902 -16zM144 467c1.33301 2.66699 2.33496 9.33398 3.00195 20.001s1 30.667 1 60v36.5
c0 9.66699 -0.166992 17.334 -0.5 23.001s-0.833008 10 -1.5 13s-1.33398 5.16699 -2.00098 6.5s-1.83398 2.33301 -3.50098 3s-5.16699 1 -10.5 1c-8 0 -12.667 -1.33301 -14 -4c-0.666992 -1.33301 -1.33398 -3.5 -2.00098 -6.5s-1.16699 -7.33301 -1.5 -13
s-0.5 -13.334 -0.5 -23.001v-36.5c0 -29.333 0.333008 -49.333 1 -60s1.66699 -17.334 3 -20.001s6 -4 14 -4c5.33301 0 8.83301 0.333008 10.5 1s2.83398 1.66699 3.50098 3z" />
    <glyph glyph-name="guillemotright" unicode="&#xbb;" horiz-adv-x="466" 
d="M25 182h-5v123l103 70v11l-103 72v124h5l202 -150v-103zM243 182h-5v123l103 70v11l-103 72v124h5l202 -150v-103z" />
    <glyph glyph-name="onequarter" unicode="&#xbc;" horiz-adv-x="619" 
d="M15 348l-0.000976562 102h59v166h-60v86h42c8 0 14.167 0.833008 18.5 2.5s7.83301 4.66699 10.5 9s4.33398 10.833 5.00098 19.5s1 20 1 34h82v-317h55v-102h-213zM48.999 0v5l433 752h97v-5l-434 -752h-96zM483.999 -10v69h-121v85l122 265h90v-264h30v-86h-30v-69h-91
zM486.999 232h-4l-38 -87h42v87z" />
    <glyph glyph-name="onehalf" unicode="&#xbd;" horiz-adv-x="619" 
d="M14 348l-0.000976562 102h59v166h-60v86h42c8 0 14.167 0.833008 18.5 2.5s7.83301 4.66699 10.5 9s4.33398 10.833 5.00098 19.5s1 20 1 34h82v-317h55v-102h-213zM47.999 0v5l433 752h97v-5l-434 -752h-96zM383.999 -10l-0.000976562 101.999l69 68l22.5 21.5
c5.66699 5.66699 10.167 10.5 13.5 14.5s5.83301 7.33301 7.5 10s3.5 6 5.5 10c3.33301 7.33301 5.33301 14.5 6 21.5s1 20.167 1 39.5c0 10 -0.333008 17.833 -1 23.5s-1.66699 10.167 -3 13.5c-1.33301 2 -3 3.66699 -5 5s-5.66699 2 -11 2c-10 0 -16 -2.33301 -18 -7
c-1.33301 -2.66699 -2.16602 -6.66699 -2.49902 -12s-0.5 -14.666 -0.5 -27.999v-17.5c0 -4.33301 0.666992 -8.5 2 -12.5h-92c-1.33301 8.66699 -2 16 -2 22v25c0 22.667 1.33301 42 4 58s8.16699 29 16.5 39s19.833 17.333 34.5 22s34 7 58 7
c22.667 0 41.334 -2 56.001 -6s26.5 -11.167 35.5 -21.5s15.333 -24.5 19 -42.5s5.5 -41 5.5 -69c0 -12 -0.166992 -22 -0.5 -30s-0.833008 -15 -1.5 -21s-1.66699 -11.5 -3 -16.5s-3.33301 -10.5 -6 -16.5c-4.66699 -10 -10.334 -19.667 -17.001 -29
s-17.667 -21.333 -33 -36l-42 -40h100v-99h-218z" />
    <glyph glyph-name="threequarters" unicode="&#xbe;" horiz-adv-x="619" 
d="M84 524v76.001h49c9.33301 0 15.166 2.16699 17.499 6.5s3.5 16.833 3.5 37.5c0 17.333 -1.16699 27.833 -3.5 31.5s-8.16602 5.5 -17.499 5.5c-10 0 -16.167 -1.83301 -18.5 -5.5s-3.5 -14.834 -3.5 -33.501v-8.5c0 -2.33301 0.333008 -5.16602 1 -8.49902h-91
c-0.666992 4 -1 7.83301 -1 11.5v11.5c0 22.667 1.5 42.167 4.5 58.5s8.66699 29.5 17 39.5s19.833 17.333 34.5 22s33.667 7 57 7s42.333 -1.33301 57 -4s26.167 -8.33398 34.5 -17.001s14 -20.667 17 -36s4.5 -36 4.5 -62c0 -28 -2 -48.333 -6 -61s-10.667 -23 -20 -31
c4.66699 -3.33301 9 -6.66602 13 -9.99902s7.33301 -8.5 10 -15.5s4.66699 -16.333 6 -28s2 -27.167 2 -46.5c0 -23.333 -1.33301 -42.833 -4 -58.5s-8 -28.167 -16 -37.5s-19.833 -16.166 -35.5 -20.499s-36.5 -6.5 -62.5 -6.5c-25.333 0 -45.5 2.66699 -60.5 8
s-26.5 13.5 -34.5 24.5s-13.333 24.667 -16 41s-4 35.833 -4 58.5c0 3.33301 0.166992 7.33301 0.5 12s0.833008 10 1.5 16h91c-0.666992 -3.33301 -1 -6.5 -1 -9.5v-9.5c0 -8 0.166992 -14 0.5 -18s1.16602 -8 2.49902 -12c1.33301 -3.33301 3.33301 -5.66602 6 -6.99902
s7.33398 -2 14.001 -2c9.33301 0 16 2.16699 20 6.5s6 13.166 6 26.499c0 11.333 -0.166992 20.166 -0.5 26.499s-1.5 11.166 -3.5 14.499s-4.66699 5.33301 -8 6s-8 1 -14 1h-49zM62 0.000976562v5l433 752h97v-5l-434 -752h-96zM479 -9.99902v69h-121v85l122 265h90v-264
h30v-86h-30v-69h-91zM482 232.001h-4l-38 -87h42v87z" />
    <glyph glyph-name="questiondown" unicode="&#xbf;" horiz-adv-x="416" 
d="M384 38c2.66699 -9.33301 4.50293 -19.9951 5.50293 -31.9951s1.5 -28.333 1.5 -49c0 -32 -3.16699 -58.667 -9.5 -80s-16.666 -38.5 -30.999 -51.5s-33.166 -22.167 -56.499 -27.5s-52 -8 -86 -8c-37.333 0 -68 3.33301 -92 10s-43 17.5 -57 32.5
s-23.833 34.667 -29.5 59s-8.5 54.166 -8.5 89.499c0 26.667 0.5 49.167 1.5 67.5s3 34 6 47s6.83301 24.167 11.5 33.5s11 18.666 19 27.999c12 13.333 23.833 23.666 35.5 30.999s22.167 16 31.5 26c3.33301 3.33301 6.16602 7 8.49902 11s4.16602 10.167 5.49902 18.5
s2.16602 19.5 2.49902 33.5s0.5 32.667 0.5 56h135c1.33301 -11.333 2 -26.166 2 -44.499v-59.5c0 -13.333 -1.33301 -25.333 -4 -36s-6.83398 -20.667 -12.501 -30s-13 -18.333 -22 -27s-19.833 -18 -32.5 -28c-11.333 -8.66699 -20 -15.834 -26 -21.501
s-10.5 -11.834 -13.5 -18.501s-4.83301 -14.834 -5.5 -24.501s-1 -22.5 -1 -38.5c0 -23.333 2.66699 -39.5 8 -48.5s17.666 -13.5 36.999 -13.5s31.833 4.5 37.5 13.5s8.5 25.167 8.5 48.5v19.5c0 3.66699 -0.333008 8.16699 -1 13.5h131zM133.003 409.005v151h157v-151
h-157z" />
    <glyph glyph-name="Agrave" unicode="&#xc0;" horiz-adv-x="445" 
d="M271 0l-13 175h-76l-12 -175h-158l81 757h264l76 -757h-162zM225 599h-11l-25 -271h62zM171 789l-115 167v6h141l91 -168v-5h-117z" />
    <glyph glyph-name="Aacute" unicode="&#xc1;" horiz-adv-x="445" 
d="M271 0l-13 175h-76l-12 -175h-158l81 757h264l76 -757h-162zM225 599h-11l-25 -271h62zM154 789v5l91 168h141v-6l-115 -167h-117z" />
    <glyph glyph-name="Acircumflex" unicode="&#xc2;" horiz-adv-x="445" 
d="M271 0l-13 175h-76l-12 -175h-158l81 757h264l76 -757h-162zM225 599h-11l-25 -271h62zM272 789l-47 69h-11l-47 -69h-123v5l124 168h103l125 -168v-5h-124z" />
    <glyph glyph-name="Atilde" unicode="&#xc3;" horiz-adv-x="445" 
d="M271 0l-13 175h-76l-12 -175h-158l81 757h264l76 -757h-162zM225 599h-11l-25 -271h62zM423 856c-15.333 -21.333 -31.832 -36.832 -49.499 -46.499s-38.5 -14.5 -62.5 -14.5c-17.333 0 -33.833 2.33301 -49.5 7s-31 9.83398 -46 15.501s-29.833 10.834 -44.5 15.501
s-29 7 -43 7c-20.667 0 -38.667 -4.5 -54 -13.5s-30.666 -23.833 -45.999 -44.5h-5v110c10 15.333 23.167 28.833 39.5 40.5s36.5 17.5 60.5 17.5c20 0 38.667 -2.33301 56 -7s33.833 -9.83398 49.5 -15.501s30.667 -10.834 45 -15.501s28.166 -7 41.499 -7
c20.667 0 39.167 4.16699 55.5 12.5s32.166 23.166 47.499 44.499h5v-106z" />
    <glyph glyph-name="Adieresis" unicode="&#xc4;" horiz-adv-x="445" 
d="M271 0l-13 175h-76l-12 -175h-158l81 757h264l76 -757h-162zM225 599h-11l-25 -271h62zM258 810v123h134v-123h-134zM52 810v123h135v-123h-135z" />
    <glyph glyph-name="Aring" unicode="&#xc5;" horiz-adv-x="445" 
d="M271 0l-13 175h-76l-12 -175h-158l81 757h264l76 -757h-162zM225 599h-11l-25 -271h62zM307 790c-6.66699 -6 -16.667 -10 -30 -12s-32 -3 -56 -3c-25.333 0 -44.5 1 -57.5 3s-22.833 6 -29.5 12c-3.33301 2.66699 -6.16602 5.5 -8.49902 8.5
s-4.16602 7.33301 -5.49902 13s-2.33301 12.834 -3 21.501s-1 20.334 -1 35.001s0.333008 26.5 1 35.5s1.66699 16.167 3 21.5s3.16602 9.66602 5.49902 12.999s5.16602 6.33301 8.49902 9c6.66699 5.33301 16.667 9.16602 30 11.499s32.333 3.5 57 3.5
c24 0 42.667 -1.16699 56 -3.5s23.333 -6.16602 30 -11.499c3.33301 -2.66699 6.16602 -5.66699 8.49902 -9s4.33301 -7.66602 6 -12.999s2.83398 -12.5 3.50098 -21.5s1 -20.833 1 -35.5s-0.333008 -26.334 -1 -35.001s-1.83398 -15.834 -3.50098 -21.501
s-3.66699 -10 -6 -13s-5.16602 -5.83301 -8.49902 -8.5zM251 839c2.66699 1.33301 4.49902 3.66699 5.49902 7s1.5 11 1.5 23c0 13.333 -0.5 21.666 -1.5 24.999s-2.83301 6 -5.5 8c-1.33301 1.33301 -4.16602 2.33301 -8.49902 3s-11.5 1 -21.5 1
c-10.667 0 -18 -0.333008 -22 -1s-7.33301 -1.66699 -10 -3s-4.33398 -3.83301 -5.00098 -7.5s-1 -12.167 -1 -25.5c0 -12 0.333008 -19.667 1 -23s2.33398 -5.66602 5.00098 -6.99902s6 -2.33301 10 -3s11.333 -1 22 -1c10 0 17 0.333008 21 1s7 1.66699 9 3z" />
    <glyph glyph-name="AE" unicode="&#xc6;" horiz-adv-x="624" 
d="M259 0v175h-77l-12 -175h-158l81 757h502v-160h-179v-133h176v-153h-176v-143h178v-168h-335zM259 599h-45l-25 -271h70v271z" />
    <glyph glyph-name="Ccedilla" unicode="&#xc7;" horiz-adv-x="452" 
d="M424 290c2 -24 3.00195 -46.6719 3.00195 -68.0049c0 -40 -2.16699 -74.833 -6.5 -104.5s-13.5 -54.167 -27.5 -73.5s-33.833 -33.666 -59.5 -42.999s-59.5 -14 -101.5 -14c-50 0 -88.167 4.5 -114.5 13.5s-45.833 25.167 -58.5 48.5
c-6.66699 10.667 -12.334 23.334 -17.001 38.001s-8.5 34.334 -11.5 59.001s-5.16699 56 -6.5 94s-2 86.333 -2 145s0.666992 106.334 2 143.001s3.5 66.667 6.5 90s6.83301 41.666 11.5 54.999s10.334 25.666 17.001 36.999c13.333 22.667 32.666 38.334 57.999 47.001
s62 13 110 13c42.667 0 77 -4 103 -12s46 -21 60 -39s23.333 -41.167 28 -69.5s7 -62.5 7 -102.5c0 -9.33301 -0.166992 -19.666 -0.5 -30.999s-0.833008 -23.333 -1.5 -36h-147c0 20 -0.166992 36.667 -0.5 50s-0.833008 24.333 -1.5 33s-1.5 15.5 -2.5 20.5l-2.5 12.5
c-2.66699 12.667 -16.667 19 -42 19c-12.667 0 -21.834 -1.5 -27.501 -4.5s-9.5 -7.83301 -11.5 -14.5c-2 -5.33301 -3.5 -11.5 -4.5 -18.5s-2 -17.667 -3 -32s-1.66699 -34.166 -2 -59.499s-0.5 -58.333 -0.5 -99c0 -42 0.166992 -75.667 0.5 -101s1 -45.333 2 -60
s2 -25.667 3 -33s2.5 -13.666 4.5 -18.999c2 -6.66699 6 -11.334 12 -14.001s16.667 -4 32 -4c20 0 32 5.66699 36 17c2.66699 6.66699 4.66699 13.667 6 21s2.33301 15.5 3 24.5s1.16699 19.333 1.5 31s0.5 25.167 0.5 40.5h145zM97.002 -238.005v5l57 192h136v-6l-80 -191
h-113z" />
    <glyph glyph-name="Egrave" unicode="&#xc8;" horiz-adv-x="398" 
d="M34 0v757h335v-160h-178v-133h175v-153h-175v-143h177v-168h-334zM153 789l-115 167v6h141l91 -168v-5h-117z" />
    <glyph glyph-name="Eacute" unicode="&#xc9;" horiz-adv-x="398" 
d="M34 0v757h335v-160h-178v-133h175v-153h-175v-143h177v-168h-334zM139 789v5l91 168h141v-6l-115 -167h-117z" />
    <glyph glyph-name="Ecircumflex" unicode="&#xca;" horiz-adv-x="398" 
d="M34 0v757h335v-160h-178v-133h175v-153h-175v-143h177v-168h-334zM255 789l-47 69h-11l-47 -69h-123v5l124 168h103l125 -168v-5h-124z" />
    <glyph glyph-name="Edieresis" unicode="&#xcb;" horiz-adv-x="398" 
d="M34 0v757h335v-160h-178v-133h175v-153h-175v-143h177v-168h-334zM239 810v123h134v-123h-134zM33 810v123h135v-123h-135z" />
    <glyph glyph-name="Igrave" unicode="&#xcc;" horiz-adv-x="233" 
d="M36 0v757h161v-757h-161zM66 789l-115 167v6h141l91 -168v-5h-117z" />
    <glyph glyph-name="Iacute" unicode="&#xcd;" horiz-adv-x="233" 
d="M36 0v757h161v-757h-161zM50 789v5l91 168h141v-6l-115 -167h-117z" />
    <glyph glyph-name="Icircumflex" unicode="&#xce;" horiz-adv-x="233" 
d="M36 0v757h161v-757h-161zM169 789l-47 69h-11l-47 -69h-123v5l124 168h103l125 -168v-5h-124z" />
    <glyph glyph-name="Idieresis" unicode="&#xcf;" horiz-adv-x="233" 
d="M36 0v757h161v-757h-161zM153 810v123h134v-123h-134zM-53 810v123h135v-123h-135z" />
    <glyph glyph-name="Eth" unicode="&#xd0;" horiz-adv-x="471" 
d="M34 0v311h-34v153h34v293h211c48 0 84.667 -4.5 110 -13.5s44.666 -24.5 57.999 -46.5c6.66699 -11.333 12.167 -23.5 16.5 -36.5s8 -30.833 11 -53.5s5.16699 -52 6.5 -88s2 -82.667 2 -140s-0.666992 -104.166 -2 -140.499s-3.5 -65.833 -6.5 -88.5
s-6.66699 -40.667 -11 -54s-9.83301 -25.333 -16.5 -36c-6.66699 -11.333 -14.667 -20.833 -24 -28.5s-20.666 -13.834 -33.999 -18.501s-29 -8 -47 -10s-39 -3 -63 -3h-211zM244 167c12.667 0 21.667 1.33008 27 3.99707s9.33301 7.33398 12 14.001
c1.33301 4.66699 2.66602 10.167 3.99902 16.5s2.33301 16.5 3 30.5s1.16699 32.833 1.5 56.5s0.5 54.834 0.5 93.501s-0.166992 70.167 -0.5 94.5s-0.833008 43.5 -1.5 57.5s-1.66699 24.333 -3 31s-2.66602 12.334 -3.99902 17.001
c-2.66699 5.33301 -6.66699 9.33301 -12 12s-14.333 4 -27 4h-61v-134h69v-153h-69v-144h61z" />
    <glyph glyph-name="Ntilde" unicode="&#xd1;" horiz-adv-x="475" 
d="M361 0l-179 406h-6v-406h-143v757h154l106 -263h6v263h144v-757h-82zM437 856c-15.333 -21.333 -31.832 -36.832 -49.499 -46.499s-38.5 -14.5 -62.5 -14.5c-17.333 0 -33.833 2.33301 -49.5 7s-31 9.83398 -46 15.501s-29.833 10.834 -44.5 15.501s-29 7 -43 7
c-20.667 0 -38.667 -4.5 -54 -13.5s-30.666 -23.833 -45.999 -44.5h-5v110c10 15.333 23.167 28.833 39.5 40.5s36.5 17.5 60.5 17.5c20 0 38.667 -2.33301 56 -7s33.833 -9.83398 49.5 -15.501s30.667 -10.834 45 -15.501s28.166 -7 41.499 -7
c20.667 0 39.167 4.16699 55.5 12.5s32.166 23.166 47.499 44.499h5v-106z" />
    <glyph glyph-name="Ograve" unicode="&#xd2;" 
d="M394 49c-6.66699 -12 -14.499 -21.833 -23.499 -29.5s-20.167 -14 -33.5 -19s-29 -8.5 -47 -10.5s-39 -3 -63 -3c-48.667 0 -85.5 4.5 -110.5 13.5s-44.167 25.167 -57.5 48.5c-6.66699 11.333 -12.334 23.833 -17.001 37.5s-8.5 32.167 -11.5 55.5
s-5.16699 53.833 -6.5 91.5s-2 86.167 -2 145.5s0.666992 107.666 2 144.999s3.5 67.666 6.5 90.999s6.83301 41.666 11.5 54.999s10.334 26 17.001 38c6.66699 11.333 14.5 21 23.5 29s20.167 14.5 33.5 19.5s29.166 8.5 47.499 10.5s39.5 3 63.5 3
c48 0 84.5 -4.66699 109.5 -14s44.167 -25.333 57.5 -48c6.66699 -12 12.334 -24.667 17.001 -38s8.5 -31.666 11.5 -54.999s5.16699 -53.666 6.5 -90.999s2 -85.666 2 -144.999s-0.666992 -107.833 -2 -145.5s-3.5 -68.167 -6.5 -91.5s-6.83301 -41.833 -11.5 -55.5
s-10.334 -26.167 -17.001 -37.5zM266.001 174c1.33301 4.66699 2.66602 10.667 3.99902 18s2.33301 18.333 3 33s1.16699 34.5 1.5 59.5s0.5 57.833 0.5 98.5c0 42 -0.166992 75.667 -0.5 101s-0.833008 45.5 -1.5 60.5s-1.66699 26.167 -3 33.5
s-2.66602 13.333 -3.99902 18c-2.66699 6.66699 -6.66699 11.5 -12 14.5s-14.333 4.5 -27 4.5s-21.834 -1.5 -27.501 -4.5s-9.5 -7.83301 -11.5 -14.5c-2 -4.66699 -3.5 -10.667 -4.5 -18s-2 -18.5 -3 -33.5s-1.66699 -35.167 -2 -60.5s-0.5 -59 -0.5 -101
c0 -40.667 0.166992 -73.5 0.5 -98.5s1 -44.833 2 -59.5s2 -25.667 3 -33s2.5 -13.333 4.5 -18c2 -6.66699 5.83301 -11.334 11.5 -14.001s14.834 -4 27.501 -4s21.667 1.33301 27 4s9.33301 7.33398 12 14.001zM175.001 789l-115 167v6h141l91 -168v-5h-117z" />
    <glyph glyph-name="Oacute" unicode="&#xd3;" 
d="M394 49c-6.66699 -12 -14.499 -21.833 -23.499 -29.5s-20.167 -14 -33.5 -19s-29 -8.5 -47 -10.5s-39 -3 -63 -3c-48.667 0 -85.5 4.5 -110.5 13.5s-44.167 25.167 -57.5 48.5c-6.66699 11.333 -12.334 23.833 -17.001 37.5s-8.5 32.167 -11.5 55.5
s-5.16699 53.833 -6.5 91.5s-2 86.167 -2 145.5s0.666992 107.666 2 144.999s3.5 67.666 6.5 90.999s6.83301 41.666 11.5 54.999s10.334 26 17.001 38c6.66699 11.333 14.5 21 23.5 29s20.167 14.5 33.5 19.5s29.166 8.5 47.499 10.5s39.5 3 63.5 3
c48 0 84.5 -4.66699 109.5 -14s44.167 -25.333 57.5 -48c6.66699 -12 12.334 -24.667 17.001 -38s8.5 -31.666 11.5 -54.999s5.16699 -53.666 6.5 -90.999s2 -85.666 2 -144.999s-0.666992 -107.833 -2 -145.5s-3.5 -68.167 -6.5 -91.5s-6.83301 -41.833 -11.5 -55.5
s-10.334 -26.167 -17.001 -37.5zM266.001 174c1.33301 4.66699 2.66602 10.667 3.99902 18s2.33301 18.333 3 33s1.16699 34.5 1.5 59.5s0.5 57.833 0.5 98.5c0 42 -0.166992 75.667 -0.5 101s-0.833008 45.5 -1.5 60.5s-1.66699 26.167 -3 33.5
s-2.66602 13.333 -3.99902 18c-2.66699 6.66699 -6.66699 11.5 -12 14.5s-14.333 4.5 -27 4.5s-21.834 -1.5 -27.501 -4.5s-9.5 -7.83301 -11.5 -14.5c-2 -4.66699 -3.5 -10.667 -4.5 -18s-2 -18.5 -3 -33.5s-1.66699 -35.167 -2 -60.5s-0.5 -59 -0.5 -101
c0 -40.667 0.166992 -73.5 0.5 -98.5s1 -44.833 2 -59.5s2 -25.667 3 -33s2.5 -13.333 4.5 -18c2 -6.66699 5.83301 -11.334 11.5 -14.001s14.834 -4 27.501 -4s21.667 1.33301 27 4s9.33301 7.33398 12 14.001zM160.001 789v5l91 168h141v-6l-115 -167h-117z" />
    <glyph glyph-name="Ocircumflex" unicode="&#xd4;" 
d="M394 49c-6.66699 -12 -14.499 -21.833 -23.499 -29.5s-20.167 -14 -33.5 -19s-29 -8.5 -47 -10.5s-39 -3 -63 -3c-48.667 0 -85.5 4.5 -110.5 13.5s-44.167 25.167 -57.5 48.5c-6.66699 11.333 -12.334 23.833 -17.001 37.5s-8.5 32.167 -11.5 55.5
s-5.16699 53.833 -6.5 91.5s-2 86.167 -2 145.5s0.666992 107.666 2 144.999s3.5 67.666 6.5 90.999s6.83301 41.666 11.5 54.999s10.334 26 17.001 38c6.66699 11.333 14.5 21 23.5 29s20.167 14.5 33.5 19.5s29.166 8.5 47.499 10.5s39.5 3 63.5 3
c48 0 84.5 -4.66699 109.5 -14s44.167 -25.333 57.5 -48c6.66699 -12 12.334 -24.667 17.001 -38s8.5 -31.666 11.5 -54.999s5.16699 -53.666 6.5 -90.999s2 -85.666 2 -144.999s-0.666992 -107.833 -2 -145.5s-3.5 -68.167 -6.5 -91.5s-6.83301 -41.833 -11.5 -55.5
s-10.334 -26.167 -17.001 -37.5zM266.001 174c1.33301 4.66699 2.66602 10.667 3.99902 18s2.33301 18.333 3 33s1.16699 34.5 1.5 59.5s0.5 57.833 0.5 98.5c0 42 -0.166992 75.667 -0.5 101s-0.833008 45.5 -1.5 60.5s-1.66699 26.167 -3 33.5
s-2.66602 13.333 -3.99902 18c-2.66699 6.66699 -6.66699 11.5 -12 14.5s-14.333 4.5 -27 4.5s-21.834 -1.5 -27.501 -4.5s-9.5 -7.83301 -11.5 -14.5c-2 -4.66699 -3.5 -10.667 -4.5 -18s-2 -18.5 -3 -33.5s-1.66699 -35.167 -2 -60.5s-0.5 -59 -0.5 -101
c0 -40.667 0.166992 -73.5 0.5 -98.5s1 -44.833 2 -59.5s2 -25.667 3 -33s2.5 -13.333 4.5 -18c2 -6.66699 5.83301 -11.334 11.5 -14.001s14.834 -4 27.501 -4s21.667 1.33301 27 4s9.33301 7.33398 12 14.001zM278.001 789l-47 69h-11l-47 -69h-123v5l124 168h103
l125 -168v-5h-124z" />
    <glyph glyph-name="Otilde" unicode="&#xd5;" 
d="M394 49c-6.66699 -12 -14.499 -21.833 -23.499 -29.5s-20.167 -14 -33.5 -19s-29 -8.5 -47 -10.5s-39 -3 -63 -3c-48.667 0 -85.5 4.5 -110.5 13.5s-44.167 25.167 -57.5 48.5c-6.66699 11.333 -12.334 23.833 -17.001 37.5s-8.5 32.167 -11.5 55.5
s-5.16699 53.833 -6.5 91.5s-2 86.167 -2 145.5s0.666992 107.666 2 144.999s3.5 67.666 6.5 90.999s6.83301 41.666 11.5 54.999s10.334 26 17.001 38c6.66699 11.333 14.5 21 23.5 29s20.167 14.5 33.5 19.5s29.166 8.5 47.499 10.5s39.5 3 63.5 3
c48 0 84.5 -4.66699 109.5 -14s44.167 -25.333 57.5 -48c6.66699 -12 12.334 -24.667 17.001 -38s8.5 -31.666 11.5 -54.999s5.16699 -53.666 6.5 -90.999s2 -85.666 2 -144.999s-0.666992 -107.833 -2 -145.5s-3.5 -68.167 -6.5 -91.5s-6.83301 -41.833 -11.5 -55.5
s-10.334 -26.167 -17.001 -37.5zM266.001 174c1.33301 4.66699 2.66602 10.667 3.99902 18s2.33301 18.333 3 33s1.16699 34.5 1.5 59.5s0.5 57.833 0.5 98.5c0 42 -0.166992 75.667 -0.5 101s-0.833008 45.5 -1.5 60.5s-1.66699 26.167 -3 33.5
s-2.66602 13.333 -3.99902 18c-2.66699 6.66699 -6.66699 11.5 -12 14.5s-14.333 4.5 -27 4.5s-21.834 -1.5 -27.501 -4.5s-9.5 -7.83301 -11.5 -14.5c-2 -4.66699 -3.5 -10.667 -4.5 -18s-2 -18.5 -3 -33.5s-1.66699 -35.167 -2 -60.5s-0.5 -59 -0.5 -101
c0 -40.667 0.166992 -73.5 0.5 -98.5s1 -44.833 2 -59.5s2 -25.667 3 -33s2.5 -13.333 4.5 -18c2 -6.66699 5.83301 -11.334 11.5 -14.001s14.834 -4 27.501 -4s21.667 1.33301 27 4s9.33301 7.33398 12 14.001zM427.001 856
c-15.333 -21.333 -31.832 -36.832 -49.499 -46.499s-38.5 -14.5 -62.5 -14.5c-17.333 0 -33.833 2.33301 -49.5 7s-31 9.83398 -46 15.501s-29.833 10.834 -44.5 15.501s-29 7 -43 7c-20.667 0 -38.667 -4.5 -54 -13.5s-30.666 -23.833 -45.999 -44.5h-5v110
c10 15.333 23.167 28.833 39.5 40.5s36.5 17.5 60.5 17.5c20 0 38.667 -2.33301 56 -7s33.833 -9.83398 49.5 -15.501s30.667 -10.834 45 -15.501s28.166 -7 41.499 -7c20.667 0 39.167 4.16699 55.5 12.5s32.166 23.166 47.499 44.499h5v-106z" />
    <glyph glyph-name="Odieresis" unicode="&#xd6;" 
d="M394 49c-6.66699 -12 -14.499 -21.833 -23.499 -29.5s-20.167 -14 -33.5 -19s-29 -8.5 -47 -10.5s-39 -3 -63 -3c-48.667 0 -85.5 4.5 -110.5 13.5s-44.167 25.167 -57.5 48.5c-6.66699 11.333 -12.334 23.833 -17.001 37.5s-8.5 32.167 -11.5 55.5
s-5.16699 53.833 -6.5 91.5s-2 86.167 -2 145.5s0.666992 107.666 2 144.999s3.5 67.666 6.5 90.999s6.83301 41.666 11.5 54.999s10.334 26 17.001 38c6.66699 11.333 14.5 21 23.5 29s20.167 14.5 33.5 19.5s29.166 8.5 47.499 10.5s39.5 3 63.5 3
c48 0 84.5 -4.66699 109.5 -14s44.167 -25.333 57.5 -48c6.66699 -12 12.334 -24.667 17.001 -38s8.5 -31.666 11.5 -54.999s5.16699 -53.666 6.5 -90.999s2 -85.666 2 -144.999s-0.666992 -107.833 -2 -145.5s-3.5 -68.167 -6.5 -91.5s-6.83301 -41.833 -11.5 -55.5
s-10.334 -26.167 -17.001 -37.5zM266.001 174c1.33301 4.66699 2.66602 10.667 3.99902 18s2.33301 18.333 3 33s1.16699 34.5 1.5 59.5s0.5 57.833 0.5 98.5c0 42 -0.166992 75.667 -0.5 101s-0.833008 45.5 -1.5 60.5s-1.66699 26.167 -3 33.5
s-2.66602 13.333 -3.99902 18c-2.66699 6.66699 -6.66699 11.5 -12 14.5s-14.333 4.5 -27 4.5s-21.834 -1.5 -27.501 -4.5s-9.5 -7.83301 -11.5 -14.5c-2 -4.66699 -3.5 -10.667 -4.5 -18s-2 -18.5 -3 -33.5s-1.66699 -35.167 -2 -60.5s-0.5 -59 -0.5 -101
c0 -40.667 0.166992 -73.5 0.5 -98.5s1 -44.833 2 -59.5s2 -25.667 3 -33s2.5 -13.333 4.5 -18c2 -6.66699 5.83301 -11.334 11.5 -14.001s14.834 -4 27.501 -4s21.667 1.33301 27 4s9.33301 7.33398 12 14.001zM262.001 810v123h134v-123h-134zM56.001 810v123h135v-123
h-135z" />
    <glyph glyph-name="multiply" unicode="&#xd7;" 
d="M342 181l-116 115l-116 -115l-83 82l116 117l-115 114l83 84l115 -116l115 116l83 -84l-115 -114l117 -117z" />
    <glyph glyph-name="Oslash" unicode="&#xd8;" 
d="M31 -130l46.001 154c-3.33301 3.33301 -6.5 7 -9.5 11s-5.83301 8.66699 -8.5 14c-6.66699 11.333 -12.334 23.833 -17.001 37.5s-8.5 32.167 -11.5 55.5s-5.16699 53.833 -6.5 91.5s-2 86.167 -2 145.5s0.666992 107.666 2 144.999s3.5 67.666 6.5 90.999
s6.83301 41.666 11.5 54.999s10.334 26 17.001 38c6.66699 11.333 14.5 21 23.5 29s20.167 14.5 33.5 19.5s29.166 8.5 47.499 10.5s39.5 3 63.5 3c15.333 0 29.666 -0.5 42.999 -1.5s25.666 -2.16699 36.999 -3.5l27 88h73l-36 -117c8.66699 -8 16.334 -17.333 23.001 -28
c6.66699 -12 12.334 -24.667 17.001 -38s8.5 -31.666 11.5 -54.999s5.16699 -53.666 6.5 -90.999s2 -85.666 2 -144.999s-0.666992 -107.833 -2 -145.5s-3.5 -68.167 -6.5 -91.5s-6.83301 -41.833 -11.5 -55.5s-10.334 -26.167 -17.001 -37.5
c-6.66699 -12 -14.5 -21.833 -23.5 -29.5s-20.167 -14 -33.5 -19s-29 -8.5 -47 -10.5s-39 -3 -63 -3c-35.333 0 -63.666 2.33301 -84.999 7l-38 -124h-73zM286.001 466l-94.999 -311.999c7.33301 -3.33301 19.333 -5 36 -5c15.333 0 26.666 1.5 33.999 4.5
s12.333 7.83301 15 14.5c2 4.66699 3.66699 10.5 5 17.5s2.5 16.167 3.5 27.5s1.66699 26 2 44s0.5 40.667 0.5 68v55.5c0 15 0.166992 27.667 0.5 38s0.833008 19.166 1.5 26.499l2 21h-5zM260.002 617.001c-3.33301 1.33301 -7.83301 2.33398 -13.5 3.00098
s-12.167 1 -19.5 1c-16 0 -27.667 -1.33301 -35 -4s-12.333 -7.33398 -15 -14.001c-2 -5.33301 -3.83301 -11.333 -5.5 -18s-3 -15.5 -4 -26.5s-1.66699 -25 -2 -42s-0.5 -37.833 -0.5 -62.5v-60c0 -16 -0.166992 -29.5 -0.5 -40.5s-0.833008 -20 -1.5 -27l-2 -20.5h5z" />
    <glyph glyph-name="Ugrave" unicode="&#xd9;" horiz-adv-x="462" 
d="M279 757h156v-524c-0.666992 -31.333 -2 -57.333 -4 -78s-4.5 -38 -7.5 -52s-6.5 -25.5 -10.5 -34.5s-8.66699 -17.833 -14 -26.5c-6.66699 -10.667 -14.5 -19.5 -23.5 -26.5s-20.167 -12.667 -33.5 -17s-29 -7.33301 -47 -9s-39 -2.5 -63 -2.5
c-48.667 0 -85.667 3.83301 -111 11.5s-44.333 22.167 -57 43.5c-5.33301 8.66699 -10.333 17.5 -15 26.5s-8.66699 20.5 -12 34.5s-5.83301 31.333 -7.5 52s-2.5 46.667 -2.5 78v524h161v-524c0 -18 0.5 -32 1.5 -42s3.16699 -17.667 6.5 -23s8 -8.66602 14 -9.99902
s14 -2 24 -2s17.833 0.666992 23.5 2s10.167 4.66602 13.5 9.99902s5.5 13 6.5 23s1.5 24 1.5 42v524zM181 789l-115 167v6h141l91 -168v-5h-117z" />
    <glyph glyph-name="Uacute" unicode="&#xda;" horiz-adv-x="462" 
d="M279 757h156v-524c-0.666992 -31.333 -2 -57.333 -4 -78s-4.5 -38 -7.5 -52s-6.5 -25.5 -10.5 -34.5s-8.66699 -17.833 -14 -26.5c-6.66699 -10.667 -14.5 -19.5 -23.5 -26.5s-20.167 -12.667 -33.5 -17s-29 -7.33301 -47 -9s-39 -2.5 -63 -2.5
c-48.667 0 -85.667 3.83301 -111 11.5s-44.333 22.167 -57 43.5c-5.33301 8.66699 -10.333 17.5 -15 26.5s-8.66699 20.5 -12 34.5s-5.83301 31.333 -7.5 52s-2.5 46.667 -2.5 78v524h161v-524c0 -18 0.5 -32 1.5 -42s3.16699 -17.667 6.5 -23s8 -8.66602 14 -9.99902
s14 -2 24 -2s17.833 0.666992 23.5 2s10.167 4.66602 13.5 9.99902s5.5 13 6.5 23s1.5 24 1.5 42v524zM165 789v5l91 168h141v-6l-115 -167h-117z" />
    <glyph glyph-name="Ucircumflex" unicode="&#xdb;" horiz-adv-x="462" 
d="M279 757h156v-524c-0.666992 -31.333 -2 -57.333 -4 -78s-4.5 -38 -7.5 -52s-6.5 -25.5 -10.5 -34.5s-8.66699 -17.833 -14 -26.5c-6.66699 -10.667 -14.5 -19.5 -23.5 -26.5s-20.167 -12.667 -33.5 -17s-29 -7.33301 -47 -9s-39 -2.5 -63 -2.5
c-48.667 0 -85.667 3.83301 -111 11.5s-44.333 22.167 -57 43.5c-5.33301 8.66699 -10.333 17.5 -15 26.5s-8.66699 20.5 -12 34.5s-5.83301 31.333 -7.5 52s-2.5 46.667 -2.5 78v524h161v-524c0 -18 0.5 -32 1.5 -42s3.16699 -17.667 6.5 -23s8 -8.66602 14 -9.99902
s14 -2 24 -2s17.833 0.666992 23.5 2s10.167 4.66602 13.5 9.99902s5.5 13 6.5 23s1.5 24 1.5 42v524zM283 789l-47 69h-11l-47 -69h-123v5l124 168h103l125 -168v-5h-124z" />
    <glyph glyph-name="Udieresis" unicode="&#xdc;" horiz-adv-x="462" 
d="M279 757h156v-524c-0.666992 -31.333 -2 -57.333 -4 -78s-4.5 -38 -7.5 -52s-6.5 -25.5 -10.5 -34.5s-8.66699 -17.833 -14 -26.5c-6.66699 -10.667 -14.5 -19.5 -23.5 -26.5s-20.167 -12.667 -33.5 -17s-29 -7.33301 -47 -9s-39 -2.5 -63 -2.5
c-48.667 0 -85.667 3.83301 -111 11.5s-44.333 22.167 -57 43.5c-5.33301 8.66699 -10.333 17.5 -15 26.5s-8.66699 20.5 -12 34.5s-5.83301 31.333 -7.5 52s-2.5 46.667 -2.5 78v524h161v-524c0 -18 0.5 -32 1.5 -42s3.16699 -17.667 6.5 -23s8 -8.66602 14 -9.99902
s14 -2 24 -2s17.833 0.666992 23.5 2s10.167 4.66602 13.5 9.99902s5.5 13 6.5 23s1.5 24 1.5 42v524zM267 810v123h134v-123h-134zM61 810v123h135v-123h-135z" />
    <glyph glyph-name="Yacute" unicode="&#xdd;" horiz-adv-x="447" 
d="M142 0l-0.000976562 276l-138 476v5h162l25.5 -113.5l15 -68l8.5 -38.5c2 -8.66699 3.66699 -17 5 -25h10c1.33301 8 3 16.333 5 25l8.5 38.5c3.66699 17 8.83398 39.667 15.501 68l27 113.5h157v-5l-132 -474v-278h-169zM157.999 789v5l91 168h141v-6l-115 -167h-117z
" />
    <glyph glyph-name="Thorn" unicode="&#xde;" horiz-adv-x="451" 
d="M34 0v756.996h157v-116h70c34 0 62 -4.5 84 -13.5s39.5 -23.667 52.5 -44s22 -47.166 27 -80.499s7.5 -74.333 7.5 -123c0 -49.333 -2.5 -91.166 -7.5 -125.499s-14 -62.166 -27 -83.499s-30.5 -36.666 -52.5 -45.999s-50 -14 -84 -14h-70v-111h-157zM233 266.996
c14.667 0 25 8.16797 31 24.501s9 47.166 9 92.499c0 40 -3.5 66.5 -10.5 79.5s-18.167 19.5 -33.5 19.5h-38v-216h42z" />
    <glyph glyph-name="germandbls" unicode="&#xdf;" horiz-adv-x="654" 
d="M67 0l0.00195312 591.001c0 26 2.33301 50.833 7 74.5s13.334 43.5 26.001 59.5c12.667 16.667 31.5 28.5 56.5 35.5s63.167 10.5 114.5 10.5c24.667 0 46 -0.833008 64 -2.5s33.333 -4.33398 46 -8.00098s23.167 -8.5 31.5 -14.5s15.5 -13.333 21.5 -22
c11.333 -16 18.666 -36 21.999 -60s5 -48.667 5 -74v-44c0 -8 0.166992 -14.333 0.5 -19s1.5 -8.66699 3.5 -12s4.83301 -6.16602 8.5 -8.49902s8.5 -5.16602 14.5 -8.49902c23.333 -12.667 42.666 -22.5 57.999 -29.5s29 -15.167 41 -24.5
c9.33301 -7.33301 16.833 -15 22.5 -23s10.167 -18.5 13.5 -31.5s5.66602 -29.333 6.99902 -49s2 -44.5 2 -74.5c0 -38 -0.833008 -70.333 -2.5 -97s-3.83398 -49 -6.50098 -67s-6.16699 -32.333 -10.5 -43s-8.83301 -19.334 -13.5 -26.001
c-12.667 -17.333 -32 -29.333 -58 -36s-60 -10 -102 -10s-73.167 3.5 -93.5 10.5s-36.166 19.167 -47.499 36.5c-6.66699 10 -12 21.167 -16 33.5s-7 24.5 -9 36.5s-3.33301 23.667 -4 35s-1 21 -1 29c0 7.33301 0.166992 14.833 0.5 22.5s1.16602 15.5 2.49902 23.5h128
v-13c0 -33.333 2.33301 -54.333 7 -63c3.33301 -7.33301 15.666 -11 36.999 -11c11.333 0 19.5 0.833008 24.5 2.5s8.5 4.5 10.5 8.5c2.66699 5.33301 4.83398 15.5 6.50098 30.5s2.5 42.167 2.5 81.5c0 16 -0.166992 28.667 -0.5 38s-1.5 16.833 -3.5 22.5
s-4.66699 10 -8 13s-8 6.5 -14 10.5c-21.333 13.333 -41.666 25.333 -60.999 36s-35.666 22.334 -48.999 35.001c-8 7.33301 -14.167 15 -18.5 23s-7.83301 17.5 -10.5 28.5s-4.33398 24.167 -5.00098 39.5s-1 34 -1 56v30c0 24 -2.5 40 -7.5 48s-17.833 12 -38.5 12
c-10.667 0 -19 -0.833008 -25 -2.5s-10.5 -4.83398 -13.5 -9.50098s-5 -10.834 -6 -18.501s-1.5 -17.5 -1.5 -29.5v-582h-157z" />
    <glyph glyph-name="agrave" unicode="&#xe0;" horiz-adv-x="445" 
d="M271 0l-13 175h-76l-12 -175h-158l81 757h264l76 -757h-162zM225 599h-11l-25 -271h62zM171 789l-115 167v6h141l91 -168v-5h-117z" />
    <glyph glyph-name="aacute" unicode="&#xe1;" horiz-adv-x="445" 
d="M271 0l-13 175h-76l-12 -175h-158l81 757h264l76 -757h-162zM225 599h-11l-25 -271h62zM154 789v5l91 168h141v-6l-115 -167h-117z" />
    <glyph glyph-name="acircumflex" unicode="&#xe2;" horiz-adv-x="445" 
d="M271 0l-13 175h-76l-12 -175h-158l81 757h264l76 -757h-162zM225 599h-11l-25 -271h62zM272 789l-47 69h-11l-47 -69h-123v5l124 168h103l125 -168v-5h-124z" />
    <glyph glyph-name="atilde" unicode="&#xe3;" horiz-adv-x="445" 
d="M271 0l-13 175h-76l-12 -175h-158l81 757h264l76 -757h-162zM225 599h-11l-25 -271h62zM423 856c-15.333 -21.333 -31.832 -36.832 -49.499 -46.499s-38.5 -14.5 -62.5 -14.5c-17.333 0 -33.833 2.33301 -49.5 7s-31 9.83398 -46 15.501s-29.833 10.834 -44.5 15.501
s-29 7 -43 7c-20.667 0 -38.667 -4.5 -54 -13.5s-30.666 -23.833 -45.999 -44.5h-5v110c10 15.333 23.167 28.833 39.5 40.5s36.5 17.5 60.5 17.5c20 0 38.667 -2.33301 56 -7s33.833 -9.83398 49.5 -15.501s30.667 -10.834 45 -15.501s28.166 -7 41.499 -7
c20.667 0 39.167 4.16699 55.5 12.5s32.166 23.166 47.499 44.499h5v-106z" />
    <glyph glyph-name="adieresis" unicode="&#xe4;" horiz-adv-x="445" 
d="M271 0l-13 175h-76l-12 -175h-158l81 757h264l76 -757h-162zM225 599h-11l-25 -271h62zM258 810v123h134v-123h-134zM52 810v123h135v-123h-135z" />
    <glyph glyph-name="aring" unicode="&#xe5;" horiz-adv-x="445" 
d="M271 0l-13 175h-76l-12 -175h-158l81 757h264l76 -757h-162zM225 599h-11l-25 -271h62zM307 790c-6.66699 -6 -16.667 -10 -30 -12s-32 -3 -56 -3c-25.333 0 -44.5 1 -57.5 3s-22.833 6 -29.5 12c-3.33301 2.66699 -6.16602 5.5 -8.49902 8.5
s-4.16602 7.33301 -5.49902 13s-2.33301 12.834 -3 21.501s-1 20.334 -1 35.001s0.333008 26.5 1 35.5s1.66699 16.167 3 21.5s3.16602 9.66602 5.49902 12.999s5.16602 6.33301 8.49902 9c6.66699 5.33301 16.667 9.16602 30 11.499s32.333 3.5 57 3.5
c24 0 42.667 -1.16699 56 -3.5s23.333 -6.16602 30 -11.499c3.33301 -2.66699 6.16602 -5.66699 8.49902 -9s4.33301 -7.66602 6 -12.999s2.83398 -12.5 3.50098 -21.5s1 -20.833 1 -35.5s-0.333008 -26.334 -1 -35.001s-1.83398 -15.834 -3.50098 -21.501
s-3.66699 -10 -6 -13s-5.16602 -5.83301 -8.49902 -8.5zM251 839c2.66699 1.33301 4.49902 3.66699 5.49902 7s1.5 11 1.5 23c0 13.333 -0.5 21.666 -1.5 24.999s-2.83301 6 -5.5 8c-1.33301 1.33301 -4.16602 2.33301 -8.49902 3s-11.5 1 -21.5 1
c-10.667 0 -18 -0.333008 -22 -1s-7.33301 -1.66699 -10 -3s-4.33398 -3.83301 -5.00098 -7.5s-1 -12.167 -1 -25.5c0 -12 0.333008 -19.667 1 -23s2.33398 -5.66602 5.00098 -6.99902s6 -2.33301 10 -3s11.333 -1 22 -1c10 0 17 0.333008 21 1s7 1.66699 9 3z" />
    <glyph glyph-name="ae" unicode="&#xe6;" horiz-adv-x="624" 
d="M259 0v175h-77l-12 -175h-158l81 757h502v-160h-179v-133h176v-153h-176v-143h178v-168h-335zM259 599h-45l-25 -271h70v271z" />
    <glyph glyph-name="ccedilla" unicode="&#xe7;" horiz-adv-x="452" 
d="M424 290c2 -24 3.00195 -46.6719 3.00195 -68.0049c0 -40 -2.16699 -74.833 -6.5 -104.5s-13.5 -54.167 -27.5 -73.5s-33.833 -33.666 -59.5 -42.999s-59.5 -14 -101.5 -14c-50 0 -88.167 4.5 -114.5 13.5s-45.833 25.167 -58.5 48.5
c-6.66699 10.667 -12.334 23.334 -17.001 38.001s-8.5 34.334 -11.5 59.001s-5.16699 56 -6.5 94s-2 86.333 -2 145s0.666992 106.334 2 143.001s3.5 66.667 6.5 90s6.83301 41.666 11.5 54.999s10.334 25.666 17.001 36.999c13.333 22.667 32.666 38.334 57.999 47.001
s62 13 110 13c42.667 0 77 -4 103 -12s46 -21 60 -39s23.333 -41.167 28 -69.5s7 -62.5 7 -102.5c0 -9.33301 -0.166992 -19.666 -0.5 -30.999s-0.833008 -23.333 -1.5 -36h-147c0 20 -0.166992 36.667 -0.5 50s-0.833008 24.333 -1.5 33s-1.5 15.5 -2.5 20.5l-2.5 12.5
c-2.66699 12.667 -16.667 19 -42 19c-12.667 0 -21.834 -1.5 -27.501 -4.5s-9.5 -7.83301 -11.5 -14.5c-2 -5.33301 -3.5 -11.5 -4.5 -18.5s-2 -17.667 -3 -32s-1.66699 -34.166 -2 -59.499s-0.5 -58.333 -0.5 -99c0 -42 0.166992 -75.667 0.5 -101s1 -45.333 2 -60
s2 -25.667 3 -33s2.5 -13.666 4.5 -18.999c2 -6.66699 6 -11.334 12 -14.001s16.667 -4 32 -4c20 0 32 5.66699 36 17c2.66699 6.66699 4.66699 13.667 6 21s2.33301 15.5 3 24.5s1.16699 19.333 1.5 31s0.5 25.167 0.5 40.5h145zM97.002 -238.005v5l57 192h136v-6l-80 -191
h-113z" />
    <glyph glyph-name="egrave" unicode="&#xe8;" horiz-adv-x="398" 
d="M34 0v757h335v-160h-178v-133h175v-153h-175v-143h177v-168h-334zM153 789l-115 167v6h141l91 -168v-5h-117z" />
    <glyph glyph-name="eacute" unicode="&#xe9;" horiz-adv-x="398" 
d="M34 0v757h335v-160h-178v-133h175v-153h-175v-143h177v-168h-334zM139 789v5l91 168h141v-6l-115 -167h-117z" />
    <glyph glyph-name="ecircumflex" unicode="&#xea;" horiz-adv-x="398" 
d="M34 0v757h335v-160h-178v-133h175v-153h-175v-143h177v-168h-334zM255 789l-47 69h-11l-47 -69h-123v5l124 168h103l125 -168v-5h-124z" />
    <glyph glyph-name="edieresis" unicode="&#xeb;" horiz-adv-x="398" 
d="M34 0v757h335v-160h-178v-133h175v-153h-175v-143h177v-168h-334zM239 810v123h134v-123h-134zM33 810v123h135v-123h-135z" />
    <glyph glyph-name="igrave" unicode="&#xec;" horiz-adv-x="233" 
d="M36 0v757h161v-757h-161zM66 789l-115 167v6h141l91 -168v-5h-117z" />
    <glyph glyph-name="iacute" unicode="&#xed;" horiz-adv-x="233" 
d="M36 0v757h161v-757h-161zM50 789v5l91 168h141v-6l-115 -167h-117z" />
    <glyph glyph-name="icircumflex" unicode="&#xee;" horiz-adv-x="233" 
d="M36 0v757h161v-757h-161zM169 789l-47 69h-11l-47 -69h-123v5l124 168h103l125 -168v-5h-124z" />
    <glyph glyph-name="idieresis" unicode="&#xef;" horiz-adv-x="233" 
d="M36 0v757h161v-757h-161zM153 810v123h134v-123h-134zM-53 810v123h135v-123h-135z" />
    <glyph glyph-name="eth" unicode="&#xf0;" horiz-adv-x="471" 
d="M34 0v311h-34v153h34v293h211c48 0 84.667 -4.5 110 -13.5s44.666 -24.5 57.999 -46.5c6.66699 -11.333 12.167 -23.5 16.5 -36.5s8 -30.833 11 -53.5s5.16699 -52 6.5 -88s2 -82.667 2 -140s-0.666992 -104.166 -2 -140.499s-3.5 -65.833 -6.5 -88.5
s-6.66699 -40.667 -11 -54s-9.83301 -25.333 -16.5 -36c-6.66699 -11.333 -14.667 -20.833 -24 -28.5s-20.666 -13.834 -33.999 -18.501s-29 -8 -47 -10s-39 -3 -63 -3h-211zM244 167c12.667 0 21.667 1.33008 27 3.99707s9.33301 7.33398 12 14.001
c1.33301 4.66699 2.66602 10.167 3.99902 16.5s2.33301 16.5 3 30.5s1.16699 32.833 1.5 56.5s0.5 54.834 0.5 93.501s-0.166992 70.167 -0.5 94.5s-0.833008 43.5 -1.5 57.5s-1.66699 24.333 -3 31s-2.66602 12.334 -3.99902 17.001
c-2.66699 5.33301 -6.66699 9.33301 -12 12s-14.333 4 -27 4h-61v-134h69v-153h-69v-144h61z" />
    <glyph glyph-name="ntilde" unicode="&#xf1;" horiz-adv-x="475" 
d="M361 0l-179 406h-6v-406h-143v757h154l106 -263h6v263h144v-757h-82zM437 856c-15.333 -21.333 -31.832 -36.832 -49.499 -46.499s-38.5 -14.5 -62.5 -14.5c-17.333 0 -33.833 2.33301 -49.5 7s-31 9.83398 -46 15.501s-29.833 10.834 -44.5 15.501s-29 7 -43 7
c-20.667 0 -38.667 -4.5 -54 -13.5s-30.666 -23.833 -45.999 -44.5h-5v110c10 15.333 23.167 28.833 39.5 40.5s36.5 17.5 60.5 17.5c20 0 38.667 -2.33301 56 -7s33.833 -9.83398 49.5 -15.501s30.667 -10.834 45 -15.501s28.166 -7 41.499 -7
c20.667 0 39.167 4.16699 55.5 12.5s32.166 23.166 47.499 44.499h5v-106z" />
    <glyph glyph-name="ograve" unicode="&#xf2;" 
d="M394 49c-6.66699 -12 -14.499 -21.833 -23.499 -29.5s-20.167 -14 -33.5 -19s-29 -8.5 -47 -10.5s-39 -3 -63 -3c-48.667 0 -85.5 4.5 -110.5 13.5s-44.167 25.167 -57.5 48.5c-6.66699 11.333 -12.334 23.833 -17.001 37.5s-8.5 32.167 -11.5 55.5
s-5.16699 53.833 -6.5 91.5s-2 86.167 -2 145.5s0.666992 107.666 2 144.999s3.5 67.666 6.5 90.999s6.83301 41.666 11.5 54.999s10.334 26 17.001 38c6.66699 11.333 14.5 21 23.5 29s20.167 14.5 33.5 19.5s29.166 8.5 47.499 10.5s39.5 3 63.5 3
c48 0 84.5 -4.66699 109.5 -14s44.167 -25.333 57.5 -48c6.66699 -12 12.334 -24.667 17.001 -38s8.5 -31.666 11.5 -54.999s5.16699 -53.666 6.5 -90.999s2 -85.666 2 -144.999s-0.666992 -107.833 -2 -145.5s-3.5 -68.167 -6.5 -91.5s-6.83301 -41.833 -11.5 -55.5
s-10.334 -26.167 -17.001 -37.5zM266.001 174c1.33301 4.66699 2.66602 10.667 3.99902 18s2.33301 18.333 3 33s1.16699 34.5 1.5 59.5s0.5 57.833 0.5 98.5c0 42 -0.166992 75.667 -0.5 101s-0.833008 45.5 -1.5 60.5s-1.66699 26.167 -3 33.5
s-2.66602 13.333 -3.99902 18c-2.66699 6.66699 -6.66699 11.5 -12 14.5s-14.333 4.5 -27 4.5s-21.834 -1.5 -27.501 -4.5s-9.5 -7.83301 -11.5 -14.5c-2 -4.66699 -3.5 -10.667 -4.5 -18s-2 -18.5 -3 -33.5s-1.66699 -35.167 -2 -60.5s-0.5 -59 -0.5 -101
c0 -40.667 0.166992 -73.5 0.5 -98.5s1 -44.833 2 -59.5s2 -25.667 3 -33s2.5 -13.333 4.5 -18c2 -6.66699 5.83301 -11.334 11.5 -14.001s14.834 -4 27.501 -4s21.667 1.33301 27 4s9.33301 7.33398 12 14.001zM175.001 789l-115 167v6h141l91 -168v-5h-117z" />
    <glyph glyph-name="oacute" unicode="&#xf3;" 
d="M394 49c-6.66699 -12 -14.499 -21.833 -23.499 -29.5s-20.167 -14 -33.5 -19s-29 -8.5 -47 -10.5s-39 -3 -63 -3c-48.667 0 -85.5 4.5 -110.5 13.5s-44.167 25.167 -57.5 48.5c-6.66699 11.333 -12.334 23.833 -17.001 37.5s-8.5 32.167 -11.5 55.5
s-5.16699 53.833 -6.5 91.5s-2 86.167 -2 145.5s0.666992 107.666 2 144.999s3.5 67.666 6.5 90.999s6.83301 41.666 11.5 54.999s10.334 26 17.001 38c6.66699 11.333 14.5 21 23.5 29s20.167 14.5 33.5 19.5s29.166 8.5 47.499 10.5s39.5 3 63.5 3
c48 0 84.5 -4.66699 109.5 -14s44.167 -25.333 57.5 -48c6.66699 -12 12.334 -24.667 17.001 -38s8.5 -31.666 11.5 -54.999s5.16699 -53.666 6.5 -90.999s2 -85.666 2 -144.999s-0.666992 -107.833 -2 -145.5s-3.5 -68.167 -6.5 -91.5s-6.83301 -41.833 -11.5 -55.5
s-10.334 -26.167 -17.001 -37.5zM266.001 174c1.33301 4.66699 2.66602 10.667 3.99902 18s2.33301 18.333 3 33s1.16699 34.5 1.5 59.5s0.5 57.833 0.5 98.5c0 42 -0.166992 75.667 -0.5 101s-0.833008 45.5 -1.5 60.5s-1.66699 26.167 -3 33.5
s-2.66602 13.333 -3.99902 18c-2.66699 6.66699 -6.66699 11.5 -12 14.5s-14.333 4.5 -27 4.5s-21.834 -1.5 -27.501 -4.5s-9.5 -7.83301 -11.5 -14.5c-2 -4.66699 -3.5 -10.667 -4.5 -18s-2 -18.5 -3 -33.5s-1.66699 -35.167 -2 -60.5s-0.5 -59 -0.5 -101
c0 -40.667 0.166992 -73.5 0.5 -98.5s1 -44.833 2 -59.5s2 -25.667 3 -33s2.5 -13.333 4.5 -18c2 -6.66699 5.83301 -11.334 11.5 -14.001s14.834 -4 27.501 -4s21.667 1.33301 27 4s9.33301 7.33398 12 14.001zM160.001 789v5l91 168h141v-6l-115 -167h-117z" />
    <glyph glyph-name="ocircumflex" unicode="&#xf4;" 
d="M394 49c-6.66699 -12 -14.499 -21.833 -23.499 -29.5s-20.167 -14 -33.5 -19s-29 -8.5 -47 -10.5s-39 -3 -63 -3c-48.667 0 -85.5 4.5 -110.5 13.5s-44.167 25.167 -57.5 48.5c-6.66699 11.333 -12.334 23.833 -17.001 37.5s-8.5 32.167 -11.5 55.5
s-5.16699 53.833 -6.5 91.5s-2 86.167 -2 145.5s0.666992 107.666 2 144.999s3.5 67.666 6.5 90.999s6.83301 41.666 11.5 54.999s10.334 26 17.001 38c6.66699 11.333 14.5 21 23.5 29s20.167 14.5 33.5 19.5s29.166 8.5 47.499 10.5s39.5 3 63.5 3
c48 0 84.5 -4.66699 109.5 -14s44.167 -25.333 57.5 -48c6.66699 -12 12.334 -24.667 17.001 -38s8.5 -31.666 11.5 -54.999s5.16699 -53.666 6.5 -90.999s2 -85.666 2 -144.999s-0.666992 -107.833 -2 -145.5s-3.5 -68.167 -6.5 -91.5s-6.83301 -41.833 -11.5 -55.5
s-10.334 -26.167 -17.001 -37.5zM266.001 174c1.33301 4.66699 2.66602 10.667 3.99902 18s2.33301 18.333 3 33s1.16699 34.5 1.5 59.5s0.5 57.833 0.5 98.5c0 42 -0.166992 75.667 -0.5 101s-0.833008 45.5 -1.5 60.5s-1.66699 26.167 -3 33.5
s-2.66602 13.333 -3.99902 18c-2.66699 6.66699 -6.66699 11.5 -12 14.5s-14.333 4.5 -27 4.5s-21.834 -1.5 -27.501 -4.5s-9.5 -7.83301 -11.5 -14.5c-2 -4.66699 -3.5 -10.667 -4.5 -18s-2 -18.5 -3 -33.5s-1.66699 -35.167 -2 -60.5s-0.5 -59 -0.5 -101
c0 -40.667 0.166992 -73.5 0.5 -98.5s1 -44.833 2 -59.5s2 -25.667 3 -33s2.5 -13.333 4.5 -18c2 -6.66699 5.83301 -11.334 11.5 -14.001s14.834 -4 27.501 -4s21.667 1.33301 27 4s9.33301 7.33398 12 14.001zM278.001 789l-47 69h-11l-47 -69h-123v5l124 168h103
l125 -168v-5h-124z" />
    <glyph glyph-name="otilde" unicode="&#xf5;" 
d="M394 49c-6.66699 -12 -14.499 -21.833 -23.499 -29.5s-20.167 -14 -33.5 -19s-29 -8.5 -47 -10.5s-39 -3 -63 -3c-48.667 0 -85.5 4.5 -110.5 13.5s-44.167 25.167 -57.5 48.5c-6.66699 11.333 -12.334 23.833 -17.001 37.5s-8.5 32.167 -11.5 55.5
s-5.16699 53.833 -6.5 91.5s-2 86.167 -2 145.5s0.666992 107.666 2 144.999s3.5 67.666 6.5 90.999s6.83301 41.666 11.5 54.999s10.334 26 17.001 38c6.66699 11.333 14.5 21 23.5 29s20.167 14.5 33.5 19.5s29.166 8.5 47.499 10.5s39.5 3 63.5 3
c48 0 84.5 -4.66699 109.5 -14s44.167 -25.333 57.5 -48c6.66699 -12 12.334 -24.667 17.001 -38s8.5 -31.666 11.5 -54.999s5.16699 -53.666 6.5 -90.999s2 -85.666 2 -144.999s-0.666992 -107.833 -2 -145.5s-3.5 -68.167 -6.5 -91.5s-6.83301 -41.833 -11.5 -55.5
s-10.334 -26.167 -17.001 -37.5zM266.001 174c1.33301 4.66699 2.66602 10.667 3.99902 18s2.33301 18.333 3 33s1.16699 34.5 1.5 59.5s0.5 57.833 0.5 98.5c0 42 -0.166992 75.667 -0.5 101s-0.833008 45.5 -1.5 60.5s-1.66699 26.167 -3 33.5
s-2.66602 13.333 -3.99902 18c-2.66699 6.66699 -6.66699 11.5 -12 14.5s-14.333 4.5 -27 4.5s-21.834 -1.5 -27.501 -4.5s-9.5 -7.83301 -11.5 -14.5c-2 -4.66699 -3.5 -10.667 -4.5 -18s-2 -18.5 -3 -33.5s-1.66699 -35.167 -2 -60.5s-0.5 -59 -0.5 -101
c0 -40.667 0.166992 -73.5 0.5 -98.5s1 -44.833 2 -59.5s2 -25.667 3 -33s2.5 -13.333 4.5 -18c2 -6.66699 5.83301 -11.334 11.5 -14.001s14.834 -4 27.501 -4s21.667 1.33301 27 4s9.33301 7.33398 12 14.001zM427.001 856
c-15.333 -21.333 -31.832 -36.832 -49.499 -46.499s-38.5 -14.5 -62.5 -14.5c-17.333 0 -33.833 2.33301 -49.5 7s-31 9.83398 -46 15.501s-29.833 10.834 -44.5 15.501s-29 7 -43 7c-20.667 0 -38.667 -4.5 -54 -13.5s-30.666 -23.833 -45.999 -44.5h-5v110
c10 15.333 23.167 28.833 39.5 40.5s36.5 17.5 60.5 17.5c20 0 38.667 -2.33301 56 -7s33.833 -9.83398 49.5 -15.501s30.667 -10.834 45 -15.501s28.166 -7 41.499 -7c20.667 0 39.167 4.16699 55.5 12.5s32.166 23.166 47.499 44.499h5v-106z" />
    <glyph glyph-name="odieresis" unicode="&#xf6;" 
d="M394 49c-6.66699 -12 -14.499 -21.833 -23.499 -29.5s-20.167 -14 -33.5 -19s-29 -8.5 -47 -10.5s-39 -3 -63 -3c-48.667 0 -85.5 4.5 -110.5 13.5s-44.167 25.167 -57.5 48.5c-6.66699 11.333 -12.334 23.833 -17.001 37.5s-8.5 32.167 -11.5 55.5
s-5.16699 53.833 -6.5 91.5s-2 86.167 -2 145.5s0.666992 107.666 2 144.999s3.5 67.666 6.5 90.999s6.83301 41.666 11.5 54.999s10.334 26 17.001 38c6.66699 11.333 14.5 21 23.5 29s20.167 14.5 33.5 19.5s29.166 8.5 47.499 10.5s39.5 3 63.5 3
c48 0 84.5 -4.66699 109.5 -14s44.167 -25.333 57.5 -48c6.66699 -12 12.334 -24.667 17.001 -38s8.5 -31.666 11.5 -54.999s5.16699 -53.666 6.5 -90.999s2 -85.666 2 -144.999s-0.666992 -107.833 -2 -145.5s-3.5 -68.167 -6.5 -91.5s-6.83301 -41.833 -11.5 -55.5
s-10.334 -26.167 -17.001 -37.5zM266.001 174c1.33301 4.66699 2.66602 10.667 3.99902 18s2.33301 18.333 3 33s1.16699 34.5 1.5 59.5s0.5 57.833 0.5 98.5c0 42 -0.166992 75.667 -0.5 101s-0.833008 45.5 -1.5 60.5s-1.66699 26.167 -3 33.5
s-2.66602 13.333 -3.99902 18c-2.66699 6.66699 -6.66699 11.5 -12 14.5s-14.333 4.5 -27 4.5s-21.834 -1.5 -27.501 -4.5s-9.5 -7.83301 -11.5 -14.5c-2 -4.66699 -3.5 -10.667 -4.5 -18s-2 -18.5 -3 -33.5s-1.66699 -35.167 -2 -60.5s-0.5 -59 -0.5 -101
c0 -40.667 0.166992 -73.5 0.5 -98.5s1 -44.833 2 -59.5s2 -25.667 3 -33s2.5 -13.333 4.5 -18c2 -6.66699 5.83301 -11.334 11.5 -14.001s14.834 -4 27.501 -4s21.667 1.33301 27 4s9.33301 7.33398 12 14.001zM262.001 810v123h134v-123h-134zM56.001 810v123h135v-123
h-135z" />
    <glyph glyph-name="divide" unicode="&#xf7;" 
d="M15 321v117h423v-117h-423zM148 538v151h157v-151h-157zM148 70v151h157v-151h-157z" />
    <glyph glyph-name="oslash" unicode="&#xf8;" 
d="M31 -130l46.001 154c-3.33301 3.33301 -6.5 7 -9.5 11s-5.83301 8.66699 -8.5 14c-6.66699 11.333 -12.334 23.833 -17.001 37.5s-8.5 32.167 -11.5 55.5s-5.16699 53.833 -6.5 91.5s-2 86.167 -2 145.5s0.666992 107.666 2 144.999s3.5 67.666 6.5 90.999
s6.83301 41.666 11.5 54.999s10.334 26 17.001 38c6.66699 11.333 14.5 21 23.5 29s20.167 14.5 33.5 19.5s29.166 8.5 47.499 10.5s39.5 3 63.5 3c15.333 0 29.666 -0.5 42.999 -1.5s25.666 -2.16699 36.999 -3.5l27 88h73l-36 -117c8.66699 -8 16.334 -17.333 23.001 -28
c6.66699 -12 12.334 -24.667 17.001 -38s8.5 -31.666 11.5 -54.999s5.16699 -53.666 6.5 -90.999s2 -85.666 2 -144.999s-0.666992 -107.833 -2 -145.5s-3.5 -68.167 -6.5 -91.5s-6.83301 -41.833 -11.5 -55.5s-10.334 -26.167 -17.001 -37.5
c-6.66699 -12 -14.5 -21.833 -23.5 -29.5s-20.167 -14 -33.5 -19s-29 -8.5 -47 -10.5s-39 -3 -63 -3c-35.333 0 -63.666 2.33301 -84.999 7l-38 -124h-73zM286.001 466l-94.999 -311.999c7.33301 -3.33301 19.333 -5 36 -5c15.333 0 26.666 1.5 33.999 4.5
s12.333 7.83301 15 14.5c2 4.66699 3.66699 10.5 5 17.5s2.5 16.167 3.5 27.5s1.66699 26 2 44s0.5 40.667 0.5 68v55.5c0 15 0.166992 27.667 0.5 38s0.833008 19.166 1.5 26.499l2 21h-5zM260.002 617.001c-3.33301 1.33301 -7.83301 2.33398 -13.5 3.00098
s-12.167 1 -19.5 1c-16 0 -27.667 -1.33301 -35 -4s-12.333 -7.33398 -15 -14.001c-2 -5.33301 -3.83301 -11.333 -5.5 -18s-3 -15.5 -4 -26.5s-1.66699 -25 -2 -42s-0.5 -37.833 -0.5 -62.5v-60c0 -16 -0.166992 -29.5 -0.5 -40.5s-0.833008 -20 -1.5 -27l-2 -20.5h5z" />
    <glyph glyph-name="ugrave" unicode="&#xf9;" horiz-adv-x="462" 
d="M279 757h156v-524c-0.666992 -31.333 -2 -57.333 -4 -78s-4.5 -38 -7.5 -52s-6.5 -25.5 -10.5 -34.5s-8.66699 -17.833 -14 -26.5c-6.66699 -10.667 -14.5 -19.5 -23.5 -26.5s-20.167 -12.667 -33.5 -17s-29 -7.33301 -47 -9s-39 -2.5 -63 -2.5
c-48.667 0 -85.667 3.83301 -111 11.5s-44.333 22.167 -57 43.5c-5.33301 8.66699 -10.333 17.5 -15 26.5s-8.66699 20.5 -12 34.5s-5.83301 31.333 -7.5 52s-2.5 46.667 -2.5 78v524h161v-524c0 -18 0.5 -32 1.5 -42s3.16699 -17.667 6.5 -23s8 -8.66602 14 -9.99902
s14 -2 24 -2s17.833 0.666992 23.5 2s10.167 4.66602 13.5 9.99902s5.5 13 6.5 23s1.5 24 1.5 42v524zM181 789l-115 167v6h141l91 -168v-5h-117z" />
    <glyph glyph-name="uacute" unicode="&#xfa;" horiz-adv-x="462" 
d="M279 757h156v-524c-0.666992 -31.333 -2 -57.333 -4 -78s-4.5 -38 -7.5 -52s-6.5 -25.5 -10.5 -34.5s-8.66699 -17.833 -14 -26.5c-6.66699 -10.667 -14.5 -19.5 -23.5 -26.5s-20.167 -12.667 -33.5 -17s-29 -7.33301 -47 -9s-39 -2.5 -63 -2.5
c-48.667 0 -85.667 3.83301 -111 11.5s-44.333 22.167 -57 43.5c-5.33301 8.66699 -10.333 17.5 -15 26.5s-8.66699 20.5 -12 34.5s-5.83301 31.333 -7.5 52s-2.5 46.667 -2.5 78v524h161v-524c0 -18 0.5 -32 1.5 -42s3.16699 -17.667 6.5 -23s8 -8.66602 14 -9.99902
s14 -2 24 -2s17.833 0.666992 23.5 2s10.167 4.66602 13.5 9.99902s5.5 13 6.5 23s1.5 24 1.5 42v524zM165 789v5l91 168h141v-6l-115 -167h-117z" />
    <glyph glyph-name="ucircumflex" unicode="&#xfb;" horiz-adv-x="462" 
d="M279 757h156v-524c-0.666992 -31.333 -2 -57.333 -4 -78s-4.5 -38 -7.5 -52s-6.5 -25.5 -10.5 -34.5s-8.66699 -17.833 -14 -26.5c-6.66699 -10.667 -14.5 -19.5 -23.5 -26.5s-20.167 -12.667 -33.5 -17s-29 -7.33301 -47 -9s-39 -2.5 -63 -2.5
c-48.667 0 -85.667 3.83301 -111 11.5s-44.333 22.167 -57 43.5c-5.33301 8.66699 -10.333 17.5 -15 26.5s-8.66699 20.5 -12 34.5s-5.83301 31.333 -7.5 52s-2.5 46.667 -2.5 78v524h161v-524c0 -18 0.5 -32 1.5 -42s3.16699 -17.667 6.5 -23s8 -8.66602 14 -9.99902
s14 -2 24 -2s17.833 0.666992 23.5 2s10.167 4.66602 13.5 9.99902s5.5 13 6.5 23s1.5 24 1.5 42v524zM283 789l-47 69h-11l-47 -69h-123v5l124 168h103l125 -168v-5h-124z" />
    <glyph glyph-name="udieresis" unicode="&#xfc;" horiz-adv-x="462" 
d="M279 757h156v-524c-0.666992 -31.333 -2 -57.333 -4 -78s-4.5 -38 -7.5 -52s-6.5 -25.5 -10.5 -34.5s-8.66699 -17.833 -14 -26.5c-6.66699 -10.667 -14.5 -19.5 -23.5 -26.5s-20.167 -12.667 -33.5 -17s-29 -7.33301 -47 -9s-39 -2.5 -63 -2.5
c-48.667 0 -85.667 3.83301 -111 11.5s-44.333 22.167 -57 43.5c-5.33301 8.66699 -10.333 17.5 -15 26.5s-8.66699 20.5 -12 34.5s-5.83301 31.333 -7.5 52s-2.5 46.667 -2.5 78v524h161v-524c0 -18 0.5 -32 1.5 -42s3.16699 -17.667 6.5 -23s8 -8.66602 14 -9.99902
s14 -2 24 -2s17.833 0.666992 23.5 2s10.167 4.66602 13.5 9.99902s5.5 13 6.5 23s1.5 24 1.5 42v524zM267 810v123h134v-123h-134zM61 810v123h135v-123h-135z" />
    <glyph glyph-name="yacute" unicode="&#xfd;" horiz-adv-x="447" 
d="M142 0l-0.000976562 276l-138 476v5h162l25.5 -113.5l15 -68l8.5 -38.5c2 -8.66699 3.66699 -17 5 -25h10c1.33301 8 3 16.333 5 25l8.5 38.5c3.66699 17 8.83398 39.667 15.501 68l27 113.5h157v-5l-132 -474v-278h-169zM157.999 789v5l91 168h141v-6l-115 -167h-117z
" />
    <glyph glyph-name="thorn" unicode="&#xfe;" horiz-adv-x="451" 
d="M34 0v756.996h157v-116h70c34 0 62 -4.5 84 -13.5s39.5 -23.667 52.5 -44s22 -47.166 27 -80.499s7.5 -74.333 7.5 -123c0 -49.333 -2.5 -91.166 -7.5 -125.499s-14 -62.166 -27 -83.499s-30.5 -36.666 -52.5 -45.999s-50 -14 -84 -14h-70v-111h-157zM233 266.996
c14.667 0 25 8.16797 31 24.501s9 47.166 9 92.499c0 40 -3.5 66.5 -10.5 79.5s-18.167 19.5 -33.5 19.5h-38v-216h42z" />
    <glyph glyph-name="ydieresis" unicode="&#xff;" horiz-adv-x="447" 
d="M142 0l-0.000976562 276l-138 476v5h162l25.5 -113.5l15 -68l8.5 -38.5c2 -8.66699 3.66699 -17 5 -25h10c1.33301 8 3 16.333 5 25l8.5 38.5c3.66699 17 8.83398 39.667 15.501 68l27 113.5h157v-5l-132 -474v-278h-169zM259.999 810v123h134v-123h-134zM53.999 810v123
h135v-123h-135z" />
    <glyph glyph-name="Amacron" unicode="&#x100;" horiz-adv-x="445" 
d="M271 0l-13 175h-76l-12 -175h-158l81 757h264l76 -757h-162zM225 599h-11l-25 -271h62zM20 823v106h400v-106h-400z" />
    <glyph glyph-name="amacron" unicode="&#x101;" horiz-adv-x="445" 
d="M271 0l-13 175h-76l-12 -175h-158l81 757h264l76 -757h-162zM225 599h-11l-25 -271h62zM20 823v106h400v-106h-400z" />
    <glyph glyph-name="Abreve" unicode="&#x102;" horiz-adv-x="445" 
d="M271 0l-13 175h-76l-12 -175h-158l81 757h264l76 -757h-162zM225 599h-11l-25 -271h62zM386 962c0 -24.667 -0.669922 -45.001 -2.00293 -61.001s-3.16602 -29.167 -5.49902 -39.5s-5.16602 -18.666 -8.49902 -24.999s-7.33301 -11.833 -12 -16.5
c-10.667 -12.667 -26.334 -21 -47.001 -25s-50.667 -6 -90 -6c-38.667 0 -68.334 2 -89.001 6s-36.334 12.333 -47.001 25c-4.66699 4.66699 -8.66699 10.167 -12 16.5s-6.16602 14.666 -8.49902 24.999s-4.16602 23.5 -5.49902 39.5s-2 36.333 -2 61h102
c0 -13.333 0.166992 -24.166 0.5 -32.499s1 -15 2 -20s2.16699 -9 3.5 -12s3.33301 -5.5 6 -7.5c3.33301 -3.33301 8.33301 -5.5 15 -6.5s18.334 -1.5 35.001 -1.5c17.333 0 29.333 0.5 36 1.5s11.334 3.16699 14.001 6.5c2 2.66699 3.83301 5.33398 5.5 8.00098
s3 6.5 4 11.5s1.83301 11.667 2.5 20s1 19.166 1 32.499h102z" />
    <glyph glyph-name="abreve" unicode="&#x103;" horiz-adv-x="445" 
d="M271 0l-13 175h-76l-12 -175h-158l81 757h264l76 -757h-162zM225 599h-11l-25 -271h62zM386 962c0 -24.667 -0.669922 -45.001 -2.00293 -61.001s-3.16602 -29.167 -5.49902 -39.5s-5.16602 -18.666 -8.49902 -24.999s-7.33301 -11.833 -12 -16.5
c-10.667 -12.667 -26.334 -21 -47.001 -25s-50.667 -6 -90 -6c-38.667 0 -68.334 2 -89.001 6s-36.334 12.333 -47.001 25c-4.66699 4.66699 -8.66699 10.167 -12 16.5s-6.16602 14.666 -8.49902 24.999s-4.16602 23.5 -5.49902 39.5s-2 36.333 -2 61h102
c0 -13.333 0.166992 -24.166 0.5 -32.499s1 -15 2 -20s2.16699 -9 3.5 -12s3.33301 -5.5 6 -7.5c3.33301 -3.33301 8.33301 -5.5 15 -6.5s18.334 -1.5 35.001 -1.5c17.333 0 29.333 0.5 36 1.5s11.334 3.16699 14.001 6.5c2 2.66699 3.83301 5.33398 5.5 8.00098
s3 6.5 4 11.5s1.83301 11.667 2.5 20s1 19.166 1 32.499h102z" />
    <glyph glyph-name="Aogonek" unicode="&#x104;" horiz-adv-x="445" 
d="M432 -200c-5.33301 -7.33301 -18.332 -15.501 -38.999 -24.501s-49 -13.5 -85 -13.5c-89.333 0 -134 35.333 -134 106c0 10.667 1.5 21.167 4.5 31.5s8.16699 20.5 15.5 30.5s17.333 19.333 30 28s29 16.334 49 23.001l-15 194h-76l-12 -175h-158l81 757h264l76 -757
c-12 -4 -24.167 -8.33301 -36.5 -13s-23.333 -9.66699 -33 -15s-17.5 -11.5 -23.5 -18.5s-9 -15.167 -9 -24.5c0 -16 3.66699 -27.667 11 -35s20.333 -11 39 -11c10.667 0 19.667 1.16699 27 3.5s13.666 4.5 18.999 6.5h5v-93zM225.001 598.999h-11l-25 -271h62z" />
    <glyph glyph-name="aogonek" unicode="&#x105;" horiz-adv-x="445" 
d="M432 -200c-5.33301 -7.33301 -18.332 -15.501 -38.999 -24.501s-49 -13.5 -85 -13.5c-89.333 0 -134 35.333 -134 106c0 10.667 1.5 21.167 4.5 31.5s8.16699 20.5 15.5 30.5s17.333 19.333 30 28s29 16.334 49 23.001l-15 194h-76l-12 -175h-158l81 757h264l76 -757
c-12 -4 -24.167 -8.33301 -36.5 -13s-23.333 -9.66699 -33 -15s-17.5 -11.5 -23.5 -18.5s-9 -15.167 -9 -24.5c0 -16 3.66699 -27.667 11 -35s20.333 -11 39 -11c10.667 0 19.667 1.16699 27 3.5s13.666 4.5 18.999 6.5h5v-93zM225.001 598.999h-11l-25 -271h62z" />
    <glyph glyph-name="Cacute" unicode="&#x106;" horiz-adv-x="452" 
d="M424 290c2 -24 3.00195 -46.6719 3.00195 -68.0049c0 -40 -2.16699 -74.833 -6.5 -104.5s-13.5 -54.167 -27.5 -73.5s-33.833 -33.666 -59.5 -42.999s-59.5 -14 -101.5 -14c-50 0 -88.167 4.5 -114.5 13.5s-45.833 25.167 -58.5 48.5
c-6.66699 10.667 -12.334 23.334 -17.001 38.001s-8.5 34.334 -11.5 59.001s-5.16699 56 -6.5 94s-2 86.333 -2 145s0.666992 106.334 2 143.001s3.5 66.667 6.5 90s6.83301 41.666 11.5 54.999s10.334 25.666 17.001 36.999c13.333 22.667 32.666 38.334 57.999 47.001
s62 13 110 13c42.667 0 77 -4 103 -12s46 -21 60 -39s23.333 -41.167 28 -69.5s7 -62.5 7 -102.5c0 -9.33301 -0.166992 -19.666 -0.5 -30.999s-0.833008 -23.333 -1.5 -36h-147c0 20 -0.166992 36.667 -0.5 50s-0.833008 24.333 -1.5 33s-1.5 15.5 -2.5 20.5l-2.5 12.5
c-2.66699 12.667 -16.667 19 -42 19c-12.667 0 -21.834 -1.5 -27.501 -4.5s-9.5 -7.83301 -11.5 -14.5c-2 -5.33301 -3.5 -11.5 -4.5 -18.5s-2 -17.667 -3 -32s-1.66699 -34.166 -2 -59.499s-0.5 -58.333 -0.5 -99c0 -42 0.166992 -75.667 0.5 -101s1 -45.333 2 -60
s2 -25.667 3 -33s2.5 -13.666 4.5 -18.999c2 -6.66699 6 -11.334 12 -14.001s16.667 -4 32 -4c20 0 32 5.66699 36 17c2.66699 6.66699 4.66699 13.667 6 21s2.33301 15.5 3 24.5s1.16699 19.333 1.5 31s0.5 25.167 0.5 40.5h145zM161.002 788.995v5l91 168h141v-6
l-115 -167h-117z" />
    <glyph glyph-name="cacute" unicode="&#x107;" horiz-adv-x="452" 
d="M424 290c2 -24 3.00195 -46.6719 3.00195 -68.0049c0 -40 -2.16699 -74.833 -6.5 -104.5s-13.5 -54.167 -27.5 -73.5s-33.833 -33.666 -59.5 -42.999s-59.5 -14 -101.5 -14c-50 0 -88.167 4.5 -114.5 13.5s-45.833 25.167 -58.5 48.5
c-6.66699 10.667 -12.334 23.334 -17.001 38.001s-8.5 34.334 -11.5 59.001s-5.16699 56 -6.5 94s-2 86.333 -2 145s0.666992 106.334 2 143.001s3.5 66.667 6.5 90s6.83301 41.666 11.5 54.999s10.334 25.666 17.001 36.999c13.333 22.667 32.666 38.334 57.999 47.001
s62 13 110 13c42.667 0 77 -4 103 -12s46 -21 60 -39s23.333 -41.167 28 -69.5s7 -62.5 7 -102.5c0 -9.33301 -0.166992 -19.666 -0.5 -30.999s-0.833008 -23.333 -1.5 -36h-147c0 20 -0.166992 36.667 -0.5 50s-0.833008 24.333 -1.5 33s-1.5 15.5 -2.5 20.5l-2.5 12.5
c-2.66699 12.667 -16.667 19 -42 19c-12.667 0 -21.834 -1.5 -27.501 -4.5s-9.5 -7.83301 -11.5 -14.5c-2 -5.33301 -3.5 -11.5 -4.5 -18.5s-2 -17.667 -3 -32s-1.66699 -34.166 -2 -59.499s-0.5 -58.333 -0.5 -99c0 -42 0.166992 -75.667 0.5 -101s1 -45.333 2 -60
s2 -25.667 3 -33s2.5 -13.666 4.5 -18.999c2 -6.66699 6 -11.334 12 -14.001s16.667 -4 32 -4c20 0 32 5.66699 36 17c2.66699 6.66699 4.66699 13.667 6 21s2.33301 15.5 3 24.5s1.16699 19.333 1.5 31s0.5 25.167 0.5 40.5h145zM161.002 788.995v5l91 168h141v-6
l-115 -167h-117z" />
    <glyph glyph-name="Cdotaccent" unicode="&#x10a;" horiz-adv-x="452" 
d="M424 290c2 -24 3.00195 -46.6719 3.00195 -68.0049c0 -40 -2.16699 -74.833 -6.5 -104.5s-13.5 -54.167 -27.5 -73.5s-33.833 -33.666 -59.5 -42.999s-59.5 -14 -101.5 -14c-50 0 -88.167 4.5 -114.5 13.5s-45.833 25.167 -58.5 48.5
c-6.66699 10.667 -12.334 23.334 -17.001 38.001s-8.5 34.334 -11.5 59.001s-5.16699 56 -6.5 94s-2 86.333 -2 145s0.666992 106.334 2 143.001s3.5 66.667 6.5 90s6.83301 41.666 11.5 54.999s10.334 25.666 17.001 36.999c13.333 22.667 32.666 38.334 57.999 47.001
s62 13 110 13c42.667 0 77 -4 103 -12s46 -21 60 -39s23.333 -41.167 28 -69.5s7 -62.5 7 -102.5c0 -9.33301 -0.166992 -19.666 -0.5 -30.999s-0.833008 -23.333 -1.5 -36h-147c0 20 -0.166992 36.667 -0.5 50s-0.833008 24.333 -1.5 33s-1.5 15.5 -2.5 20.5l-2.5 12.5
c-2.66699 12.667 -16.667 19 -42 19c-12.667 0 -21.834 -1.5 -27.501 -4.5s-9.5 -7.83301 -11.5 -14.5c-2 -5.33301 -3.5 -11.5 -4.5 -18.5s-2 -17.667 -3 -32s-1.66699 -34.166 -2 -59.499s-0.5 -58.333 -0.5 -99c0 -42 0.166992 -75.667 0.5 -101s1 -45.333 2 -60
s2 -25.667 3 -33s2.5 -13.666 4.5 -18.999c2 -6.66699 6 -11.334 12 -14.001s16.667 -4 32 -4c20 0 32 5.66699 36 17c2.66699 6.66699 4.66699 13.667 6 21s2.33301 15.5 3 24.5s1.16699 19.333 1.5 31s0.5 25.167 0.5 40.5h145zM158.002 809.995v123h135v-123h-135z" />
    <glyph glyph-name="cdotaccent" unicode="&#x10b;" horiz-adv-x="452" 
d="M424 290c2 -24 3.00195 -46.6719 3.00195 -68.0049c0 -40 -2.16699 -74.833 -6.5 -104.5s-13.5 -54.167 -27.5 -73.5s-33.833 -33.666 -59.5 -42.999s-59.5 -14 -101.5 -14c-50 0 -88.167 4.5 -114.5 13.5s-45.833 25.167 -58.5 48.5
c-6.66699 10.667 -12.334 23.334 -17.001 38.001s-8.5 34.334 -11.5 59.001s-5.16699 56 -6.5 94s-2 86.333 -2 145s0.666992 106.334 2 143.001s3.5 66.667 6.5 90s6.83301 41.666 11.5 54.999s10.334 25.666 17.001 36.999c13.333 22.667 32.666 38.334 57.999 47.001
s62 13 110 13c42.667 0 77 -4 103 -12s46 -21 60 -39s23.333 -41.167 28 -69.5s7 -62.5 7 -102.5c0 -9.33301 -0.166992 -19.666 -0.5 -30.999s-0.833008 -23.333 -1.5 -36h-147c0 20 -0.166992 36.667 -0.5 50s-0.833008 24.333 -1.5 33s-1.5 15.5 -2.5 20.5l-2.5 12.5
c-2.66699 12.667 -16.667 19 -42 19c-12.667 0 -21.834 -1.5 -27.501 -4.5s-9.5 -7.83301 -11.5 -14.5c-2 -5.33301 -3.5 -11.5 -4.5 -18.5s-2 -17.667 -3 -32s-1.66699 -34.166 -2 -59.499s-0.5 -58.333 -0.5 -99c0 -42 0.166992 -75.667 0.5 -101s1 -45.333 2 -60
s2 -25.667 3 -33s2.5 -13.666 4.5 -18.999c2 -6.66699 6 -11.334 12 -14.001s16.667 -4 32 -4c20 0 32 5.66699 36 17c2.66699 6.66699 4.66699 13.667 6 21s2.33301 15.5 3 24.5s1.16699 19.333 1.5 31s0.5 25.167 0.5 40.5h145zM158.002 809.995v123h135v-123h-135z" />
    <glyph glyph-name="Ccaron" unicode="&#x10c;" horiz-adv-x="452" 
d="M424 290c2 -24 3.00195 -46.6719 3.00195 -68.0049c0 -40 -2.16699 -74.833 -6.5 -104.5s-13.5 -54.167 -27.5 -73.5s-33.833 -33.666 -59.5 -42.999s-59.5 -14 -101.5 -14c-50 0 -88.167 4.5 -114.5 13.5s-45.833 25.167 -58.5 48.5
c-6.66699 10.667 -12.334 23.334 -17.001 38.001s-8.5 34.334 -11.5 59.001s-5.16699 56 -6.5 94s-2 86.333 -2 145s0.666992 106.334 2 143.001s3.5 66.667 6.5 90s6.83301 41.666 11.5 54.999s10.334 25.666 17.001 36.999c13.333 22.667 32.666 38.334 57.999 47.001
s62 13 110 13c42.667 0 77 -4 103 -12s46 -21 60 -39s23.333 -41.167 28 -69.5s7 -62.5 7 -102.5c0 -9.33301 -0.166992 -19.666 -0.5 -30.999s-0.833008 -23.333 -1.5 -36h-147c0 20 -0.166992 36.667 -0.5 50s-0.833008 24.333 -1.5 33s-1.5 15.5 -2.5 20.5l-2.5 12.5
c-2.66699 12.667 -16.667 19 -42 19c-12.667 0 -21.834 -1.5 -27.501 -4.5s-9.5 -7.83301 -11.5 -14.5c-2 -5.33301 -3.5 -11.5 -4.5 -18.5s-2 -17.667 -3 -32s-1.66699 -34.166 -2 -59.499s-0.5 -58.333 -0.5 -99c0 -42 0.166992 -75.667 0.5 -101s1 -45.333 2 -60
s2 -25.667 3 -33s2.5 -13.666 4.5 -18.999c2 -6.66699 6 -11.334 12 -14.001s16.667 -4 32 -4c20 0 32 5.66699 36 17c2.66699 6.66699 4.66699 13.667 6 21s2.33301 15.5 3 24.5s1.16699 19.333 1.5 31s0.5 25.167 0.5 40.5h145zM175.002 788.995l-124 167v6h123l48 -69h11
l46 69h124v-6l-125 -167h-103z" />
    <glyph glyph-name="ccaron" unicode="&#x10d;" horiz-adv-x="452" 
d="M424 290c2 -24 3.00195 -46.6719 3.00195 -68.0049c0 -40 -2.16699 -74.833 -6.5 -104.5s-13.5 -54.167 -27.5 -73.5s-33.833 -33.666 -59.5 -42.999s-59.5 -14 -101.5 -14c-50 0 -88.167 4.5 -114.5 13.5s-45.833 25.167 -58.5 48.5
c-6.66699 10.667 -12.334 23.334 -17.001 38.001s-8.5 34.334 -11.5 59.001s-5.16699 56 -6.5 94s-2 86.333 -2 145s0.666992 106.334 2 143.001s3.5 66.667 6.5 90s6.83301 41.666 11.5 54.999s10.334 25.666 17.001 36.999c13.333 22.667 32.666 38.334 57.999 47.001
s62 13 110 13c42.667 0 77 -4 103 -12s46 -21 60 -39s23.333 -41.167 28 -69.5s7 -62.5 7 -102.5c0 -9.33301 -0.166992 -19.666 -0.5 -30.999s-0.833008 -23.333 -1.5 -36h-147c0 20 -0.166992 36.667 -0.5 50s-0.833008 24.333 -1.5 33s-1.5 15.5 -2.5 20.5l-2.5 12.5
c-2.66699 12.667 -16.667 19 -42 19c-12.667 0 -21.834 -1.5 -27.501 -4.5s-9.5 -7.83301 -11.5 -14.5c-2 -5.33301 -3.5 -11.5 -4.5 -18.5s-2 -17.667 -3 -32s-1.66699 -34.166 -2 -59.499s-0.5 -58.333 -0.5 -99c0 -42 0.166992 -75.667 0.5 -101s1 -45.333 2 -60
s2 -25.667 3 -33s2.5 -13.666 4.5 -18.999c2 -6.66699 6 -11.334 12 -14.001s16.667 -4 32 -4c20 0 32 5.66699 36 17c2.66699 6.66699 4.66699 13.667 6 21s2.33301 15.5 3 24.5s1.16699 19.333 1.5 31s0.5 25.167 0.5 40.5h145zM175.002 788.995l-124 167v6h123l48 -69h11
l46 69h124v-6l-125 -167h-103z" />
    <glyph glyph-name="Dcaron" unicode="&#x10e;" horiz-adv-x="471" 
d="M34 0v757h211c48 0 84.667 -4.5 110 -13.5s44.666 -24.5 57.999 -46.5c6.66699 -11.333 12.167 -23.5 16.5 -36.5s8 -30.833 11 -53.5s5.16699 -52 6.5 -88s2 -82.667 2 -140s-0.666992 -104.166 -2 -140.499s-3.5 -65.833 -6.5 -88.5s-6.66699 -40.667 -11 -54
s-9.83301 -25.333 -16.5 -36c-6.66699 -11.333 -14.667 -20.833 -24 -28.5s-20.666 -13.834 -33.999 -18.501s-29 -8 -47 -10s-39 -3 -63 -3h-211zM241 167c12.667 0 21.667 1.33008 27 3.99707s9.33301 7.33398 12 14.001c1.33301 4.66699 2.66602 10.167 3.99902 16.5
s2.33301 16.5 3 30.5s1.16699 32.833 1.5 56.5s0.5 54.834 0.5 93.501s-0.166992 70.167 -0.5 94.5s-0.833008 43.5 -1.5 57.5s-1.66699 24.333 -3 31s-2.66602 12.334 -3.99902 17.001c-2.66699 5.33301 -6.66699 9.33301 -12 12s-14.333 4 -27 4h-50v-431h50zM179 788.997
l-124 167v6h123l48 -69h11l46 69h124v-6l-125 -167h-103z" />
    <glyph glyph-name="dcaron" unicode="&#x10f;" horiz-adv-x="471" 
d="M34 0v757h211c48 0 84.667 -4.5 110 -13.5s44.666 -24.5 57.999 -46.5c6.66699 -11.333 12.167 -23.5 16.5 -36.5s8 -30.833 11 -53.5s5.16699 -52 6.5 -88s2 -82.667 2 -140s-0.666992 -104.166 -2 -140.499s-3.5 -65.833 -6.5 -88.5s-6.66699 -40.667 -11 -54
s-9.83301 -25.333 -16.5 -36c-6.66699 -11.333 -14.667 -20.833 -24 -28.5s-20.666 -13.834 -33.999 -18.501s-29 -8 -47 -10s-39 -3 -63 -3h-211zM241 167c12.667 0 21.667 1.33008 27 3.99707s9.33301 7.33398 12 14.001c1.33301 4.66699 2.66602 10.167 3.99902 16.5
s2.33301 16.5 3 30.5s1.16699 32.833 1.5 56.5s0.5 54.834 0.5 93.501s-0.166992 70.167 -0.5 94.5s-0.833008 43.5 -1.5 57.5s-1.66699 24.333 -3 31s-2.66602 12.334 -3.99902 17.001c-2.66699 5.33301 -6.66699 9.33301 -12 12s-14.333 4 -27 4h-50v-431h50zM179 788.997
l-124 167v6h123l48 -69h11l46 69h124v-6l-125 -167h-103z" />
    <glyph glyph-name="Dcroat" unicode="&#x110;" horiz-adv-x="471" 
d="M34 0v311h-34v153h34v293h211c48 0 84.667 -4.5 110 -13.5s44.666 -24.5 57.999 -46.5c6.66699 -11.333 12.167 -23.5 16.5 -36.5s8 -30.833 11 -53.5s5.16699 -52 6.5 -88s2 -82.667 2 -140s-0.666992 -104.166 -2 -140.499s-3.5 -65.833 -6.5 -88.5
s-6.66699 -40.667 -11 -54s-9.83301 -25.333 -16.5 -36c-6.66699 -11.333 -14.667 -20.833 -24 -28.5s-20.666 -13.834 -33.999 -18.501s-29 -8 -47 -10s-39 -3 -63 -3h-211zM244 167c12.667 0 21.667 1.33008 27 3.99707s9.33301 7.33398 12 14.001
c1.33301 4.66699 2.66602 10.167 3.99902 16.5s2.33301 16.5 3 30.5s1.16699 32.833 1.5 56.5s0.5 54.834 0.5 93.501s-0.166992 70.167 -0.5 94.5s-0.833008 43.5 -1.5 57.5s-1.66699 24.333 -3 31s-2.66602 12.334 -3.99902 17.001
c-2.66699 5.33301 -6.66699 9.33301 -12 12s-14.333 4 -27 4h-61v-134h69v-153h-69v-144h61z" />
    <glyph glyph-name="dcroat" unicode="&#x111;" horiz-adv-x="471" 
d="M34 0v311h-34v153h34v293h211c48 0 84.667 -4.5 110 -13.5s44.666 -24.5 57.999 -46.5c6.66699 -11.333 12.167 -23.5 16.5 -36.5s8 -30.833 11 -53.5s5.16699 -52 6.5 -88s2 -82.667 2 -140s-0.666992 -104.166 -2 -140.499s-3.5 -65.833 -6.5 -88.5
s-6.66699 -40.667 -11 -54s-9.83301 -25.333 -16.5 -36c-6.66699 -11.333 -14.667 -20.833 -24 -28.5s-20.666 -13.834 -33.999 -18.501s-29 -8 -47 -10s-39 -3 -63 -3h-211zM244 167c12.667 0 21.667 1.33008 27 3.99707s9.33301 7.33398 12 14.001
c1.33301 4.66699 2.66602 10.167 3.99902 16.5s2.33301 16.5 3 30.5s1.16699 32.833 1.5 56.5s0.5 54.834 0.5 93.501s-0.166992 70.167 -0.5 94.5s-0.833008 43.5 -1.5 57.5s-1.66699 24.333 -3 31s-2.66602 12.334 -3.99902 17.001
c-2.66699 5.33301 -6.66699 9.33301 -12 12s-14.333 4 -27 4h-61v-134h69v-153h-69v-144h61z" />
    <glyph glyph-name="Emacron" unicode="&#x112;" horiz-adv-x="398" 
d="M34 0v757h335v-160h-178v-133h175v-153h-175v-143h177v-168h-334zM2 823v106h400v-106h-400z" />
    <glyph glyph-name="emacron" unicode="&#x113;" horiz-adv-x="398" 
d="M34 0v757h335v-160h-178v-133h175v-153h-175v-143h177v-168h-334zM2 823v106h400v-106h-400z" />
    <glyph glyph-name="Ebreve" unicode="&#x114;" horiz-adv-x="398" 
d="M34 0v757h335v-160h-178v-133h175v-153h-175v-143h177v-168h-334zM367 962c0 -24.667 -0.669922 -45.001 -2.00293 -61.001s-3.16602 -29.167 -5.49902 -39.5s-5.16602 -18.666 -8.49902 -24.999s-7.33301 -11.833 -12 -16.5c-10.667 -12.667 -26.334 -21 -47.001 -25
s-50.667 -6 -90 -6c-38.667 0 -68.334 2 -89.001 6s-36.334 12.333 -47.001 25c-4.66699 4.66699 -8.66699 10.167 -12 16.5s-6.16602 14.666 -8.49902 24.999s-4.16602 23.5 -5.49902 39.5s-2 36.333 -2 61h102c0 -13.333 0.166992 -24.166 0.5 -32.499s1 -15 2 -20
s2.16699 -9 3.5 -12s3.33301 -5.5 6 -7.5c3.33301 -3.33301 8.33301 -5.5 15 -6.5s18.334 -1.5 35.001 -1.5c17.333 0 29.333 0.5 36 1.5s11.334 3.16699 14.001 6.5c2 2.66699 3.83301 5.33398 5.5 8.00098s3 6.5 4 11.5s1.83301 11.667 2.5 20s1 19.166 1 32.499h102z" />
    <glyph glyph-name="ebreve" unicode="&#x115;" horiz-adv-x="398" 
d="M34 0v757h335v-160h-178v-133h175v-153h-175v-143h177v-168h-334zM367 962c0 -24.667 -0.669922 -45.001 -2.00293 -61.001s-3.16602 -29.167 -5.49902 -39.5s-5.16602 -18.666 -8.49902 -24.999s-7.33301 -11.833 -12 -16.5c-10.667 -12.667 -26.334 -21 -47.001 -25
s-50.667 -6 -90 -6c-38.667 0 -68.334 2 -89.001 6s-36.334 12.333 -47.001 25c-4.66699 4.66699 -8.66699 10.167 -12 16.5s-6.16602 14.666 -8.49902 24.999s-4.16602 23.5 -5.49902 39.5s-2 36.333 -2 61h102c0 -13.333 0.166992 -24.166 0.5 -32.499s1 -15 2 -20
s2.16699 -9 3.5 -12s3.33301 -5.5 6 -7.5c3.33301 -3.33301 8.33301 -5.5 15 -6.5s18.334 -1.5 35.001 -1.5c17.333 0 29.333 0.5 36 1.5s11.334 3.16699 14.001 6.5c2 2.66699 3.83301 5.33398 5.5 8.00098s3 6.5 4 11.5s1.83301 11.667 2.5 20s1 19.166 1 32.499h102z" />
    <glyph glyph-name="Edotaccent" unicode="&#x116;" horiz-adv-x="398" 
d="M34 0v757h335v-160h-178v-133h175v-153h-175v-143h177v-168h-334zM138 810v123h135v-123h-135z" />
    <glyph glyph-name="edotaccent" unicode="&#x117;" horiz-adv-x="398" 
d="M34 0v757h335v-160h-178v-133h175v-153h-175v-143h177v-168h-334zM138 810v123h135v-123h-135z" />
    <glyph glyph-name="Eogonek" unicode="&#x118;" horiz-adv-x="398" 
d="M367 -200c-5.33301 -7.33301 -18.332 -15.5 -38.999 -24.5s-49 -13.5 -85 -13.5c-89.333 0 -134 35.333 -134 106c0 14 2.66699 28 8 42s15.333 27 30 39s35 22.5 61 31.5s59.333 15.5 100 19.5h-274v757h335v-160h-178v-133h175v-153h-175v-143h177v-168
c-12 -4 -24.167 -8.33301 -36.5 -13s-23.333 -9.66699 -33 -15s-17.5 -11.5 -23.5 -18.5s-9 -15.167 -9 -24.5c0 -16 3.66699 -27.667 11 -35s20.333 -11 39 -11c10.667 0 19.667 1.16699 27 3.5s13.666 4.5 18.999 6.5h5v-93z" />
    <glyph glyph-name="eogonek" unicode="&#x119;" horiz-adv-x="398" 
d="M367 -200c-5.33301 -7.33301 -18.332 -15.5 -38.999 -24.5s-49 -13.5 -85 -13.5c-89.333 0 -134 35.333 -134 106c0 14 2.66699 28 8 42s15.333 27 30 39s35 22.5 61 31.5s59.333 15.5 100 19.5h-274v757h335v-160h-178v-133h175v-153h-175v-143h177v-168
c-12 -4 -24.167 -8.33301 -36.5 -13s-23.333 -9.66699 -33 -15s-17.5 -11.5 -23.5 -18.5s-9 -15.167 -9 -24.5c0 -16 3.66699 -27.667 11 -35s20.333 -11 39 -11c10.667 0 19.667 1.16699 27 3.5s13.666 4.5 18.999 6.5h5v-93z" />
    <glyph glyph-name="Ecaron" unicode="&#x11a;" horiz-adv-x="398" 
d="M34 0v757h335v-160h-178v-133h175v-153h-175v-143h177v-168h-334zM150 789l-124 167v6h123l48 -69h11l46 69h124v-6l-125 -167h-103z" />
    <glyph glyph-name="ecaron" unicode="&#x11b;" horiz-adv-x="398" 
d="M34 0v757h335v-160h-178v-133h175v-153h-175v-143h177v-168h-334zM150 789l-124 167v6h123l48 -69h11l46 69h124v-6l-125 -167h-103z" />
    <glyph glyph-name="Gbreve" unicode="&#x11e;" horiz-adv-x="449" 
d="M286 293l-73.002 -0.00488281v152h214c0.666992 -13.333 1.16699 -32.666 1.5 -57.999s0.5 -55.666 0.5 -90.999c0 -41.333 -0.666992 -75.666 -2 -102.999s-3.5 -50 -6.5 -68s-6.66699 -32.667 -11 -44s-9.5 -22 -15.5 -32c-6.66699 -12 -14.5 -21.833 -23.5 -29.5
s-20.167 -14 -33.5 -19s-29 -8.5 -47 -10.5s-39 -3 -63 -3c-48.667 0 -85.5 4.5 -110.5 13.5s-44.167 25.167 -57.5 48.5c-6.66699 11.333 -12.334 23.833 -17.001 37.5s-8.5 32.5 -11.5 56.5s-5.16699 55 -6.5 93s-2 87.667 -2 149c0 58.667 0.666992 106.334 2 143.001
s3.5 66.667 6.5 90s6.83301 41.666 11.5 54.999s10.334 25.666 17.001 36.999c13.333 22.667 32.666 38.334 57.999 47.001s62 13 110 13c55.333 0 97 -7.16699 125 -21.5s47.667 -38.5 59 -72.5c8.66699 -28 13 -65 13 -111v-21.5c0 -5 -0.333008 -10.833 -1 -17.5h-146
c0.666992 2 1 4.16699 1 6.5v6.5c0 16.667 -0.666992 29 -2 37s-2.66602 14.667 -3.99902 20c-2.66699 12.667 -18 19 -46 19c-13.333 0 -23.166 -1.5 -29.499 -4.5s-10.833 -7.83301 -13.5 -14.5c-1.33301 -5.33301 -2.66602 -11.5 -3.99902 -18.5s-2.33301 -17.667 -3 -32
s-1.16699 -34.166 -1.5 -59.499s-0.5 -58.333 -0.5 -99c0 -43.333 0.166992 -77.833 0.5 -103.5s0.833008 -45.667 1.5 -60s1.5 -24.666 2.5 -30.999s2.16699 -11.833 3.5 -16.5c5.33301 -14.667 21.333 -22 48 -22c13.333 0 23.166 1.5 29.499 4.5s11.5 7.83301 15.5 14.5
c2 3.33301 3.83301 6.83301 5.5 10.5s2.83398 8.5 3.50098 14.5s1.16699 13.5 1.5 22.5s0.5 21.167 0.5 36.5v36zM390.998 961.995c0 -24.667 -0.669922 -45.001 -2.00293 -61.001s-3.16602 -29.167 -5.49902 -39.5s-5.16602 -18.666 -8.49902 -24.999
s-7.33301 -11.833 -12 -16.5c-10.667 -12.667 -26.334 -21 -47.001 -25s-50.667 -6 -90 -6c-38.667 0 -68.334 2 -89.001 6s-36.334 12.333 -47.001 25c-4.66699 4.66699 -8.66699 10.167 -12 16.5s-6.16602 14.666 -8.49902 24.999s-4.16602 23.5 -5.49902 39.5
s-2 36.333 -2 61h102c0 -13.333 0.166992 -24.166 0.5 -32.499s1 -15 2 -20s2.16699 -9 3.5 -12s3.33301 -5.5 6 -7.5c3.33301 -3.33301 8.33301 -5.5 15 -6.5s18.334 -1.5 35.001 -1.5c17.333 0 29.333 0.5 36 1.5s11.334 3.16699 14.001 6.5
c2 2.66699 3.83301 5.33398 5.5 8.00098s3 6.5 4 11.5s1.83301 11.667 2.5 20s1 19.166 1 32.499h102z" />
    <glyph glyph-name="gbreve" unicode="&#x11f;" horiz-adv-x="449" 
d="M286 293l-73.002 -0.00488281v152h214c0.666992 -13.333 1.16699 -32.666 1.5 -57.999s0.5 -55.666 0.5 -90.999c0 -41.333 -0.666992 -75.666 -2 -102.999s-3.5 -50 -6.5 -68s-6.66699 -32.667 -11 -44s-9.5 -22 -15.5 -32c-6.66699 -12 -14.5 -21.833 -23.5 -29.5
s-20.167 -14 -33.5 -19s-29 -8.5 -47 -10.5s-39 -3 -63 -3c-48.667 0 -85.5 4.5 -110.5 13.5s-44.167 25.167 -57.5 48.5c-6.66699 11.333 -12.334 23.833 -17.001 37.5s-8.5 32.5 -11.5 56.5s-5.16699 55 -6.5 93s-2 87.667 -2 149c0 58.667 0.666992 106.334 2 143.001
s3.5 66.667 6.5 90s6.83301 41.666 11.5 54.999s10.334 25.666 17.001 36.999c13.333 22.667 32.666 38.334 57.999 47.001s62 13 110 13c55.333 0 97 -7.16699 125 -21.5s47.667 -38.5 59 -72.5c8.66699 -28 13 -65 13 -111v-21.5c0 -5 -0.333008 -10.833 -1 -17.5h-146
c0.666992 2 1 4.16699 1 6.5v6.5c0 16.667 -0.666992 29 -2 37s-2.66602 14.667 -3.99902 20c-2.66699 12.667 -18 19 -46 19c-13.333 0 -23.166 -1.5 -29.499 -4.5s-10.833 -7.83301 -13.5 -14.5c-1.33301 -5.33301 -2.66602 -11.5 -3.99902 -18.5s-2.33301 -17.667 -3 -32
s-1.16699 -34.166 -1.5 -59.499s-0.5 -58.333 -0.5 -99c0 -43.333 0.166992 -77.833 0.5 -103.5s0.833008 -45.667 1.5 -60s1.5 -24.666 2.5 -30.999s2.16699 -11.833 3.5 -16.5c5.33301 -14.667 21.333 -22 48 -22c13.333 0 23.166 1.5 29.499 4.5s11.5 7.83301 15.5 14.5
c2 3.33301 3.83301 6.83301 5.5 10.5s2.83398 8.5 3.50098 14.5s1.16699 13.5 1.5 22.5s0.5 21.167 0.5 36.5v36zM390.998 961.995c0 -24.667 -0.669922 -45.001 -2.00293 -61.001s-3.16602 -29.167 -5.49902 -39.5s-5.16602 -18.666 -8.49902 -24.999
s-7.33301 -11.833 -12 -16.5c-10.667 -12.667 -26.334 -21 -47.001 -25s-50.667 -6 -90 -6c-38.667 0 -68.334 2 -89.001 6s-36.334 12.333 -47.001 25c-4.66699 4.66699 -8.66699 10.167 -12 16.5s-6.16602 14.666 -8.49902 24.999s-4.16602 23.5 -5.49902 39.5
s-2 36.333 -2 61h102c0 -13.333 0.166992 -24.166 0.5 -32.499s1 -15 2 -20s2.16699 -9 3.5 -12s3.33301 -5.5 6 -7.5c3.33301 -3.33301 8.33301 -5.5 15 -6.5s18.334 -1.5 35.001 -1.5c17.333 0 29.333 0.5 36 1.5s11.334 3.16699 14.001 6.5
c2 2.66699 3.83301 5.33398 5.5 8.00098s3 6.5 4 11.5s1.83301 11.667 2.5 20s1 19.166 1 32.499h102z" />
    <glyph glyph-name="Gdotaccent" unicode="&#x120;" horiz-adv-x="449" 
d="M286 293l-73.002 -0.00488281v152h214c0.666992 -13.333 1.16699 -32.666 1.5 -57.999s0.5 -55.666 0.5 -90.999c0 -41.333 -0.666992 -75.666 -2 -102.999s-3.5 -50 -6.5 -68s-6.66699 -32.667 -11 -44s-9.5 -22 -15.5 -32c-6.66699 -12 -14.5 -21.833 -23.5 -29.5
s-20.167 -14 -33.5 -19s-29 -8.5 -47 -10.5s-39 -3 -63 -3c-48.667 0 -85.5 4.5 -110.5 13.5s-44.167 25.167 -57.5 48.5c-6.66699 11.333 -12.334 23.833 -17.001 37.5s-8.5 32.5 -11.5 56.5s-5.16699 55 -6.5 93s-2 87.667 -2 149c0 58.667 0.666992 106.334 2 143.001
s3.5 66.667 6.5 90s6.83301 41.666 11.5 54.999s10.334 25.666 17.001 36.999c13.333 22.667 32.666 38.334 57.999 47.001s62 13 110 13c55.333 0 97 -7.16699 125 -21.5s47.667 -38.5 59 -72.5c8.66699 -28 13 -65 13 -111v-21.5c0 -5 -0.333008 -10.833 -1 -17.5h-146
c0.666992 2 1 4.16699 1 6.5v6.5c0 16.667 -0.666992 29 -2 37s-2.66602 14.667 -3.99902 20c-2.66699 12.667 -18 19 -46 19c-13.333 0 -23.166 -1.5 -29.499 -4.5s-10.833 -7.83301 -13.5 -14.5c-1.33301 -5.33301 -2.66602 -11.5 -3.99902 -18.5s-2.33301 -17.667 -3 -32
s-1.16699 -34.166 -1.5 -59.499s-0.5 -58.333 -0.5 -99c0 -43.333 0.166992 -77.833 0.5 -103.5s0.833008 -45.667 1.5 -60s1.5 -24.666 2.5 -30.999s2.16699 -11.833 3.5 -16.5c5.33301 -14.667 21.333 -22 48 -22c13.333 0 23.166 1.5 29.499 4.5s11.5 7.83301 15.5 14.5
c2 3.33301 3.83301 6.83301 5.5 10.5s2.83398 8.5 3.50098 14.5s1.16699 13.5 1.5 22.5s0.5 21.167 0.5 36.5v36zM158.998 809.995v123h135v-123h-135z" />
    <glyph glyph-name="gdotaccent" unicode="&#x121;" horiz-adv-x="449" 
d="M286 293l-73.002 -0.00488281v152h214c0.666992 -13.333 1.16699 -32.666 1.5 -57.999s0.5 -55.666 0.5 -90.999c0 -41.333 -0.666992 -75.666 -2 -102.999s-3.5 -50 -6.5 -68s-6.66699 -32.667 -11 -44s-9.5 -22 -15.5 -32c-6.66699 -12 -14.5 -21.833 -23.5 -29.5
s-20.167 -14 -33.5 -19s-29 -8.5 -47 -10.5s-39 -3 -63 -3c-48.667 0 -85.5 4.5 -110.5 13.5s-44.167 25.167 -57.5 48.5c-6.66699 11.333 -12.334 23.833 -17.001 37.5s-8.5 32.5 -11.5 56.5s-5.16699 55 -6.5 93s-2 87.667 -2 149c0 58.667 0.666992 106.334 2 143.001
s3.5 66.667 6.5 90s6.83301 41.666 11.5 54.999s10.334 25.666 17.001 36.999c13.333 22.667 32.666 38.334 57.999 47.001s62 13 110 13c55.333 0 97 -7.16699 125 -21.5s47.667 -38.5 59 -72.5c8.66699 -28 13 -65 13 -111v-21.5c0 -5 -0.333008 -10.833 -1 -17.5h-146
c0.666992 2 1 4.16699 1 6.5v6.5c0 16.667 -0.666992 29 -2 37s-2.66602 14.667 -3.99902 20c-2.66699 12.667 -18 19 -46 19c-13.333 0 -23.166 -1.5 -29.499 -4.5s-10.833 -7.83301 -13.5 -14.5c-1.33301 -5.33301 -2.66602 -11.5 -3.99902 -18.5s-2.33301 -17.667 -3 -32
s-1.16699 -34.166 -1.5 -59.499s-0.5 -58.333 -0.5 -99c0 -43.333 0.166992 -77.833 0.5 -103.5s0.833008 -45.667 1.5 -60s1.5 -24.666 2.5 -30.999s2.16699 -11.833 3.5 -16.5c5.33301 -14.667 21.333 -22 48 -22c13.333 0 23.166 1.5 29.499 4.5s11.5 7.83301 15.5 14.5
c2 3.33301 3.83301 6.83301 5.5 10.5s2.83398 8.5 3.50098 14.5s1.16699 13.5 1.5 22.5s0.5 21.167 0.5 36.5v36zM158.998 809.995v123h135v-123h-135z" />
    <glyph glyph-name="Gcommaaccent" unicode="&#x122;" horiz-adv-x="449" 
d="M286 293l-73.002 -0.00488281v152h214c0.666992 -13.333 1.16699 -32.666 1.5 -57.999s0.5 -55.666 0.5 -90.999c0 -41.333 -0.666992 -75.666 -2 -102.999s-3.5 -50 -6.5 -68s-6.66699 -32.667 -11 -44s-9.5 -22 -15.5 -32c-6.66699 -12 -14.5 -21.833 -23.5 -29.5
s-20.167 -14 -33.5 -19s-29 -8.5 -47 -10.5s-39 -3 -63 -3c-48.667 0 -85.5 4.5 -110.5 13.5s-44.167 25.167 -57.5 48.5c-6.66699 11.333 -12.334 23.833 -17.001 37.5s-8.5 32.5 -11.5 56.5s-5.16699 55 -6.5 93s-2 87.667 -2 149c0 58.667 0.666992 106.334 2 143.001
s3.5 66.667 6.5 90s6.83301 41.666 11.5 54.999s10.334 25.666 17.001 36.999c13.333 22.667 32.666 38.334 57.999 47.001s62 13 110 13c55.333 0 97 -7.16699 125 -21.5s47.667 -38.5 59 -72.5c8.66699 -28 13 -65 13 -111v-21.5c0 -5 -0.333008 -10.833 -1 -17.5h-146
c0.666992 2 1 4.16699 1 6.5v6.5c0 16.667 -0.666992 29 -2 37s-2.66602 14.667 -3.99902 20c-2.66699 12.667 -18 19 -46 19c-13.333 0 -23.166 -1.5 -29.499 -4.5s-10.833 -7.83301 -13.5 -14.5c-1.33301 -5.33301 -2.66602 -11.5 -3.99902 -18.5s-2.33301 -17.667 -3 -32
s-1.16699 -34.166 -1.5 -59.499s-0.5 -58.333 -0.5 -99c0 -43.333 0.166992 -77.833 0.5 -103.5s0.833008 -45.667 1.5 -60s1.5 -24.666 2.5 -30.999s2.16699 -11.833 3.5 -16.5c5.33301 -14.667 21.333 -22 48 -22c13.333 0 23.166 1.5 29.499 4.5s11.5 7.83301 15.5 14.5
c2 3.33301 3.83301 6.83301 5.5 10.5s2.83398 8.5 3.50098 14.5s1.16699 13.5 1.5 22.5s0.5 21.167 0.5 36.5v36zM106.998 -238.005v5l57 192h136v-6l-80 -191h-113z" />
    <glyph glyph-name="gcommaaccent" unicode="&#x123;" horiz-adv-x="449" 
d="M286 293l-73.002 -0.00488281v152h214c0.666992 -13.333 1.16699 -32.666 1.5 -57.999s0.5 -55.666 0.5 -90.999c0 -41.333 -0.666992 -75.666 -2 -102.999s-3.5 -50 -6.5 -68s-6.66699 -32.667 -11 -44s-9.5 -22 -15.5 -32c-6.66699 -12 -14.5 -21.833 -23.5 -29.5
s-20.167 -14 -33.5 -19s-29 -8.5 -47 -10.5s-39 -3 -63 -3c-48.667 0 -85.5 4.5 -110.5 13.5s-44.167 25.167 -57.5 48.5c-6.66699 11.333 -12.334 23.833 -17.001 37.5s-8.5 32.5 -11.5 56.5s-5.16699 55 -6.5 93s-2 87.667 -2 149c0 58.667 0.666992 106.334 2 143.001
s3.5 66.667 6.5 90s6.83301 41.666 11.5 54.999s10.334 25.666 17.001 36.999c13.333 22.667 32.666 38.334 57.999 47.001s62 13 110 13c55.333 0 97 -7.16699 125 -21.5s47.667 -38.5 59 -72.5c8.66699 -28 13 -65 13 -111v-21.5c0 -5 -0.333008 -10.833 -1 -17.5h-146
c0.666992 2 1 4.16699 1 6.5v6.5c0 16.667 -0.666992 29 -2 37s-2.66602 14.667 -3.99902 20c-2.66699 12.667 -18 19 -46 19c-13.333 0 -23.166 -1.5 -29.499 -4.5s-10.833 -7.83301 -13.5 -14.5c-1.33301 -5.33301 -2.66602 -11.5 -3.99902 -18.5s-2.33301 -17.667 -3 -32
s-1.16699 -34.166 -1.5 -59.499s-0.5 -58.333 -0.5 -99c0 -43.333 0.166992 -77.833 0.5 -103.5s0.833008 -45.667 1.5 -60s1.5 -24.666 2.5 -30.999s2.16699 -11.833 3.5 -16.5c5.33301 -14.667 21.333 -22 48 -22c13.333 0 23.166 1.5 29.499 4.5s11.5 7.83301 15.5 14.5
c2 3.33301 3.83301 6.83301 5.5 10.5s2.83398 8.5 3.50098 14.5s1.16699 13.5 1.5 22.5s0.5 21.167 0.5 36.5v36zM106.998 -238.005v5l57 192h136v-6l-80 -191h-113z" />
    <glyph glyph-name="Hbar" unicode="&#x126;" horiz-adv-x="484" 
d="M291 0v285h-98v-285h-161v757h161v-113h98v113h161v-757h-161zM291 538h-98v-100h98v100z" />
    <glyph glyph-name="hbar" unicode="&#x127;" horiz-adv-x="484" 
d="M291 0v285h-98v-285h-161v757h161v-113h98v113h161v-757h-161zM291 538h-98v-100h98v100z" />
    <glyph glyph-name="Imacron" unicode="&#x12a;" horiz-adv-x="233" 
d="M36 0v757h161v-757h-161zM-83 823v106h400v-106h-400z" />
    <glyph glyph-name="imacron" unicode="&#x12b;" horiz-adv-x="233" 
d="M36 0v757h161v-757h-161zM-83 823v106h400v-106h-400z" />
    <glyph glyph-name="Ibreve" unicode="&#x12c;" horiz-adv-x="233" 
d="M36 0v757h161v-757h-161zM281 962c0 -24.667 -0.669922 -45.001 -2.00293 -61.001s-3.16602 -29.167 -5.49902 -39.5s-5.16602 -18.666 -8.49902 -24.999s-7.33301 -11.833 -12 -16.5c-10.667 -12.667 -26.334 -21 -47.001 -25s-50.667 -6 -90 -6
c-38.667 0 -68.334 2 -89.001 6s-36.334 12.333 -47.001 25c-4.66699 4.66699 -8.66699 10.167 -12 16.5s-6.16602 14.666 -8.49902 24.999s-4.16602 23.5 -5.49902 39.5s-2 36.333 -2 61h102c0 -13.333 0.166992 -24.166 0.5 -32.499s1 -15 2 -20s2.16699 -9 3.5 -12
s3.33301 -5.5 6 -7.5c3.33301 -3.33301 8.33301 -5.5 15 -6.5s18.334 -1.5 35.001 -1.5c17.333 0 29.333 0.5 36 1.5s11.334 3.16699 14.001 6.5c2 2.66699 3.83301 5.33398 5.5 8.00098s3 6.5 4 11.5s1.83301 11.667 2.5 20s1 19.166 1 32.499h102z" />
    <glyph glyph-name="ibreve" unicode="&#x12d;" horiz-adv-x="233" 
d="M36 0v757h161v-757h-161zM281 962c0 -24.667 -0.669922 -45.001 -2.00293 -61.001s-3.16602 -29.167 -5.49902 -39.5s-5.16602 -18.666 -8.49902 -24.999s-7.33301 -11.833 -12 -16.5c-10.667 -12.667 -26.334 -21 -47.001 -25s-50.667 -6 -90 -6
c-38.667 0 -68.334 2 -89.001 6s-36.334 12.333 -47.001 25c-4.66699 4.66699 -8.66699 10.167 -12 16.5s-6.16602 14.666 -8.49902 24.999s-4.16602 23.5 -5.49902 39.5s-2 36.333 -2 61h102c0 -13.333 0.166992 -24.166 0.5 -32.499s1 -15 2 -20s2.16699 -9 3.5 -12
s3.33301 -5.5 6 -7.5c3.33301 -3.33301 8.33301 -5.5 15 -6.5s18.334 -1.5 35.001 -1.5c17.333 0 29.333 0.5 36 1.5s11.334 3.16699 14.001 6.5c2 2.66699 3.83301 5.33398 5.5 8.00098s3 6.5 4 11.5s1.83301 11.667 2.5 20s1 19.166 1 32.499h102z" />
    <glyph glyph-name="Iogonek" unicode="&#x12e;" horiz-adv-x="233" 
d="M196 -200c-5.33301 -7.33301 -18.332 -15.5 -38.999 -24.5s-49 -13.5 -85 -13.5c-89.333 0 -134 35.333 -134 106c0 10.667 1.5 21.167 4.5 31.5s8.16699 20.5 15.5 30.5s17.333 19.167 30 27.5s28.667 15.833 48 22.5v777h161v-757c-12 -4 -24.167 -8.33301 -36.5 -13
s-23.333 -9.66699 -33 -15s-17.5 -11.5 -23.5 -18.5s-9 -15.167 -9 -24.5c0 -16 3.66699 -27.667 11 -35s20.333 -11 39 -11c10.667 0 19.667 1.16699 27 3.5s13.666 4.5 18.999 6.5h5v-93z" />
    <glyph glyph-name="iogonek" unicode="&#x12f;" horiz-adv-x="233" 
d="M196 -200c-5.33301 -7.33301 -18.332 -15.5 -38.999 -24.5s-49 -13.5 -85 -13.5c-89.333 0 -134 35.333 -134 106c0 10.667 1.5 21.167 4.5 31.5s8.16699 20.5 15.5 30.5s17.333 19.167 30 27.5s28.667 15.833 48 22.5v777h161v-757c-12 -4 -24.167 -8.33301 -36.5 -13
s-23.333 -9.66699 -33 -15s-17.5 -11.5 -23.5 -18.5s-9 -15.167 -9 -24.5c0 -16 3.66699 -27.667 11 -35s20.333 -11 39 -11c10.667 0 19.667 1.16699 27 3.5s13.666 4.5 18.999 6.5h5v-93z" />
    <glyph glyph-name="Idotaccent" unicode="&#x130;" horiz-adv-x="233" 
d="M36 0v757h161v-757h-161zM49 810v123h135v-123h-135z" />
    <glyph glyph-name="dotlessi" unicode="&#x131;" horiz-adv-x="233" 
d="M36 0v757h161v-757h-161z" />
    <glyph glyph-name="IJ" unicode="&#x132;" horiz-adv-x="676" 
d="M36 0v757h161v-757h-161zM488 757l161.001 0.00195312v-367c0 -57.333 -0.666992 -105.333 -2 -144s-3.5 -70.834 -6.5 -96.501s-6.66699 -46.167 -11 -61.5s-9.83301 -28.333 -16.5 -39c-6.66699 -11.333 -14.667 -21 -24 -29s-20.833 -14.5 -34.5 -19.5
s-30 -8.5 -49 -10.5s-40.833 -3 -65.5 -3c-42 0 -75.833 4.66699 -101.5 14s-45.5 23.666 -59.5 42.999s-23.167 43.833 -27.5 73.5s-6.5 64.5 -6.5 104.5c0 21.333 1 44 3 68h140c0 -15.333 0.166992 -28.833 0.5 -40.5s0.833008 -22 1.5 -31s1.66699 -17.167 3 -24.5
s3 -14.333 5 -21c4.66699 -11.333 16.667 -17 36 -17c15.333 0 26 1.33301 32 4s10.333 7.33398 13 14.001c1.33301 5.33301 2.66602 11.666 3.99902 18.999s2.33301 18.333 3 33s1.16699 34.5 1.5 59.5s0.5 58.5 0.5 100.5v371z" />
    <glyph glyph-name="ij" unicode="&#x133;" horiz-adv-x="676" 
d="M36 0v757h161v-757h-161zM488 757l161.001 0.00195312v-367c0 -57.333 -0.666992 -105.333 -2 -144s-3.5 -70.834 -6.5 -96.501s-6.66699 -46.167 -11 -61.5s-9.83301 -28.333 -16.5 -39c-6.66699 -11.333 -14.667 -21 -24 -29s-20.833 -14.5 -34.5 -19.5
s-30 -8.5 -49 -10.5s-40.833 -3 -65.5 -3c-42 0 -75.833 4.66699 -101.5 14s-45.5 23.666 -59.5 42.999s-23.167 43.833 -27.5 73.5s-6.5 64.5 -6.5 104.5c0 21.333 1 44 3 68h140c0 -15.333 0.166992 -28.833 0.5 -40.5s0.833008 -22 1.5 -31s1.66699 -17.167 3 -24.5
s3 -14.333 5 -21c4.66699 -11.333 16.667 -17 36 -17c15.333 0 26 1.33301 32 4s10.333 7.33398 13 14.001c1.33301 5.33301 2.66602 11.666 3.99902 18.999s2.33301 18.333 3 33s1.16699 34.5 1.5 59.5s0.5 58.5 0.5 100.5v371z" />
    <glyph glyph-name="Kcommaaccent" unicode="&#x136;" horiz-adv-x="488" 
d="M298 0l-95 340.001h-10c1.33301 -8.66699 2 -17.834 2 -27.501v-28.5v-284h-161v757h161v-276c0 -8 -0.166992 -15.167 -0.5 -21.5s-0.833008 -12.833 -1.5 -19.5h10l101 317h165v-5l-115 -338l124 -409v-5h-180zM119 -237.999v5l57 192h136v-6l-80 -191h-113z" />
    <glyph glyph-name="kcommaaccent" unicode="&#x137;" horiz-adv-x="488" 
d="M298 0l-95 340.001h-10c1.33301 -8.66699 2 -17.834 2 -27.501v-28.5v-284h-161v757h161v-276c0 -8 -0.166992 -15.167 -0.5 -21.5s-0.833008 -12.833 -1.5 -19.5h10l101 317h165v-5l-115 -338l124 -409v-5h-180zM119 -237.999v5l57 192h136v-6l-80 -191h-113z" />
    <glyph glyph-name="Lacute" unicode="&#x139;" horiz-adv-x="366" 
d="M34 0v757h157v-589h162v-168h-319zM117 789v5l91 168h141v-6l-115 -167h-117z" />
    <glyph glyph-name="lacute" unicode="&#x13a;" horiz-adv-x="366" 
d="M34 0v757h157v-589h162v-168h-319zM117 789v5l91 168h141v-6l-115 -167h-117z" />
    <glyph glyph-name="Lcommaaccent" unicode="&#x13b;" horiz-adv-x="366" 
d="M34 0v757h157v-589h162v-168h-319zM72 -238v5l57 192h136v-6l-80 -191h-113z" />
    <glyph glyph-name="lcommaaccent" unicode="&#x13c;" horiz-adv-x="366" 
d="M34 0v757h157v-589h162v-168h-319zM72 -238v5l57 192h136v-6l-80 -191h-113z" />
    <glyph glyph-name="Lcaron" unicode="&#x13d;" horiz-adv-x="389" 
d="M34 0v757h157v-589h162v-168h-319zM214 591v5l57 192h136v-6l-80 -191h-113z" />
    <glyph glyph-name="lcaron" unicode="&#x13e;" horiz-adv-x="389" 
d="M34 0v757h157v-589h162v-168h-319zM214 591v5l57 192h136v-6l-80 -191h-113z" />
    <glyph glyph-name="Ldot" unicode="&#x13f;" horiz-adv-x="373" 
d="M34 0v757h157v-589h162v-168h-319zM234 347v123h135v-123h-135z" />
    <glyph glyph-name="ldot" unicode="&#x140;" horiz-adv-x="373" 
d="M34 0v757h157v-589h162v-168h-319zM234 347v123h135v-123h-135z" />
    <glyph glyph-name="Lslash" unicode="&#x141;" horiz-adv-x="366" 
d="M34 0v390l-29 -15h-5v123l34 18v241h157v-157l108 58h5v-122l-113 -61v-307h162v-168h-319z" />
    <glyph glyph-name="lslash" unicode="&#x142;" horiz-adv-x="366" 
d="M34 0v390l-29 -15h-5v123l34 18v241h157v-157l108 58h5v-122l-113 -61v-307h162v-168h-319z" />
    <glyph glyph-name="Nacute" unicode="&#x143;" horiz-adv-x="475" 
d="M361 0l-179 406h-6v-406h-143v757h154l106 -263h6v263h144v-757h-82zM171 789v5l91 168h141v-6l-115 -167h-117z" />
    <glyph glyph-name="nacute" unicode="&#x144;" horiz-adv-x="475" 
d="M361 0l-179 406h-6v-406h-143v757h154l106 -263h6v263h144v-757h-82zM171 789v5l91 168h141v-6l-115 -167h-117z" />
    <glyph glyph-name="Ncommaaccent" unicode="&#x145;" horiz-adv-x="475" 
d="M361 0l-179 406h-6v-406h-143v757h154l106 -263h6v263h144v-757h-82zM141 -238v5l57 192h136v-6l-80 -191h-113z" />
    <glyph glyph-name="ncommaaccent" unicode="&#x146;" horiz-adv-x="475" 
d="M361 0l-179 406h-6v-406h-143v757h154l106 -263h6v263h144v-757h-82zM141 -238v5l57 192h136v-6l-80 -191h-113z" />
    <glyph glyph-name="Ncaron" unicode="&#x147;" horiz-adv-x="475" 
d="M361 0l-179 406h-6v-406h-143v757h154l106 -263h6v263h144v-757h-82zM185 789l-124 167v6h123l48 -69h11l46 69h124v-6l-125 -167h-103z" />
    <glyph glyph-name="ncaron" unicode="&#x148;" horiz-adv-x="475" 
d="M361 0l-179 406h-6v-406h-143v757h154l106 -263h6v263h144v-757h-82zM185 789l-124 167v6h123l48 -69h11l46 69h124v-6l-125 -167h-103z" />
    <glyph glyph-name="Eng" unicode="&#x14a;" horiz-adv-x="475" 
d="M187 -104l6.99805 0.00683594c14.667 -3.33301 30.667 -5 48 -5c12 0 21.833 1 29.5 3s13.5 5.66699 17.5 11s6.66699 12.666 8 21.999s2 21.666 2 36.999v176l-117 266h-6v-406h-143v757h154l106 -263h6v263h144v-796c0 -22 -0.666992 -40.667 -2 -56
s-3.16602 -28.833 -5.49902 -40.5s-5.66602 -21.834 -9.99902 -30.501s-9.5 -17.334 -15.5 -26.001s-12.667 -15.834 -20 -21.501s-16.5 -10.334 -27.5 -14.001s-24.167 -6.33398 -39.5 -8.00098s-34 -2.5 -56 -2.5c-4 0 -10 0.333008 -18 1s-16.167 1.5 -24.5 2.5
s-16 2.33301 -23 4s-11.833 3.5 -14.5 5.5v121z" />
    <glyph glyph-name="eng" unicode="&#x14b;" horiz-adv-x="475" 
d="M187 -104l6.99805 0.00683594c14.667 -3.33301 30.667 -5 48 -5c12 0 21.833 1 29.5 3s13.5 5.66699 17.5 11s6.66699 12.666 8 21.999s2 21.666 2 36.999v176l-117 266h-6v-406h-143v757h154l106 -263h6v263h144v-796c0 -22 -0.666992 -40.667 -2 -56
s-3.16602 -28.833 -5.49902 -40.5s-5.66602 -21.834 -9.99902 -30.501s-9.5 -17.334 -15.5 -26.001s-12.667 -15.834 -20 -21.501s-16.5 -10.334 -27.5 -14.001s-24.167 -6.33398 -39.5 -8.00098s-34 -2.5 -56 -2.5c-4 0 -10 0.333008 -18 1s-16.167 1.5 -24.5 2.5
s-16 2.33301 -23 4s-11.833 3.5 -14.5 5.5v121z" />
    <glyph glyph-name="Omacron" unicode="&#x14c;" 
d="M394 49c-6.66699 -12 -14.499 -21.833 -23.499 -29.5s-20.167 -14 -33.5 -19s-29 -8.5 -47 -10.5s-39 -3 -63 -3c-48.667 0 -85.5 4.5 -110.5 13.5s-44.167 25.167 -57.5 48.5c-6.66699 11.333 -12.334 23.833 -17.001 37.5s-8.5 32.167 -11.5 55.5
s-5.16699 53.833 -6.5 91.5s-2 86.167 -2 145.5s0.666992 107.666 2 144.999s3.5 67.666 6.5 90.999s6.83301 41.666 11.5 54.999s10.334 26 17.001 38c6.66699 11.333 14.5 21 23.5 29s20.167 14.5 33.5 19.5s29.166 8.5 47.499 10.5s39.5 3 63.5 3
c48 0 84.5 -4.66699 109.5 -14s44.167 -25.333 57.5 -48c6.66699 -12 12.334 -24.667 17.001 -38s8.5 -31.666 11.5 -54.999s5.16699 -53.666 6.5 -90.999s2 -85.666 2 -144.999s-0.666992 -107.833 -2 -145.5s-3.5 -68.167 -6.5 -91.5s-6.83301 -41.833 -11.5 -55.5
s-10.334 -26.167 -17.001 -37.5zM266.001 174c1.33301 4.66699 2.66602 10.667 3.99902 18s2.33301 18.333 3 33s1.16699 34.5 1.5 59.5s0.5 57.833 0.5 98.5c0 42 -0.166992 75.667 -0.5 101s-0.833008 45.5 -1.5 60.5s-1.66699 26.167 -3 33.5
s-2.66602 13.333 -3.99902 18c-2.66699 6.66699 -6.66699 11.5 -12 14.5s-14.333 4.5 -27 4.5s-21.834 -1.5 -27.501 -4.5s-9.5 -7.83301 -11.5 -14.5c-2 -4.66699 -3.5 -10.667 -4.5 -18s-2 -18.5 -3 -33.5s-1.66699 -35.167 -2 -60.5s-0.5 -59 -0.5 -101
c0 -40.667 0.166992 -73.5 0.5 -98.5s1 -44.833 2 -59.5s2 -25.667 3 -33s2.5 -13.333 4.5 -18c2 -6.66699 5.83301 -11.334 11.5 -14.001s14.834 -4 27.501 -4s21.667 1.33301 27 4s9.33301 7.33398 12 14.001zM27.001 823v106h400v-106h-400z" />
    <glyph glyph-name="omacron" unicode="&#x14d;" 
d="M394 49c-6.66699 -12 -14.499 -21.833 -23.499 -29.5s-20.167 -14 -33.5 -19s-29 -8.5 -47 -10.5s-39 -3 -63 -3c-48.667 0 -85.5 4.5 -110.5 13.5s-44.167 25.167 -57.5 48.5c-6.66699 11.333 -12.334 23.833 -17.001 37.5s-8.5 32.167 -11.5 55.5
s-5.16699 53.833 -6.5 91.5s-2 86.167 -2 145.5s0.666992 107.666 2 144.999s3.5 67.666 6.5 90.999s6.83301 41.666 11.5 54.999s10.334 26 17.001 38c6.66699 11.333 14.5 21 23.5 29s20.167 14.5 33.5 19.5s29.166 8.5 47.499 10.5s39.5 3 63.5 3
c48 0 84.5 -4.66699 109.5 -14s44.167 -25.333 57.5 -48c6.66699 -12 12.334 -24.667 17.001 -38s8.5 -31.666 11.5 -54.999s5.16699 -53.666 6.5 -90.999s2 -85.666 2 -144.999s-0.666992 -107.833 -2 -145.5s-3.5 -68.167 -6.5 -91.5s-6.83301 -41.833 -11.5 -55.5
s-10.334 -26.167 -17.001 -37.5zM266.001 174c1.33301 4.66699 2.66602 10.667 3.99902 18s2.33301 18.333 3 33s1.16699 34.5 1.5 59.5s0.5 57.833 0.5 98.5c0 42 -0.166992 75.667 -0.5 101s-0.833008 45.5 -1.5 60.5s-1.66699 26.167 -3 33.5
s-2.66602 13.333 -3.99902 18c-2.66699 6.66699 -6.66699 11.5 -12 14.5s-14.333 4.5 -27 4.5s-21.834 -1.5 -27.501 -4.5s-9.5 -7.83301 -11.5 -14.5c-2 -4.66699 -3.5 -10.667 -4.5 -18s-2 -18.5 -3 -33.5s-1.66699 -35.167 -2 -60.5s-0.5 -59 -0.5 -101
c0 -40.667 0.166992 -73.5 0.5 -98.5s1 -44.833 2 -59.5s2 -25.667 3 -33s2.5 -13.333 4.5 -18c2 -6.66699 5.83301 -11.334 11.5 -14.001s14.834 -4 27.501 -4s21.667 1.33301 27 4s9.33301 7.33398 12 14.001zM27.001 823v106h400v-106h-400z" />
    <glyph glyph-name="Obreve" unicode="&#x14e;" 
d="M394 49c-6.66699 -12 -14.499 -21.833 -23.499 -29.5s-20.167 -14 -33.5 -19s-29 -8.5 -47 -10.5s-39 -3 -63 -3c-48.667 0 -85.5 4.5 -110.5 13.5s-44.167 25.167 -57.5 48.5c-6.66699 11.333 -12.334 23.833 -17.001 37.5s-8.5 32.167 -11.5 55.5
s-5.16699 53.833 -6.5 91.5s-2 86.167 -2 145.5s0.666992 107.666 2 144.999s3.5 67.666 6.5 90.999s6.83301 41.666 11.5 54.999s10.334 26 17.001 38c6.66699 11.333 14.5 21 23.5 29s20.167 14.5 33.5 19.5s29.166 8.5 47.499 10.5s39.5 3 63.5 3
c48 0 84.5 -4.66699 109.5 -14s44.167 -25.333 57.5 -48c6.66699 -12 12.334 -24.667 17.001 -38s8.5 -31.666 11.5 -54.999s5.16699 -53.666 6.5 -90.999s2 -85.666 2 -144.999s-0.666992 -107.833 -2 -145.5s-3.5 -68.167 -6.5 -91.5s-6.83301 -41.833 -11.5 -55.5
s-10.334 -26.167 -17.001 -37.5zM266.001 174c1.33301 4.66699 2.66602 10.667 3.99902 18s2.33301 18.333 3 33s1.16699 34.5 1.5 59.5s0.5 57.833 0.5 98.5c0 42 -0.166992 75.667 -0.5 101s-0.833008 45.5 -1.5 60.5s-1.66699 26.167 -3 33.5
s-2.66602 13.333 -3.99902 18c-2.66699 6.66699 -6.66699 11.5 -12 14.5s-14.333 4.5 -27 4.5s-21.834 -1.5 -27.501 -4.5s-9.5 -7.83301 -11.5 -14.5c-2 -4.66699 -3.5 -10.667 -4.5 -18s-2 -18.5 -3 -33.5s-1.66699 -35.167 -2 -60.5s-0.5 -59 -0.5 -101
c0 -40.667 0.166992 -73.5 0.5 -98.5s1 -44.833 2 -59.5s2 -25.667 3 -33s2.5 -13.333 4.5 -18c2 -6.66699 5.83301 -11.334 11.5 -14.001s14.834 -4 27.501 -4s21.667 1.33301 27 4s9.33301 7.33398 12 14.001zM391.001 962c0 -24.667 -0.669922 -45.001 -2.00293 -61.001
s-3.16602 -29.167 -5.49902 -39.5s-5.16602 -18.666 -8.49902 -24.999s-7.33301 -11.833 -12 -16.5c-10.667 -12.667 -26.334 -21 -47.001 -25s-50.667 -6 -90 -6c-38.667 0 -68.334 2 -89.001 6s-36.334 12.333 -47.001 25c-4.66699 4.66699 -8.66699 10.167 -12 16.5
s-6.16602 14.666 -8.49902 24.999s-4.16602 23.5 -5.49902 39.5s-2 36.333 -2 61h102c0 -13.333 0.166992 -24.166 0.5 -32.499s1 -15 2 -20s2.16699 -9 3.5 -12s3.33301 -5.5 6 -7.5c3.33301 -3.33301 8.33301 -5.5 15 -6.5s18.334 -1.5 35.001 -1.5
c17.333 0 29.333 0.5 36 1.5s11.334 3.16699 14.001 6.5c2 2.66699 3.83301 5.33398 5.5 8.00098s3 6.5 4 11.5s1.83301 11.667 2.5 20s1 19.166 1 32.499h102z" />
    <glyph glyph-name="obreve" unicode="&#x14f;" 
d="M394 49c-6.66699 -12 -14.499 -21.833 -23.499 -29.5s-20.167 -14 -33.5 -19s-29 -8.5 -47 -10.5s-39 -3 -63 -3c-48.667 0 -85.5 4.5 -110.5 13.5s-44.167 25.167 -57.5 48.5c-6.66699 11.333 -12.334 23.833 -17.001 37.5s-8.5 32.167 -11.5 55.5
s-5.16699 53.833 -6.5 91.5s-2 86.167 -2 145.5s0.666992 107.666 2 144.999s3.5 67.666 6.5 90.999s6.83301 41.666 11.5 54.999s10.334 26 17.001 38c6.66699 11.333 14.5 21 23.5 29s20.167 14.5 33.5 19.5s29.166 8.5 47.499 10.5s39.5 3 63.5 3
c48 0 84.5 -4.66699 109.5 -14s44.167 -25.333 57.5 -48c6.66699 -12 12.334 -24.667 17.001 -38s8.5 -31.666 11.5 -54.999s5.16699 -53.666 6.5 -90.999s2 -85.666 2 -144.999s-0.666992 -107.833 -2 -145.5s-3.5 -68.167 -6.5 -91.5s-6.83301 -41.833 -11.5 -55.5
s-10.334 -26.167 -17.001 -37.5zM266.001 174c1.33301 4.66699 2.66602 10.667 3.99902 18s2.33301 18.333 3 33s1.16699 34.5 1.5 59.5s0.5 57.833 0.5 98.5c0 42 -0.166992 75.667 -0.5 101s-0.833008 45.5 -1.5 60.5s-1.66699 26.167 -3 33.5
s-2.66602 13.333 -3.99902 18c-2.66699 6.66699 -6.66699 11.5 -12 14.5s-14.333 4.5 -27 4.5s-21.834 -1.5 -27.501 -4.5s-9.5 -7.83301 -11.5 -14.5c-2 -4.66699 -3.5 -10.667 -4.5 -18s-2 -18.5 -3 -33.5s-1.66699 -35.167 -2 -60.5s-0.5 -59 -0.5 -101
c0 -40.667 0.166992 -73.5 0.5 -98.5s1 -44.833 2 -59.5s2 -25.667 3 -33s2.5 -13.333 4.5 -18c2 -6.66699 5.83301 -11.334 11.5 -14.001s14.834 -4 27.501 -4s21.667 1.33301 27 4s9.33301 7.33398 12 14.001zM391.001 962c0 -24.667 -0.669922 -45.001 -2.00293 -61.001
s-3.16602 -29.167 -5.49902 -39.5s-5.16602 -18.666 -8.49902 -24.999s-7.33301 -11.833 -12 -16.5c-10.667 -12.667 -26.334 -21 -47.001 -25s-50.667 -6 -90 -6c-38.667 0 -68.334 2 -89.001 6s-36.334 12.333 -47.001 25c-4.66699 4.66699 -8.66699 10.167 -12 16.5
s-6.16602 14.666 -8.49902 24.999s-4.16602 23.5 -5.49902 39.5s-2 36.333 -2 61h102c0 -13.333 0.166992 -24.166 0.5 -32.499s1 -15 2 -20s2.16699 -9 3.5 -12s3.33301 -5.5 6 -7.5c3.33301 -3.33301 8.33301 -5.5 15 -6.5s18.334 -1.5 35.001 -1.5
c17.333 0 29.333 0.5 36 1.5s11.334 3.16699 14.001 6.5c2 2.66699 3.83301 5.33398 5.5 8.00098s3 6.5 4 11.5s1.83301 11.667 2.5 20s1 19.166 1 32.499h102z" />
    <glyph glyph-name="Ohungarumlaut" unicode="&#x150;" 
d="M394 49c-6.66699 -12 -14.499 -21.833 -23.499 -29.5s-20.167 -14 -33.5 -19s-29 -8.5 -47 -10.5s-39 -3 -63 -3c-48.667 0 -85.5 4.5 -110.5 13.5s-44.167 25.167 -57.5 48.5c-6.66699 11.333 -12.334 23.833 -17.001 37.5s-8.5 32.167 -11.5 55.5
s-5.16699 53.833 -6.5 91.5s-2 86.167 -2 145.5s0.666992 107.666 2 144.999s3.5 67.666 6.5 90.999s6.83301 41.666 11.5 54.999s10.334 26 17.001 38c6.66699 11.333 14.5 21 23.5 29s20.167 14.5 33.5 19.5s29.166 8.5 47.499 10.5s39.5 3 63.5 3
c48 0 84.5 -4.66699 109.5 -14s44.167 -25.333 57.5 -48c6.66699 -12 12.334 -24.667 17.001 -38s8.5 -31.666 11.5 -54.999s5.16699 -53.666 6.5 -90.999s2 -85.666 2 -144.999s-0.666992 -107.833 -2 -145.5s-3.5 -68.167 -6.5 -91.5s-6.83301 -41.833 -11.5 -55.5
s-10.334 -26.167 -17.001 -37.5zM266.001 174c1.33301 4.66699 2.66602 10.667 3.99902 18s2.33301 18.333 3 33s1.16699 34.5 1.5 59.5s0.5 57.833 0.5 98.5c0 42 -0.166992 75.667 -0.5 101s-0.833008 45.5 -1.5 60.5s-1.66699 26.167 -3 33.5
s-2.66602 13.333 -3.99902 18c-2.66699 6.66699 -6.66699 11.5 -12 14.5s-14.333 4.5 -27 4.5s-21.834 -1.5 -27.501 -4.5s-9.5 -7.83301 -11.5 -14.5c-2 -4.66699 -3.5 -10.667 -4.5 -18s-2 -18.5 -3 -33.5s-1.66699 -35.167 -2 -60.5s-0.5 -59 -0.5 -101
c0 -40.667 0.166992 -73.5 0.5 -98.5s1 -44.833 2 -59.5s2 -25.667 3 -33s2.5 -13.333 4.5 -18c2 -6.66699 5.83301 -11.334 11.5 -14.001s14.834 -4 27.501 -4s21.667 1.33301 27 4s9.33301 7.33398 12 14.001zM259.001 789v5l91 168h140v-6l-114 -167h-117zM63.001 789v5
l91 168h141v-6l-115 -167h-117z" />
    <glyph glyph-name="ohungarumlaut" unicode="&#x151;" 
d="M394 49c-6.66699 -12 -14.499 -21.833 -23.499 -29.5s-20.167 -14 -33.5 -19s-29 -8.5 -47 -10.5s-39 -3 -63 -3c-48.667 0 -85.5 4.5 -110.5 13.5s-44.167 25.167 -57.5 48.5c-6.66699 11.333 -12.334 23.833 -17.001 37.5s-8.5 32.167 -11.5 55.5
s-5.16699 53.833 -6.5 91.5s-2 86.167 -2 145.5s0.666992 107.666 2 144.999s3.5 67.666 6.5 90.999s6.83301 41.666 11.5 54.999s10.334 26 17.001 38c6.66699 11.333 14.5 21 23.5 29s20.167 14.5 33.5 19.5s29.166 8.5 47.499 10.5s39.5 3 63.5 3
c48 0 84.5 -4.66699 109.5 -14s44.167 -25.333 57.5 -48c6.66699 -12 12.334 -24.667 17.001 -38s8.5 -31.666 11.5 -54.999s5.16699 -53.666 6.5 -90.999s2 -85.666 2 -144.999s-0.666992 -107.833 -2 -145.5s-3.5 -68.167 -6.5 -91.5s-6.83301 -41.833 -11.5 -55.5
s-10.334 -26.167 -17.001 -37.5zM266.001 174c1.33301 4.66699 2.66602 10.667 3.99902 18s2.33301 18.333 3 33s1.16699 34.5 1.5 59.5s0.5 57.833 0.5 98.5c0 42 -0.166992 75.667 -0.5 101s-0.833008 45.5 -1.5 60.5s-1.66699 26.167 -3 33.5
s-2.66602 13.333 -3.99902 18c-2.66699 6.66699 -6.66699 11.5 -12 14.5s-14.333 4.5 -27 4.5s-21.834 -1.5 -27.501 -4.5s-9.5 -7.83301 -11.5 -14.5c-2 -4.66699 -3.5 -10.667 -4.5 -18s-2 -18.5 -3 -33.5s-1.66699 -35.167 -2 -60.5s-0.5 -59 -0.5 -101
c0 -40.667 0.166992 -73.5 0.5 -98.5s1 -44.833 2 -59.5s2 -25.667 3 -33s2.5 -13.333 4.5 -18c2 -6.66699 5.83301 -11.334 11.5 -14.001s14.834 -4 27.501 -4s21.667 1.33301 27 4s9.33301 7.33398 12 14.001zM259.001 789v5l91 168h140v-6l-114 -167h-117zM63.001 789v5
l91 168h141v-6l-115 -167h-117z" />
    <glyph glyph-name="OE" unicode="&#x152;" horiz-adv-x="645" 
d="M226 0c-48 0 -84.667 4.33301 -110 13s-44.333 24.334 -57 47.001c-6.66699 10.667 -12.334 22.667 -17.001 36s-8.5 31.333 -11.5 54s-5.16699 52.167 -6.5 88.5s-2 83.166 -2 140.499s0.666992 104 2 140s3.5 65.333 6.5 88s6.83301 40.5 11.5 53.5
s10.334 25.167 17.001 36.5c12.667 22 31.667 37.5 57 46.5s62 13.5 110 13.5h390v-160h-179v-133h176v-153h-176v-143h178v-168h-389zM281 598l-50 0.00292969c-12.667 0 -21.834 -1.33301 -27.501 -4s-9.5 -6.66699 -11.5 -12c-2 -4.66699 -3.5 -10.334 -4.5 -17.001
s-2 -17 -3 -31s-1.66699 -33.167 -2 -57.5s-0.5 -55.833 -0.5 -94.5s0.166992 -69.834 0.5 -93.501s1 -42.5 2 -56.5s2 -24.167 3 -30.5s2.5 -11.833 4.5 -16.5c2 -6.66699 5.83301 -11.334 11.5 -14.001s14.834 -4 27.501 -4h50v431z" />
    <glyph glyph-name="oe" unicode="&#x153;" horiz-adv-x="645" 
d="M226 0c-48 0 -84.667 4.33301 -110 13s-44.333 24.334 -57 47.001c-6.66699 10.667 -12.334 22.667 -17.001 36s-8.5 31.333 -11.5 54s-5.16699 52.167 -6.5 88.5s-2 83.166 -2 140.499s0.666992 104 2 140s3.5 65.333 6.5 88s6.83301 40.5 11.5 53.5
s10.334 25.167 17.001 36.5c12.667 22 31.667 37.5 57 46.5s62 13.5 110 13.5h390v-160h-179v-133h176v-153h-176v-143h178v-168h-389zM281 598l-50 0.00292969c-12.667 0 -21.834 -1.33301 -27.501 -4s-9.5 -6.66699 -11.5 -12c-2 -4.66699 -3.5 -10.334 -4.5 -17.001
s-2 -17 -3 -31s-1.66699 -33.167 -2 -57.5s-0.5 -55.833 -0.5 -94.5s0.166992 -69.834 0.5 -93.501s1 -42.5 2 -56.5s2 -24.167 3 -30.5s2.5 -11.833 4.5 -16.5c2 -6.66699 5.83301 -11.334 11.5 -14.001s14.834 -4 27.501 -4h50v431z" />
    <glyph glyph-name="Racute" unicode="&#x154;" horiz-adv-x="462" 
d="M282 0c-2 6 -3.83105 12.499 -5.49805 19.499s-3.5 17.667 -5.5 32l-8 59.5c-3.33301 25.333 -7.33301 60 -12 104c-2 17.333 -4 31.333 -6 42s-4.33301 18.834 -7 24.501s-6 9.33398 -10 11.001s-8.33301 2.5 -13 2.5h-24v-295h-157v757h229c34 0 62 -3.83301 84 -11.5
s39.5 -19.667 52.5 -36s22 -37.333 27 -63s7.5 -56.834 7.5 -93.501c0 -39.333 -1.33301 -70.166 -4 -92.499s-6.83398 -39.833 -12.501 -52.5s-12.5 -22.167 -20.5 -28.5s-17.333 -12.5 -28 -18.5v-6c4 -3.33301 8.16699 -7 12.5 -11s8.16602 -10.667 11.499 -20
c5.33301 -12 10.833 -30.167 16.5 -54.5s11.167 -58.5 16.5 -102.5c4 -30.667 7 -55.334 9 -74.001s3.83301 -33.667 5.5 -45s3 -20 4 -26s2.5 -11.667 4.5 -17v-5h-167zM235.002 435.999c14.667 0 25 6.16797 31 18.501s9 36.166 9 71.499c0 30 -3.5 50 -10.5 60
s-18.167 15 -33.5 15h-40v-165h44zM158.002 789v5l91 168h141v-6l-115 -167h-117z" />
    <glyph glyph-name="racute" unicode="&#x155;" horiz-adv-x="462" 
d="M282 0c-2 6 -3.83105 12.499 -5.49805 19.499s-3.5 17.667 -5.5 32l-8 59.5c-3.33301 25.333 -7.33301 60 -12 104c-2 17.333 -4 31.333 -6 42s-4.33301 18.834 -7 24.501s-6 9.33398 -10 11.001s-8.33301 2.5 -13 2.5h-24v-295h-157v757h229c34 0 62 -3.83301 84 -11.5
s39.5 -19.667 52.5 -36s22 -37.333 27 -63s7.5 -56.834 7.5 -93.501c0 -39.333 -1.33301 -70.166 -4 -92.499s-6.83398 -39.833 -12.501 -52.5s-12.5 -22.167 -20.5 -28.5s-17.333 -12.5 -28 -18.5v-6c4 -3.33301 8.16699 -7 12.5 -11s8.16602 -10.667 11.499 -20
c5.33301 -12 10.833 -30.167 16.5 -54.5s11.167 -58.5 16.5 -102.5c4 -30.667 7 -55.334 9 -74.001s3.83301 -33.667 5.5 -45s3 -20 4 -26s2.5 -11.667 4.5 -17v-5h-167zM235.002 435.999c14.667 0 25 6.16797 31 18.501s9 36.166 9 71.499c0 30 -3.5 50 -10.5 60
s-18.167 15 -33.5 15h-40v-165h44zM158.002 789v5l91 168h141v-6l-115 -167h-117z" />
    <glyph glyph-name="Rcommaaccent" unicode="&#x156;" horiz-adv-x="462" 
d="M282 0c-2 6 -3.83105 12.499 -5.49805 19.499s-3.5 17.667 -5.5 32l-8 59.5c-3.33301 25.333 -7.33301 60 -12 104c-2 17.333 -4 31.333 -6 42s-4.33301 18.834 -7 24.501s-6 9.33398 -10 11.001s-8.33301 2.5 -13 2.5h-24v-295h-157v757h229c34 0 62 -3.83301 84 -11.5
s39.5 -19.667 52.5 -36s22 -37.333 27 -63s7.5 -56.834 7.5 -93.501c0 -39.333 -1.33301 -70.166 -4 -92.499s-6.83398 -39.833 -12.501 -52.5s-12.5 -22.167 -20.5 -28.5s-17.333 -12.5 -28 -18.5v-6c4 -3.33301 8.16699 -7 12.5 -11s8.16602 -10.667 11.499 -20
c5.33301 -12 10.833 -30.167 16.5 -54.5s11.167 -58.5 16.5 -102.5c4 -30.667 7 -55.334 9 -74.001s3.83301 -33.667 5.5 -45s3 -20 4 -26s2.5 -11.667 4.5 -17v-5h-167zM235.002 435.999c14.667 0 25 6.16797 31 18.501s9 36.166 9 71.499c0 30 -3.5 50 -10.5 60
s-18.167 15 -33.5 15h-40v-165h44zM114.002 -238v5l57 192h136v-6l-80 -191h-113z" />
    <glyph glyph-name="rcommaaccent" unicode="&#x157;" horiz-adv-x="462" 
d="M282 0c-2 6 -3.83105 12.499 -5.49805 19.499s-3.5 17.667 -5.5 32l-8 59.5c-3.33301 25.333 -7.33301 60 -12 104c-2 17.333 -4 31.333 -6 42s-4.33301 18.834 -7 24.501s-6 9.33398 -10 11.001s-8.33301 2.5 -13 2.5h-24v-295h-157v757h229c34 0 62 -3.83301 84 -11.5
s39.5 -19.667 52.5 -36s22 -37.333 27 -63s7.5 -56.834 7.5 -93.501c0 -39.333 -1.33301 -70.166 -4 -92.499s-6.83398 -39.833 -12.501 -52.5s-12.5 -22.167 -20.5 -28.5s-17.333 -12.5 -28 -18.5v-6c4 -3.33301 8.16699 -7 12.5 -11s8.16602 -10.667 11.499 -20
c5.33301 -12 10.833 -30.167 16.5 -54.5s11.167 -58.5 16.5 -102.5c4 -30.667 7 -55.334 9 -74.001s3.83301 -33.667 5.5 -45s3 -20 4 -26s2.5 -11.667 4.5 -17v-5h-167zM235.002 435.999c14.667 0 25 6.16797 31 18.501s9 36.166 9 71.499c0 30 -3.5 50 -10.5 60
s-18.167 15 -33.5 15h-40v-165h44zM114.002 -238v5l57 192h136v-6l-80 -191h-113z" />
    <glyph glyph-name="Rcaron" unicode="&#x158;" horiz-adv-x="462" 
d="M282 0c-2 6 -3.83105 12.499 -5.49805 19.499s-3.5 17.667 -5.5 32l-8 59.5c-3.33301 25.333 -7.33301 60 -12 104c-2 17.333 -4 31.333 -6 42s-4.33301 18.834 -7 24.501s-6 9.33398 -10 11.001s-8.33301 2.5 -13 2.5h-24v-295h-157v757h229c34 0 62 -3.83301 84 -11.5
s39.5 -19.667 52.5 -36s22 -37.333 27 -63s7.5 -56.834 7.5 -93.501c0 -39.333 -1.33301 -70.166 -4 -92.499s-6.83398 -39.833 -12.501 -52.5s-12.5 -22.167 -20.5 -28.5s-17.333 -12.5 -28 -18.5v-6c4 -3.33301 8.16699 -7 12.5 -11s8.16602 -10.667 11.499 -20
c5.33301 -12 10.833 -30.167 16.5 -54.5s11.167 -58.5 16.5 -102.5c4 -30.667 7 -55.334 9 -74.001s3.83301 -33.667 5.5 -45s3 -20 4 -26s2.5 -11.667 4.5 -17v-5h-167zM235.002 435.999c14.667 0 25 6.16797 31 18.501s9 36.166 9 71.499c0 30 -3.5 50 -10.5 60
s-18.167 15 -33.5 15h-40v-165h44zM173.002 789l-124 167v6h123l48 -69h11l46 69h124v-6l-125 -167h-103z" />
    <glyph glyph-name="rcaron" unicode="&#x159;" horiz-adv-x="462" 
d="M282 0c-2 6 -3.83105 12.499 -5.49805 19.499s-3.5 17.667 -5.5 32l-8 59.5c-3.33301 25.333 -7.33301 60 -12 104c-2 17.333 -4 31.333 -6 42s-4.33301 18.834 -7 24.501s-6 9.33398 -10 11.001s-8.33301 2.5 -13 2.5h-24v-295h-157v757h229c34 0 62 -3.83301 84 -11.5
s39.5 -19.667 52.5 -36s22 -37.333 27 -63s7.5 -56.834 7.5 -93.501c0 -39.333 -1.33301 -70.166 -4 -92.499s-6.83398 -39.833 -12.501 -52.5s-12.5 -22.167 -20.5 -28.5s-17.333 -12.5 -28 -18.5v-6c4 -3.33301 8.16699 -7 12.5 -11s8.16602 -10.667 11.499 -20
c5.33301 -12 10.833 -30.167 16.5 -54.5s11.167 -58.5 16.5 -102.5c4 -30.667 7 -55.334 9 -74.001s3.83301 -33.667 5.5 -45s3 -20 4 -26s2.5 -11.667 4.5 -17v-5h-167zM235.002 435.999c14.667 0 25 6.16797 31 18.501s9 36.166 9 71.499c0 30 -3.5 50 -10.5 60
s-18.167 15 -33.5 15h-40v-165h44zM173.002 789l-124 167v6h123l48 -69h11l46 69h124v-6l-125 -167h-103z" />
    <glyph glyph-name="Sacute" unicode="&#x15a;" horiz-adv-x="420" 
d="M250 522c0.666992 5.33301 1 9.83496 1 13.502v19.5c0 23.333 -2.83301 39.5 -8.5 48.5s-18.167 13.5 -37.5 13.5s-31.666 -4.5 -36.999 -13.5s-8 -25.167 -8 -48.5c0 -22 2.83301 -37.5 8.5 -46.5s14.834 -17.167 27.501 -24.5c14.667 -8.66699 28.5 -16 41.5 -22
l36 -16.5l31.5 -14.5c10 -4.66699 20 -10.334 30 -17.001c10.667 -8 20.167 -16.5 28.5 -25.5s15 -20.667 20 -35s8.83301 -32 11.5 -53s4 -47.167 4 -78.5c0 -45.333 -3.16699 -83 -9.5 -113s-17 -54 -32 -72s-35.333 -30.833 -61 -38.5s-57.5 -11.5 -95.5 -11.5
c-62.667 0 -108.667 11.833 -138 35.5s-44 65.167 -44 124.5c0 19.333 0.5 38.833 1.5 58.5s3.16699 35.5 6.5 47.5h131c-1.33301 -4 -2 -8.33301 -2 -13v-15c0 -29.333 3 -49.5 9 -60.5s19 -16.5 39 -16.5s33.167 4.83301 39.5 14.5s9.5 30.5 9.5 62.5
c0 19.333 -3 34 -9 44s-15.667 19.667 -29 29c-12 8 -24.833 15.333 -38.5 22s-27.334 13 -41.001 19s-26.834 12.5 -39.501 19.5s-24 15.167 -34 24.5c-20.667 18 -33.167 42.667 -37.5 74s-6.5 72 -6.5 122c0 35.333 2.83301 65.166 8.5 89.499s15.5 44 29.5 59
s33 25.833 57 32.5s54.667 10 92 10c34 0 62.5 -2.66699 85.5 -8s41.833 -14.5 56.5 -27.5s25.167 -30.167 31.5 -51.5s9.5 -48 9.5 -80c0 -20.667 -0.5 -37 -1.5 -49s-3.16699 -22.667 -6.5 -32h-130zM141 789.002v5l91 168h141v-6l-115 -167h-117z" />
    <glyph glyph-name="sacute" unicode="&#x15b;" horiz-adv-x="420" 
d="M250 522c0.666992 5.33301 1 9.83496 1 13.502v19.5c0 23.333 -2.83301 39.5 -8.5 48.5s-18.167 13.5 -37.5 13.5s-31.666 -4.5 -36.999 -13.5s-8 -25.167 -8 -48.5c0 -22 2.83301 -37.5 8.5 -46.5s14.834 -17.167 27.501 -24.5c14.667 -8.66699 28.5 -16 41.5 -22
l36 -16.5l31.5 -14.5c10 -4.66699 20 -10.334 30 -17.001c10.667 -8 20.167 -16.5 28.5 -25.5s15 -20.667 20 -35s8.83301 -32 11.5 -53s4 -47.167 4 -78.5c0 -45.333 -3.16699 -83 -9.5 -113s-17 -54 -32 -72s-35.333 -30.833 -61 -38.5s-57.5 -11.5 -95.5 -11.5
c-62.667 0 -108.667 11.833 -138 35.5s-44 65.167 -44 124.5c0 19.333 0.5 38.833 1.5 58.5s3.16699 35.5 6.5 47.5h131c-1.33301 -4 -2 -8.33301 -2 -13v-15c0 -29.333 3 -49.5 9 -60.5s19 -16.5 39 -16.5s33.167 4.83301 39.5 14.5s9.5 30.5 9.5 62.5
c0 19.333 -3 34 -9 44s-15.667 19.667 -29 29c-12 8 -24.833 15.333 -38.5 22s-27.334 13 -41.001 19s-26.834 12.5 -39.501 19.5s-24 15.167 -34 24.5c-20.667 18 -33.167 42.667 -37.5 74s-6.5 72 -6.5 122c0 35.333 2.83301 65.166 8.5 89.499s15.5 44 29.5 59
s33 25.833 57 32.5s54.667 10 92 10c34 0 62.5 -2.66699 85.5 -8s41.833 -14.5 56.5 -27.5s25.167 -30.167 31.5 -51.5s9.5 -48 9.5 -80c0 -20.667 -0.5 -37 -1.5 -49s-3.16699 -22.667 -6.5 -32h-130zM141 789.002v5l91 168h141v-6l-115 -167h-117z" />
    <glyph glyph-name="Scedilla" unicode="&#x15e;" horiz-adv-x="420" 
d="M250 522c0.666992 5.33301 1 9.83496 1 13.502v19.5c0 23.333 -2.83301 39.5 -8.5 48.5s-18.167 13.5 -37.5 13.5s-31.666 -4.5 -36.999 -13.5s-8 -25.167 -8 -48.5c0 -22 2.83301 -37.5 8.5 -46.5s14.834 -17.167 27.501 -24.5c14.667 -8.66699 28.5 -16 41.5 -22
l36 -16.5l31.5 -14.5c10 -4.66699 20 -10.334 30 -17.001c10.667 -8 20.167 -16.5 28.5 -25.5s15 -20.667 20 -35s8.83301 -32 11.5 -53s4 -47.167 4 -78.5c0 -45.333 -3.16699 -83 -9.5 -113s-17 -54 -32 -72s-35.333 -30.833 -61 -38.5s-57.5 -11.5 -95.5 -11.5
c-62.667 0 -108.667 11.833 -138 35.5s-44 65.167 -44 124.5c0 19.333 0.5 38.833 1.5 58.5s3.16699 35.5 6.5 47.5h131c-1.33301 -4 -2 -8.33301 -2 -13v-15c0 -29.333 3 -49.5 9 -60.5s19 -16.5 39 -16.5s33.167 4.83301 39.5 14.5s9.5 30.5 9.5 62.5
c0 19.333 -3 34 -9 44s-15.667 19.667 -29 29c-12 8 -24.833 15.333 -38.5 22s-27.334 13 -41.001 19s-26.834 12.5 -39.501 19.5s-24 15.167 -34 24.5c-20.667 18 -33.167 42.667 -37.5 74s-6.5 72 -6.5 122c0 35.333 2.83301 65.166 8.5 89.499s15.5 44 29.5 59
s33 25.833 57 32.5s54.667 10 92 10c34 0 62.5 -2.66699 85.5 -8s41.833 -14.5 56.5 -27.5s25.167 -30.167 31.5 -51.5s9.5 -48 9.5 -80c0 -20.667 -0.5 -37 -1.5 -49s-3.16699 -22.667 -6.5 -32h-130zM74 -237.998v5l57 192h136v-6l-80 -191h-113z" />
    <glyph glyph-name="scedilla" unicode="&#x15f;" horiz-adv-x="420" 
d="M250 522c0.666992 5.33301 1 9.83496 1 13.502v19.5c0 23.333 -2.83301 39.5 -8.5 48.5s-18.167 13.5 -37.5 13.5s-31.666 -4.5 -36.999 -13.5s-8 -25.167 -8 -48.5c0 -22 2.83301 -37.5 8.5 -46.5s14.834 -17.167 27.501 -24.5c14.667 -8.66699 28.5 -16 41.5 -22
l36 -16.5l31.5 -14.5c10 -4.66699 20 -10.334 30 -17.001c10.667 -8 20.167 -16.5 28.5 -25.5s15 -20.667 20 -35s8.83301 -32 11.5 -53s4 -47.167 4 -78.5c0 -45.333 -3.16699 -83 -9.5 -113s-17 -54 -32 -72s-35.333 -30.833 -61 -38.5s-57.5 -11.5 -95.5 -11.5
c-62.667 0 -108.667 11.833 -138 35.5s-44 65.167 -44 124.5c0 19.333 0.5 38.833 1.5 58.5s3.16699 35.5 6.5 47.5h131c-1.33301 -4 -2 -8.33301 -2 -13v-15c0 -29.333 3 -49.5 9 -60.5s19 -16.5 39 -16.5s33.167 4.83301 39.5 14.5s9.5 30.5 9.5 62.5
c0 19.333 -3 34 -9 44s-15.667 19.667 -29 29c-12 8 -24.833 15.333 -38.5 22s-27.334 13 -41.001 19s-26.834 12.5 -39.501 19.5s-24 15.167 -34 24.5c-20.667 18 -33.167 42.667 -37.5 74s-6.5 72 -6.5 122c0 35.333 2.83301 65.166 8.5 89.499s15.5 44 29.5 59
s33 25.833 57 32.5s54.667 10 92 10c34 0 62.5 -2.66699 85.5 -8s41.833 -14.5 56.5 -27.5s25.167 -30.167 31.5 -51.5s9.5 -48 9.5 -80c0 -20.667 -0.5 -37 -1.5 -49s-3.16699 -22.667 -6.5 -32h-130zM74 -237.998v5l57 192h136v-6l-80 -191h-113z" />
    <glyph glyph-name="Scaron" unicode="&#x160;" horiz-adv-x="420" 
d="M250 522c0.666992 5.33301 1 9.83496 1 13.502v19.5c0 23.333 -2.83301 39.5 -8.5 48.5s-18.167 13.5 -37.5 13.5s-31.666 -4.5 -36.999 -13.5s-8 -25.167 -8 -48.5c0 -22 2.83301 -37.5 8.5 -46.5s14.834 -17.167 27.501 -24.5c14.667 -8.66699 28.5 -16 41.5 -22
l36 -16.5l31.5 -14.5c10 -4.66699 20 -10.334 30 -17.001c10.667 -8 20.167 -16.5 28.5 -25.5s15 -20.667 20 -35s8.83301 -32 11.5 -53s4 -47.167 4 -78.5c0 -45.333 -3.16699 -83 -9.5 -113s-17 -54 -32 -72s-35.333 -30.833 -61 -38.5s-57.5 -11.5 -95.5 -11.5
c-62.667 0 -108.667 11.833 -138 35.5s-44 65.167 -44 124.5c0 19.333 0.5 38.833 1.5 58.5s3.16699 35.5 6.5 47.5h131c-1.33301 -4 -2 -8.33301 -2 -13v-15c0 -29.333 3 -49.5 9 -60.5s19 -16.5 39 -16.5s33.167 4.83301 39.5 14.5s9.5 30.5 9.5 62.5
c0 19.333 -3 34 -9 44s-15.667 19.667 -29 29c-12 8 -24.833 15.333 -38.5 22s-27.334 13 -41.001 19s-26.834 12.5 -39.501 19.5s-24 15.167 -34 24.5c-20.667 18 -33.167 42.667 -37.5 74s-6.5 72 -6.5 122c0 35.333 2.83301 65.166 8.5 89.499s15.5 44 29.5 59
s33 25.833 57 32.5s54.667 10 92 10c34 0 62.5 -2.66699 85.5 -8s41.833 -14.5 56.5 -27.5s25.167 -30.167 31.5 -51.5s9.5 -48 9.5 -80c0 -20.667 -0.5 -37 -1.5 -49s-3.16699 -22.667 -6.5 -32h-130zM158 789.002l-124 167v6h123l48 -69h11l46 69h124v-6l-125 -167h-103z
" />
    <glyph glyph-name="scaron" unicode="&#x161;" horiz-adv-x="420" 
d="M250 522c0.666992 5.33301 1 9.83496 1 13.502v19.5c0 23.333 -2.83301 39.5 -8.5 48.5s-18.167 13.5 -37.5 13.5s-31.666 -4.5 -36.999 -13.5s-8 -25.167 -8 -48.5c0 -22 2.83301 -37.5 8.5 -46.5s14.834 -17.167 27.501 -24.5c14.667 -8.66699 28.5 -16 41.5 -22
l36 -16.5l31.5 -14.5c10 -4.66699 20 -10.334 30 -17.001c10.667 -8 20.167 -16.5 28.5 -25.5s15 -20.667 20 -35s8.83301 -32 11.5 -53s4 -47.167 4 -78.5c0 -45.333 -3.16699 -83 -9.5 -113s-17 -54 -32 -72s-35.333 -30.833 -61 -38.5s-57.5 -11.5 -95.5 -11.5
c-62.667 0 -108.667 11.833 -138 35.5s-44 65.167 -44 124.5c0 19.333 0.5 38.833 1.5 58.5s3.16699 35.5 6.5 47.5h131c-1.33301 -4 -2 -8.33301 -2 -13v-15c0 -29.333 3 -49.5 9 -60.5s19 -16.5 39 -16.5s33.167 4.83301 39.5 14.5s9.5 30.5 9.5 62.5
c0 19.333 -3 34 -9 44s-15.667 19.667 -29 29c-12 8 -24.833 15.333 -38.5 22s-27.334 13 -41.001 19s-26.834 12.5 -39.501 19.5s-24 15.167 -34 24.5c-20.667 18 -33.167 42.667 -37.5 74s-6.5 72 -6.5 122c0 35.333 2.83301 65.166 8.5 89.499s15.5 44 29.5 59
s33 25.833 57 32.5s54.667 10 92 10c34 0 62.5 -2.66699 85.5 -8s41.833 -14.5 56.5 -27.5s25.167 -30.167 31.5 -51.5s9.5 -48 9.5 -80c0 -20.667 -0.5 -37 -1.5 -49s-3.16699 -22.667 -6.5 -32h-130zM158 789.002l-124 167v6h123l48 -69h11l46 69h124v-6l-125 -167h-103z
" />
    <glyph glyph-name="uni0162" unicode="&#x162;" horiz-adv-x="421" 
d="M132 0v597h-119v160h395v-160h-119v-597h-157zM87 -238v5l57 192h136v-6l-80 -191h-113z" />
    <glyph glyph-name="uni0163" unicode="&#x163;" horiz-adv-x="421" 
d="M132 0v597h-119v160h395v-160h-119v-597h-157zM87 -238v5l57 192h136v-6l-80 -191h-113z" />
    <glyph glyph-name="Tcaron" unicode="&#x164;" horiz-adv-x="421" 
d="M132 0v597h-119v160h395v-160h-119v-597h-157zM158 789l-124 167v6h123l48 -69h11l46 69h124v-6l-125 -167h-103z" />
    <glyph glyph-name="tcaron" unicode="&#x165;" horiz-adv-x="421" 
d="M132 0v597h-119v160h395v-160h-119v-597h-157zM158 789l-124 167v6h123l48 -69h11l46 69h124v-6l-125 -167h-103z" />
    <glyph glyph-name="Tbar" unicode="&#x166;" horiz-adv-x="421" 
d="M132 0v341h-84v124h84v132h-119v160h395v-160h-119v-132h83v-124h-83v-341h-157z" />
    <glyph glyph-name="tbar" unicode="&#x167;" horiz-adv-x="421" 
d="M132 0v341h-84v124h84v132h-119v160h395v-160h-119v-132h83v-124h-83v-341h-157z" />
    <glyph glyph-name="Utilde" unicode="&#x168;" horiz-adv-x="462" 
d="M279 757h156v-524c-0.666992 -31.333 -2 -57.333 -4 -78s-4.5 -38 -7.5 -52s-6.5 -25.5 -10.5 -34.5s-8.66699 -17.833 -14 -26.5c-6.66699 -10.667 -14.5 -19.5 -23.5 -26.5s-20.167 -12.667 -33.5 -17s-29 -7.33301 -47 -9s-39 -2.5 -63 -2.5
c-48.667 0 -85.667 3.83301 -111 11.5s-44.333 22.167 -57 43.5c-5.33301 8.66699 -10.333 17.5 -15 26.5s-8.66699 20.5 -12 34.5s-5.83301 31.333 -7.5 52s-2.5 46.667 -2.5 78v524h161v-524c0 -18 0.5 -32 1.5 -42s3.16699 -17.667 6.5 -23s8 -8.66602 14 -9.99902
s14 -2 24 -2s17.833 0.666992 23.5 2s10.167 4.66602 13.5 9.99902s5.5 13 6.5 23s1.5 24 1.5 42v524zM431 856c-15.333 -21.333 -31.832 -36.832 -49.499 -46.499s-38.5 -14.5 -62.5 -14.5c-17.333 0 -33.833 2.33301 -49.5 7s-31 9.83398 -46 15.501
s-29.833 10.834 -44.5 15.501s-29 7 -43 7c-20.667 0 -38.667 -4.5 -54 -13.5s-30.666 -23.833 -45.999 -44.5h-5v110c10 15.333 23.167 28.833 39.5 40.5s36.5 17.5 60.5 17.5c20 0 38.667 -2.33301 56 -7s33.833 -9.83398 49.5 -15.501s30.667 -10.834 45 -15.501
s28.166 -7 41.499 -7c20.667 0 39.167 4.16699 55.5 12.5s32.166 23.166 47.499 44.499h5v-106z" />
    <glyph glyph-name="utilde" unicode="&#x169;" horiz-adv-x="462" 
d="M279 757h156v-524c-0.666992 -31.333 -2 -57.333 -4 -78s-4.5 -38 -7.5 -52s-6.5 -25.5 -10.5 -34.5s-8.66699 -17.833 -14 -26.5c-6.66699 -10.667 -14.5 -19.5 -23.5 -26.5s-20.167 -12.667 -33.5 -17s-29 -7.33301 -47 -9s-39 -2.5 -63 -2.5
c-48.667 0 -85.667 3.83301 -111 11.5s-44.333 22.167 -57 43.5c-5.33301 8.66699 -10.333 17.5 -15 26.5s-8.66699 20.5 -12 34.5s-5.83301 31.333 -7.5 52s-2.5 46.667 -2.5 78v524h161v-524c0 -18 0.5 -32 1.5 -42s3.16699 -17.667 6.5 -23s8 -8.66602 14 -9.99902
s14 -2 24 -2s17.833 0.666992 23.5 2s10.167 4.66602 13.5 9.99902s5.5 13 6.5 23s1.5 24 1.5 42v524zM431 856c-15.333 -21.333 -31.832 -36.832 -49.499 -46.499s-38.5 -14.5 -62.5 -14.5c-17.333 0 -33.833 2.33301 -49.5 7s-31 9.83398 -46 15.501
s-29.833 10.834 -44.5 15.501s-29 7 -43 7c-20.667 0 -38.667 -4.5 -54 -13.5s-30.666 -23.833 -45.999 -44.5h-5v110c10 15.333 23.167 28.833 39.5 40.5s36.5 17.5 60.5 17.5c20 0 38.667 -2.33301 56 -7s33.833 -9.83398 49.5 -15.501s30.667 -10.834 45 -15.501
s28.166 -7 41.499 -7c20.667 0 39.167 4.16699 55.5 12.5s32.166 23.166 47.499 44.499h5v-106z" />
    <glyph glyph-name="Umacron" unicode="&#x16a;" horiz-adv-x="462" 
d="M279 757h156v-524c-0.666992 -31.333 -2 -57.333 -4 -78s-4.5 -38 -7.5 -52s-6.5 -25.5 -10.5 -34.5s-8.66699 -17.833 -14 -26.5c-6.66699 -10.667 -14.5 -19.5 -23.5 -26.5s-20.167 -12.667 -33.5 -17s-29 -7.33301 -47 -9s-39 -2.5 -63 -2.5
c-48.667 0 -85.667 3.83301 -111 11.5s-44.333 22.167 -57 43.5c-5.33301 8.66699 -10.333 17.5 -15 26.5s-8.66699 20.5 -12 34.5s-5.83301 31.333 -7.5 52s-2.5 46.667 -2.5 78v524h161v-524c0 -18 0.5 -32 1.5 -42s3.16699 -17.667 6.5 -23s8 -8.66602 14 -9.99902
s14 -2 24 -2s17.833 0.666992 23.5 2s10.167 4.66602 13.5 9.99902s5.5 13 6.5 23s1.5 24 1.5 42v524zM31 823v106h400v-106h-400z" />
    <glyph glyph-name="umacron" unicode="&#x16b;" horiz-adv-x="462" 
d="M279 757h156v-524c-0.666992 -31.333 -2 -57.333 -4 -78s-4.5 -38 -7.5 -52s-6.5 -25.5 -10.5 -34.5s-8.66699 -17.833 -14 -26.5c-6.66699 -10.667 -14.5 -19.5 -23.5 -26.5s-20.167 -12.667 -33.5 -17s-29 -7.33301 -47 -9s-39 -2.5 -63 -2.5
c-48.667 0 -85.667 3.83301 -111 11.5s-44.333 22.167 -57 43.5c-5.33301 8.66699 -10.333 17.5 -15 26.5s-8.66699 20.5 -12 34.5s-5.83301 31.333 -7.5 52s-2.5 46.667 -2.5 78v524h161v-524c0 -18 0.5 -32 1.5 -42s3.16699 -17.667 6.5 -23s8 -8.66602 14 -9.99902
s14 -2 24 -2s17.833 0.666992 23.5 2s10.167 4.66602 13.5 9.99902s5.5 13 6.5 23s1.5 24 1.5 42v524zM31 823v106h400v-106h-400z" />
    <glyph glyph-name="Ubreve" unicode="&#x16c;" horiz-adv-x="462" 
d="M279 757h156v-524c-0.666992 -31.333 -2 -57.333 -4 -78s-4.5 -38 -7.5 -52s-6.5 -25.5 -10.5 -34.5s-8.66699 -17.833 -14 -26.5c-6.66699 -10.667 -14.5 -19.5 -23.5 -26.5s-20.167 -12.667 -33.5 -17s-29 -7.33301 -47 -9s-39 -2.5 -63 -2.5
c-48.667 0 -85.667 3.83301 -111 11.5s-44.333 22.167 -57 43.5c-5.33301 8.66699 -10.333 17.5 -15 26.5s-8.66699 20.5 -12 34.5s-5.83301 31.333 -7.5 52s-2.5 46.667 -2.5 78v524h161v-524c0 -18 0.5 -32 1.5 -42s3.16699 -17.667 6.5 -23s8 -8.66602 14 -9.99902
s14 -2 24 -2s17.833 0.666992 23.5 2s10.167 4.66602 13.5 9.99902s5.5 13 6.5 23s1.5 24 1.5 42v524zM395 962c0 -24.667 -0.669922 -45.001 -2.00293 -61.001s-3.16602 -29.167 -5.49902 -39.5s-5.16602 -18.666 -8.49902 -24.999s-7.33301 -11.833 -12 -16.5
c-10.667 -12.667 -26.334 -21 -47.001 -25s-50.667 -6 -90 -6c-38.667 0 -68.334 2 -89.001 6s-36.334 12.333 -47.001 25c-4.66699 4.66699 -8.66699 10.167 -12 16.5s-6.16602 14.666 -8.49902 24.999s-4.16602 23.5 -5.49902 39.5s-2 36.333 -2 61h102
c0 -13.333 0.166992 -24.166 0.5 -32.499s1 -15 2 -20s2.16699 -9 3.5 -12s3.33301 -5.5 6 -7.5c3.33301 -3.33301 8.33301 -5.5 15 -6.5s18.334 -1.5 35.001 -1.5c17.333 0 29.333 0.5 36 1.5s11.334 3.16699 14.001 6.5c2 2.66699 3.83301 5.33398 5.5 8.00098
s3 6.5 4 11.5s1.83301 11.667 2.5 20s1 19.166 1 32.499h102z" />
    <glyph glyph-name="ubreve" unicode="&#x16d;" horiz-adv-x="462" 
d="M279 757h156v-524c-0.666992 -31.333 -2 -57.333 -4 -78s-4.5 -38 -7.5 -52s-6.5 -25.5 -10.5 -34.5s-8.66699 -17.833 -14 -26.5c-6.66699 -10.667 -14.5 -19.5 -23.5 -26.5s-20.167 -12.667 -33.5 -17s-29 -7.33301 -47 -9s-39 -2.5 -63 -2.5
c-48.667 0 -85.667 3.83301 -111 11.5s-44.333 22.167 -57 43.5c-5.33301 8.66699 -10.333 17.5 -15 26.5s-8.66699 20.5 -12 34.5s-5.83301 31.333 -7.5 52s-2.5 46.667 -2.5 78v524h161v-524c0 -18 0.5 -32 1.5 -42s3.16699 -17.667 6.5 -23s8 -8.66602 14 -9.99902
s14 -2 24 -2s17.833 0.666992 23.5 2s10.167 4.66602 13.5 9.99902s5.5 13 6.5 23s1.5 24 1.5 42v524zM395 962c0 -24.667 -0.669922 -45.001 -2.00293 -61.001s-3.16602 -29.167 -5.49902 -39.5s-5.16602 -18.666 -8.49902 -24.999s-7.33301 -11.833 -12 -16.5
c-10.667 -12.667 -26.334 -21 -47.001 -25s-50.667 -6 -90 -6c-38.667 0 -68.334 2 -89.001 6s-36.334 12.333 -47.001 25c-4.66699 4.66699 -8.66699 10.167 -12 16.5s-6.16602 14.666 -8.49902 24.999s-4.16602 23.5 -5.49902 39.5s-2 36.333 -2 61h102
c0 -13.333 0.166992 -24.166 0.5 -32.499s1 -15 2 -20s2.16699 -9 3.5 -12s3.33301 -5.5 6 -7.5c3.33301 -3.33301 8.33301 -5.5 15 -6.5s18.334 -1.5 35.001 -1.5c17.333 0 29.333 0.5 36 1.5s11.334 3.16699 14.001 6.5c2 2.66699 3.83301 5.33398 5.5 8.00098
s3 6.5 4 11.5s1.83301 11.667 2.5 20s1 19.166 1 32.499h102z" />
    <glyph glyph-name="Uring" unicode="&#x16e;" horiz-adv-x="462" 
d="M279 757h156v-524c-0.666992 -31.333 -2 -57.333 -4 -78s-4.5 -38 -7.5 -52s-6.5 -25.5 -10.5 -34.5s-8.66699 -17.833 -14 -26.5c-6.66699 -10.667 -14.5 -19.5 -23.5 -26.5s-20.167 -12.667 -33.5 -17s-29 -7.33301 -47 -9s-39 -2.5 -63 -2.5
c-48.667 0 -85.667 3.83301 -111 11.5s-44.333 22.167 -57 43.5c-5.33301 8.66699 -10.333 17.5 -15 26.5s-8.66699 20.5 -12 34.5s-5.83301 31.333 -7.5 52s-2.5 46.667 -2.5 78v524h161v-524c0 -18 0.5 -32 1.5 -42s3.16699 -17.667 6.5 -23s8 -8.66602 14 -9.99902
s14 -2 24 -2s17.833 0.666992 23.5 2s10.167 4.66602 13.5 9.99902s5.5 13 6.5 23s1.5 24 1.5 42v524zM317 790c-6.66699 -6 -16.667 -10 -30 -12s-32 -3 -56 -3c-25.333 0 -44.5 1 -57.5 3s-22.833 6 -29.5 12c-3.33301 2.66699 -6.16602 5.5 -8.49902 8.5
s-4.16602 7.33301 -5.49902 13s-2.33301 12.834 -3 21.501s-1 20.334 -1 35.001s0.333008 26.5 1 35.5s1.66699 16.167 3 21.5s3.16602 9.66602 5.49902 12.999s5.16602 6.33301 8.49902 9c6.66699 5.33301 16.667 9.16602 30 11.499s32.333 3.5 57 3.5
c24 0 42.667 -1.16699 56 -3.5s23.333 -6.16602 30 -11.499c3.33301 -2.66699 6.16602 -5.66699 8.49902 -9s4.33301 -7.66602 6 -12.999s2.83398 -12.5 3.50098 -21.5s1 -20.833 1 -35.5s-0.333008 -26.334 -1 -35.001s-1.83398 -15.834 -3.50098 -21.501
s-3.66699 -10 -6 -13s-5.16602 -5.83301 -8.49902 -8.5zM261 839c2.66699 1.33301 4.49902 3.66699 5.49902 7s1.5 11 1.5 23c0 13.333 -0.5 21.666 -1.5 24.999s-2.83301 6 -5.5 8c-1.33301 1.33301 -4.16602 2.33301 -8.49902 3s-11.5 1 -21.5 1
c-10.667 0 -18 -0.333008 -22 -1s-7.33301 -1.66699 -10 -3s-4.33398 -3.83301 -5.00098 -7.5s-1 -12.167 -1 -25.5c0 -12 0.333008 -19.667 1 -23s2.33398 -5.66602 5.00098 -6.99902s6 -2.33301 10 -3s11.333 -1 22 -1c10 0 17 0.333008 21 1s7 1.66699 9 3z" />
    <glyph glyph-name="uring" unicode="&#x16f;" horiz-adv-x="462" 
d="M279 757h156v-524c-0.666992 -31.333 -2 -57.333 -4 -78s-4.5 -38 -7.5 -52s-6.5 -25.5 -10.5 -34.5s-8.66699 -17.833 -14 -26.5c-6.66699 -10.667 -14.5 -19.5 -23.5 -26.5s-20.167 -12.667 -33.5 -17s-29 -7.33301 -47 -9s-39 -2.5 -63 -2.5
c-48.667 0 -85.667 3.83301 -111 11.5s-44.333 22.167 -57 43.5c-5.33301 8.66699 -10.333 17.5 -15 26.5s-8.66699 20.5 -12 34.5s-5.83301 31.333 -7.5 52s-2.5 46.667 -2.5 78v524h161v-524c0 -18 0.5 -32 1.5 -42s3.16699 -17.667 6.5 -23s8 -8.66602 14 -9.99902
s14 -2 24 -2s17.833 0.666992 23.5 2s10.167 4.66602 13.5 9.99902s5.5 13 6.5 23s1.5 24 1.5 42v524zM317 790c-6.66699 -6 -16.667 -10 -30 -12s-32 -3 -56 -3c-25.333 0 -44.5 1 -57.5 3s-22.833 6 -29.5 12c-3.33301 2.66699 -6.16602 5.5 -8.49902 8.5
s-4.16602 7.33301 -5.49902 13s-2.33301 12.834 -3 21.501s-1 20.334 -1 35.001s0.333008 26.5 1 35.5s1.66699 16.167 3 21.5s3.16602 9.66602 5.49902 12.999s5.16602 6.33301 8.49902 9c6.66699 5.33301 16.667 9.16602 30 11.499s32.333 3.5 57 3.5
c24 0 42.667 -1.16699 56 -3.5s23.333 -6.16602 30 -11.499c3.33301 -2.66699 6.16602 -5.66699 8.49902 -9s4.33301 -7.66602 6 -12.999s2.83398 -12.5 3.50098 -21.5s1 -20.833 1 -35.5s-0.333008 -26.334 -1 -35.001s-1.83398 -15.834 -3.50098 -21.501
s-3.66699 -10 -6 -13s-5.16602 -5.83301 -8.49902 -8.5zM261 839c2.66699 1.33301 4.49902 3.66699 5.49902 7s1.5 11 1.5 23c0 13.333 -0.5 21.666 -1.5 24.999s-2.83301 6 -5.5 8c-1.33301 1.33301 -4.16602 2.33301 -8.49902 3s-11.5 1 -21.5 1
c-10.667 0 -18 -0.333008 -22 -1s-7.33301 -1.66699 -10 -3s-4.33398 -3.83301 -5.00098 -7.5s-1 -12.167 -1 -25.5c0 -12 0.333008 -19.667 1 -23s2.33398 -5.66602 5.00098 -6.99902s6 -2.33301 10 -3s11.333 -1 22 -1c10 0 17 0.333008 21 1s7 1.66699 9 3z" />
    <glyph glyph-name="Uhungarumlaut" unicode="&#x170;" horiz-adv-x="462" 
d="M279 757h156v-524c-0.666992 -31.333 -2 -57.333 -4 -78s-4.5 -38 -7.5 -52s-6.5 -25.5 -10.5 -34.5s-8.66699 -17.833 -14 -26.5c-6.66699 -10.667 -14.5 -19.5 -23.5 -26.5s-20.167 -12.667 -33.5 -17s-29 -7.33301 -47 -9s-39 -2.5 -63 -2.5
c-48.667 0 -85.667 3.83301 -111 11.5s-44.333 22.167 -57 43.5c-5.33301 8.66699 -10.333 17.5 -15 26.5s-8.66699 20.5 -12 34.5s-5.83301 31.333 -7.5 52s-2.5 46.667 -2.5 78v524h161v-524c0 -18 0.5 -32 1.5 -42s3.16699 -17.667 6.5 -23s8 -8.66602 14 -9.99902
s14 -2 24 -2s17.833 0.666992 23.5 2s10.167 4.66602 13.5 9.99902s5.5 13 6.5 23s1.5 24 1.5 42v524zM263 789v5l91 168h140v-6l-114 -167h-117zM67 789v5l91 168h141v-6l-115 -167h-117z" />
    <glyph glyph-name="uhungarumlaut" unicode="&#x171;" horiz-adv-x="462" 
d="M279 757h156v-524c-0.666992 -31.333 -2 -57.333 -4 -78s-4.5 -38 -7.5 -52s-6.5 -25.5 -10.5 -34.5s-8.66699 -17.833 -14 -26.5c-6.66699 -10.667 -14.5 -19.5 -23.5 -26.5s-20.167 -12.667 -33.5 -17s-29 -7.33301 -47 -9s-39 -2.5 -63 -2.5
c-48.667 0 -85.667 3.83301 -111 11.5s-44.333 22.167 -57 43.5c-5.33301 8.66699 -10.333 17.5 -15 26.5s-8.66699 20.5 -12 34.5s-5.83301 31.333 -7.5 52s-2.5 46.667 -2.5 78v524h161v-524c0 -18 0.5 -32 1.5 -42s3.16699 -17.667 6.5 -23s8 -8.66602 14 -9.99902
s14 -2 24 -2s17.833 0.666992 23.5 2s10.167 4.66602 13.5 9.99902s5.5 13 6.5 23s1.5 24 1.5 42v524zM263 789v5l91 168h140v-6l-114 -167h-117zM67 789v5l91 168h141v-6l-115 -167h-117z" />
    <glyph glyph-name="Uogonek" unicode="&#x172;" horiz-adv-x="462" 
d="M345 -200c-5.33301 -7.33301 -18.3311 -15.5 -38.998 -24.5s-49 -13.5 -85 -13.5c-89.333 0 -134 35.333 -134 106c0 11.333 1.83301 22.833 5.5 34.5s10 22.667 19 33s21.333 20 37 29s35.5 16.5 59.5 22.5c-40.667 1.33301 -71.834 6 -93.501 14s-38.5 21.667 -50.5 41
c-5.33301 8.66699 -10.333 17.5 -15 26.5s-8.66699 20.5 -12 34.5s-5.83301 31.333 -7.5 52s-2.5 46.667 -2.5 78v524h161v-524c0 -18 0.5 -32 1.5 -42s3.16699 -17.667 6.5 -23s8 -8.66602 14 -9.99902s14 -2 24 -2s17.833 0.666992 23.5 2s10.167 4.66602 13.5 9.99902
s5.5 13 6.5 23s1.5 24 1.5 42v524h156v-524c-0.666992 -31.333 -2 -57.333 -4 -78s-4.5 -38 -7.5 -52s-6.5 -25.5 -10.5 -34.5s-8.66699 -17.833 -14 -26.5c-6.66699 -10 -14.167 -18.5 -22.5 -25.5s-18.833 -12.5 -31.5 -16.5l-36 -12.5
c-12 -4.33301 -22.833 -9.33301 -32.5 -15s-17.5 -12 -23.5 -19s-9 -15.167 -9 -24.5c0 -16 3.66699 -27.667 11 -35s20.333 -11 39 -11c10.667 0 19.667 1.16699 27 3.5s13.666 4.5 18.999 6.5h5v-93z" />
    <glyph glyph-name="uogonek" unicode="&#x173;" horiz-adv-x="462" 
d="M345 -200c-5.33301 -7.33301 -18.3311 -15.5 -38.998 -24.5s-49 -13.5 -85 -13.5c-89.333 0 -134 35.333 -134 106c0 11.333 1.83301 22.833 5.5 34.5s10 22.667 19 33s21.333 20 37 29s35.5 16.5 59.5 22.5c-40.667 1.33301 -71.834 6 -93.501 14s-38.5 21.667 -50.5 41
c-5.33301 8.66699 -10.333 17.5 -15 26.5s-8.66699 20.5 -12 34.5s-5.83301 31.333 -7.5 52s-2.5 46.667 -2.5 78v524h161v-524c0 -18 0.5 -32 1.5 -42s3.16699 -17.667 6.5 -23s8 -8.66602 14 -9.99902s14 -2 24 -2s17.833 0.666992 23.5 2s10.167 4.66602 13.5 9.99902
s5.5 13 6.5 23s1.5 24 1.5 42v524h156v-524c-0.666992 -31.333 -2 -57.333 -4 -78s-4.5 -38 -7.5 -52s-6.5 -25.5 -10.5 -34.5s-8.66699 -17.833 -14 -26.5c-6.66699 -10 -14.167 -18.5 -22.5 -25.5s-18.833 -12.5 -31.5 -16.5l-36 -12.5
c-12 -4.33301 -22.833 -9.33301 -32.5 -15s-17.5 -12 -23.5 -19s-9 -15.167 -9 -24.5c0 -16 3.66699 -27.667 11 -35s20.333 -11 39 -11c10.667 0 19.667 1.16699 27 3.5s13.666 4.5 18.999 6.5h5v-93z" />
    <glyph glyph-name="Wcircumflex" unicode="&#x174;" horiz-adv-x="723" 
d="M422 0l-52 464h-11l-56 -464h-222l-67 757h159l34 -515h11l69 515h158l70 -515h11l33 515h150l-65 -757h-222zM417 789l-47 69h-11l-47 -69h-123v5l124 168h103l125 -168v-5h-124z" />
    <glyph glyph-name="wcircumflex" unicode="&#x175;" horiz-adv-x="723" 
d="M422 0l-52 464h-11l-56 -464h-222l-67 757h159l34 -515h11l69 515h158l70 -515h11l33 515h150l-65 -757h-222zM417 789l-47 69h-11l-47 -69h-123v5l124 168h103l125 -168v-5h-124z" />
    <glyph glyph-name="Ycircumflex" unicode="&#x176;" horiz-adv-x="447" 
d="M142 0l-0.000976562 276l-138 476v5h162l25.5 -113.5l15 -68l8.5 -38.5c2 -8.66699 3.66699 -17 5 -25h10c1.33301 8 3 16.333 5 25l8.5 38.5c3.66699 17 8.83398 39.667 15.501 68l27 113.5h157v-5l-132 -474v-278h-169zM275.999 789l-47 69h-11l-47 -69h-123v5l124 168
h103l125 -168v-5h-124z" />
    <glyph glyph-name="ycircumflex" unicode="&#x177;" horiz-adv-x="447" 
d="M142 0l-0.000976562 276l-138 476v5h162l25.5 -113.5l15 -68l8.5 -38.5c2 -8.66699 3.66699 -17 5 -25h10c1.33301 8 3 16.333 5 25l8.5 38.5c3.66699 17 8.83398 39.667 15.501 68l27 113.5h157v-5l-132 -474v-278h-169zM275.999 789l-47 69h-11l-47 -69h-123v5l124 168
h103l125 -168v-5h-124z" />
    <glyph glyph-name="Ydieresis" unicode="&#x178;" horiz-adv-x="447" 
d="M142 0l-0.000976562 276l-138 476v5h162l25.5 -113.5l15 -68l8.5 -38.5c2 -8.66699 3.66699 -17 5 -25h10c1.33301 8 3 16.333 5 25l8.5 38.5c3.66699 17 8.83398 39.667 15.501 68l27 113.5h157v-5l-132 -474v-278h-169zM259.999 810v123h134v-123h-134zM53.999 810v123
h135v-123h-135z" />
    <glyph glyph-name="Zacute" unicode="&#x179;" horiz-adv-x="454" 
d="M24 0v179l200 407l-4 10h-188v161h405v-86l-239 -494l5 -9h227v-168h-406zM168 789v5l91 168h141v-6l-115 -167h-117z" />
    <glyph glyph-name="zacute" unicode="&#x17a;" horiz-adv-x="454" 
d="M24 0v179l200 407l-4 10h-188v161h405v-86l-239 -494l5 -9h227v-168h-406zM168 789v5l91 168h141v-6l-115 -167h-117z" />
    <glyph glyph-name="Zdotaccent" unicode="&#x17b;" horiz-adv-x="454" 
d="M24 0v179l200 407l-4 10h-188v161h405v-86l-239 -494l5 -9h227v-168h-406zM164 810v123h135v-123h-135z" />
    <glyph glyph-name="zdotaccent" unicode="&#x17c;" horiz-adv-x="454" 
d="M24 0v179l200 407l-4 10h-188v161h405v-86l-239 -494l5 -9h227v-168h-406zM164 810v123h135v-123h-135z" />
    <glyph glyph-name="Zcaron" unicode="&#x17d;" horiz-adv-x="454" 
d="M24 0v179l200 407l-4 10h-188v161h405v-86l-239 -494l5 -9h227v-168h-406zM183 789l-124 167v6h123l48 -69h11l46 69h124v-6l-125 -167h-103z" />
    <glyph glyph-name="zcaron" unicode="&#x17e;" horiz-adv-x="454" 
d="M24 0v179l200 407l-4 10h-188v161h405v-86l-239 -494l5 -9h227v-168h-406zM183 789l-124 167v6h123l48 -69h11l46 69h124v-6l-125 -167h-103z" />
    <glyph glyph-name="florin" unicode="&#x192;" 
d="M35 -104l6.99707 0.00292969c6.66699 -1.33301 13.834 -2.5 21.501 -3.5s16.5 -1.5 26.5 -1.5c12 0 21.833 1 29.5 3s13.5 5.66699 17.5 11s6.66699 12.666 8 21.999s2 21.666 2 36.999v473h-59v123h59v61c0 18 0.666992 33.5 2 46.5s3.33301 24.5 6 34.5
s6.16699 19.167 10.5 27.5s9.5 16.5 15.5 24.5c12 17.333 30 29.5 54 36.5s58 10.5 102 10.5c4 0 10 -0.333008 18 -1s16.167 -1.66699 24.5 -3s16 -2.66602 23 -3.99902s11.833 -3 14.5 -5v-123h-6c-6.66699 2 -14 3.66699 -22 5s-17.333 2 -28 2c-12 0 -21.667 -1 -29 -3
s-13.166 -5.66699 -17.499 -11s-7.16602 -12.833 -8.49902 -22.5s-2 -22.167 -2 -37.5v-38h108v-123h-108v-476c0 -22 -0.666992 -40.667 -2 -56s-3.33301 -28.833 -6 -40.5s-6 -21.834 -10 -30.501s-9 -17.334 -15 -26.001c-12 -17.333 -30 -29.333 -54 -36
s-58 -10 -102 -10c-4.66699 0 -11 0.333008 -19 1s-16 1.5 -24 2.5s-15.5 2.33301 -22.5 4s-11.833 3.5 -14.5 5.5v121z" />
    </font>
</defs>
</svg>
